<?xml version="1.0" encoding="UTF-8"?><svg id="_レイヤー_2" xmlns="http://www.w3.org/2000/svg" viewBox="0 0 195.1 41.73"><defs><style>.cls-1{fill:#211815;}</style></defs><g id="_レイヤー_1-2"><g><path class="cls-1" d="M17.22,1.76c.45,0,1.08,.22,1.58,.59,.14,.09,.27,.18,.32,.18,.09,0,.86,.45,1.26,.72,.41,.27,.99,.86,1.26,1.26,.32,.45,.9,1.4,1.13,1.85,.27,.54,.54,1.35,.59,1.71,.04,.13,.04,.41,.09,.59,.09,.41,.18,1.35,.14,1.44,0,.04-.09,.18-.14,.36q-.13,.36-.36,.45c-.27,.09-.45,.18-.54,.36-.04,.09-.18,.27-.36,.41-.14,.14-.27,.32-.27,.36s-.04,.09-.14,.23c-.22,.32-.32,.5-.22,1.04,.04,.5,.04,.95-.09,1.31-.09,.32-.04,1.17,.09,1.67,.13,.5,.13,.72-.04,.95-.27,.36-.41,.54-.45,.77-.04,.13-.09,.32-.14,.36-.04,.04-.04,.14-.04,.23s0,.23-.04,.32c-.04,.18-.04,.23,.09,.54,.09,.18,.18,.5,.18,.63,.04,.14,.09,.32,.09,.41,.05,.18-.09,.5-.32,.72-.22,.27-.22,.32-.18,.9,.04,.54,.09,1.08,.18,1.31,.04,.09,.04,.22,.04,.41,0,.14,0,.36,.05,.54,.04,.23,.04,.36,0,.59-.05,.18-.09,.45-.09,.5s-.04,.09-.09,.13c-.09,.09-.32,.54-.41,.86-.05,.18-.05,.32-.05,.41,.05,.09,.09,.32,.09,.45,.04,.14,.04,.27,.09,.36l.04,.14,.18-.09c.18-.09,.9-.59,1.8-1.22,.14-.09,.27-.22,.27-.27s.04-.09,.09-.09c.05-.04,.23-.18,.32-.32,.09-.18,.5-.68,.86-1.08,.63-.81,1.44-1.89,1.53-2.07,.04-.04,.09-.23,.13-.36,.04-.14,.23-.41,.36-.59,.14-.18,.27-.54,.36-.72,.13-.32,.13-.36,.09-.41s-.04-.09-.04-.14,0-.13-.04-.13c-.04-.04,.18-.45,.5-.86,.23-.27,.27-.5,.27-.9,0-.36,.05-.5,.14-.45,.04,0,.09-.04,.13-.13,.09-.18,.23-.32,.27-.27s.09,.04,.14,0c.09-.04,.09-.09,0-.23-.04-.09-.14-.13-.14-.18v-.13s0-.14,.09-.18c.09-.04,.13-.09,.13-.13s0-.04,.04-.04,.45-.18,.54-.27c.04-.04,.04,0,0-.04-.04-.05,.04-.05,.14-.05s.13,0,.18-.04c0-.04,.09-.04,.14-.04s.13-.04,.13-.09,.04-.04,.14-.04,.18,.04,.22,0c.09-.05,.18-.05,.59,.09,1.31,.45,1.76,.68,2.43,1.26,.27,.23,.5,.41,.54,.41,.18,0,.59,.13,.68,.23,.04,.04,.14,.09,.18,.09,.09,0,.59,.54,.77,.81,.09,.13,.27,.41,.27,.45,.04,.14,.18,.45,.32,.68,.18,.32,.27,.5,.27,.59,0,.13,.04,.22,.14,.36,.18,.27,.36,.63,.41,.95,.04,.23,.04,.32-.04,.36-.04,0-.04,.05,0,.23,.09,.27,.09,.32-.04,.45-.09,.09-.09,.13-.09,.23,.04,.09,0,.13-.09,.13-.13,0-.18,.13-.13,.41,0,.14,0,.32-.04,.36-.09,.18-.5,.54-.59,.54-.05,0-.14,.05-.18,.09s-.18,.13-.23,.13c-.23,.04-.32,.18-.45,.45-.09,.13-.23,.32-.36,.45-.18,.18-.22,.27-.22,.45,0,.54-.18,1.22-.41,1.53-.04,.04-.09,.18-.09,.27,0,.45-.23,1.22-.5,1.58-.13,.18-.13,.27-.13,.45,0,.04,.09,.27,.13,.36,.04,.14,.04,.18,0,.32-.04,.09-.09,.13-.13,.18-.09,.04-.09,.09-.09,.5,0,.63,0,.68-.27,.81-.22,.09-.22,.13-.22,.27,0,.09,0,.27-.05,.41-.04,.14-.09,.32-.09,.45s-.04,.32-.13,.54c-.09,.27-.09,.41-.09,.54,.05,.27-.04,.63-.22,.86-.09,.09-.14,.18-.09,.23s-.04,.09-.04,.14q-.04,.09-.18,.09c-.23,0-.32,.27-.32,.68,0,.23-.04,.32-.09,.41-.04,.09-.09,.27-.09,.41,0,.18-.04,.23-.18,.27-.18,.04-.5,.36-.59,.59-.04,.14-.09,.18-.23,.23-.09,.04-.18,.04-.22,.04s-.27,.45-.32,.68c-.04,.18-.36,.27-.59,.23-.18-.04-.27,.04-.45,.36-.09,.14-.18,.27-.23,.27-.13,.09-.32,.14-.36,.04,0-.04-.27-.04-.5-.04s-.5,0-.59-.04c-.23-.09-.59-.36-.9-.72-.13-.14-.32-.27-.36-.27-.23-.04-.63-.63-1.04-1.49-.32-.68-.36-.77-1.62-2.25-.77-.9-.72-.9-.68-.9,.09,0,.14,0,.04-.05-.09-.04-.13-.09-.04-.13t.04-.04s0-.04,.04-.04c.23,.09,.32,.09,.32,0,0-.04,0-.09-.05-.14-.04-.04-.04-.09,.05-.04,.04,0,.18,.09,.18,.14,.14,.18,.72,.86,.77,.86,.09,0-.27-.59-.41-.72-.04-.04-.13-.23-.22-.32-.09-.09-.32-.36-.45-.59-.13-.23-.27-.36-.27-.41s0,0,.04,0,.09-.04,.14-.09c.04-.09,0-.09-.09-.23-.13-.18-.04-.18,.14,0,.13,.09,.13,.14,.18,.09,.04-.04,0-.14-.27-.45-.14-.18-.23-.27-.18-.27,.04-.04,.13,0,.18,.09,.45,.54,.5,.59,.63,.63,.18,.04,.41,.27,.68,.72l.23,.36h.77c.77-.04,.86-.09,.86-.22,0-.05,0-.09,.09-.09s.13-.04,.18-.09c.04-.04,.09,0,.13,0,.09,0,.13-.04,.18-.18,.04-.09,.09-.18,.09-.27q0-.13,.18-.13c.13,0,.22-.04,.27-.13,.14-.18,.23-.41,.27-.63,0-.09,.05-.22,.05-.27,.04-.04,.04-.13,0-.13t0-.04s.09-.04,.09-.09,0-.13,.04-.22c.13-.27,.45-1.76,.54-2.3,.04-.27,.09-.68,.13-.86,.05-.23,.05-.5,.05-.59,0-.14,.04-.32,.09-.5,.18-.59,.36-1.53,.54-2.7l.18-1.17-.18-.23c-.09-.14-.23-.23-.32-.27q-.14-.04-.27,.18c-.09,.14-.27,.36-.36,.5-.77,.99-1.08,1.4-1.26,1.62-.04,.09-.32,.54-.5,.9-.41,.81-.77,1.35-1.22,1.8-.45,.45-.81,.99-.77,1.04,.05,.04,0,.04-.04,.09s-.09,.09-.09,.14c.04,.04,0,.04-.04,.09s-.14,.18-.18,.32c-.18,.36-.5,.68-.99,.95-.27,.14-.54,.27-.63,.36s-.32,.18-.45,.27c-.36,.18-.54,.32-.72,.59-.09,.14-.27,.36-.41,.5-.13,.14-.27,.32-.32,.36-.04,.09-.54,.45-.77,.59-.09,.05-.18,.09-.18,.14s-.04,.09-.14,.18c-.13,.09-.18,.09-.18,.04s-.09-.09-.14-.09-.04,0,0-.09,.04-.09-.09-.09c-.09,0-.23,.09-.27,.13-.14,.14-.27,.41-.32,.63-.04,.14-.09,.23-.23,.27-.09,.05-.32,.18-.45,.27-.23,.23-.36,.27-.77,.18-.14-.04-.27,0-.63,.13-.23,.09-.54,.23-.59,.27-.09,.05-.27,.18-.36,.23-.22,.14-.9,.36-1.04,.36-.04,0-.14,.05-.18,.14-.18,.32-.72,.72-1.13,.95-.13,.09-.18,.18-.23,.59,0,.18,0,.32-.04,.32s-.04,0-.04,.04-.04,.14-.09,.18c-.04,.09-.04,.18-.04,.32v.23h-.23c-.77,.04-2.16-.59-2.97-1.35-.09-.09-.45-.32-.68-.45-.5-.32-.77-.54-1.44-1.17-.54-.5-.86-.86-.86-1.04,0-.04,0-.09-.04-.09-.09-.04,.14-.59,.27-.72l.14-.13-.05-.27c-.04-.14-.09-.41-.18-.63-.09-.23-.14-.41-.14-.45s-.04-.18-.13-.36c-.14-.23-.27-.36-.54-.59-.41-.32-.81-.86-1.08-1.31-.13-.23-.18-.36-.13-.45,.04-.09,.04-.27,.04-.5,0-.27-.04-.41-.14-.63-.18-.32-.54-.77-.81-.99-.14-.09-.27-.18-.32-.27-.05-.09-.14-.22-.27-.27-.14-.04-.36-.22-.5-.36-.18-.18-.36-.27-.5-.32-.18-.04-.27-.09-.41-.27-.18-.23-.32-.54-.45-.9-.09-.27-.04-.36,.04-.36,.04,0,.04-.09,.04-.23s.05-.27,.09-.36c.04-.09,.04-.18,.04-.23s.04-.13,.09-.18c.04-.04,.14-.27,.23-.45,.09-.23,.18-.36,.41-.59,.32-.32,1.13-.9,1.35-.95,.18-.04,.54-.41,.95-.99,.41-.54,.9-1.13,1.26-1.49,.13-.14,.27-.27,.23-.32-.05-.04,.09-.09,.18-.18,.09-.09,.23-.27,.36-.41,.23-.27,.72-.77,1.04-.99,.09-.04,.27-.09,.54-.13,.27,0,.41,0,.72,.09,.23,.04,.59,.18,.81,.27,.32,.14,.41,.23,.99,.86,.72,.81,1.26,1.44,1.26,1.58,0,.04,0,.13-.04,.22-.04,.09-.09,.18-.09,.27-.05,.14-.18,.27-.5,.54-.09,.09-.23,.23-.27,.36-.04,.14-.18,.27-.23,.32-.18,.14-.59,.23-.81,.18-.13,0-.22,0-.36,.09-.09,.05-.18,.18-.23,.18-.09,.04-.22,.36-.27,.86,0,.18-.04,.41-.09,.45-.09,.13-.09,.27,0,.41,.14,.13,.14,.23,0,.32-.09,.09-.09,.18,0,.32,.09,.14,.09,.23-.09,.41-.09,.09-.23,.13-.18,.18s-.04,.09-.13,.23c-.09,.13-.27,.41-.36,.59-.13,.27-.18,.36-.32,.41l-.13,.05,.09,.18c.04,.09,.23,.32,.41,.54,.18,.23,.41,.54,.5,.68,.09,.14,.23,.41,.32,.54,.09,.14,.18,.23,.18,.27,0,.09,.18,.59,.27,.77,.04,.09,.09,.18,.04,.36-.04,.27,0,.36,.18,.59,.13,.18,.27,.41,.5,1.04q.23,.63,.45,.68c.23,.04,1.04,0,1.4-.09,1.31-.27,2.34-.5,2.39-.54s.09-.18,.14-.27l.09-.23-.59-.63c-.32-.36-.81-.86-1.04-1.13-.32-.36-.5-.54-.63-.63q-.18-.09-.18-.18c0-.09-.13-.23-.63-.72-.68-.72-1.08-1.22-1.53-1.89-.32-.5-.72-1.04-.68-1.04s.45,.41,.9,.95c1.22,1.31,2.07,2.12,2.48,2.34l.32,.18,.27-.09c.14-.04,.36-.09,.45-.09q.13,0,.32-.32c.09-.18,.23-.41,.32-.45,.09-.04,.27-.22,.41-.32,.13-.13,.41-.36,.54-.54l.27-.36v-.36c0-.14-.09-.63-.13-.86-.04-.27-.09-.59-.09-.77s-.09-.5-.14-.72c0-.14-.04-.5-.04-.9,.04-.68-.09-1.8-.23-2.75-.13-.86-.09-1.49,0-2.03,.09-.41,.36-3.7,.41-4.55,0-.32,.09-.72,.13-.9,.04-.23,.04-.68,.09-1.04,.04-.36,.14-.72,.14-.77s.04-.32,.04-.54c0-.27,.09-.59,.09-.72,.04-.27,.04-.32-.09-.59-.18-.41-.36-.95-.36-.99s-.09-.13-.27-.18c-.14-.04-.45-.18-.63-.27-.32-.18-.36-.18-.41-.36-.04-.09-.09-.22-.09-.27s.09-.13,.23-.27c.18-.18,.22-.27,.18-.32-.09-.09,0-.22,.14-.32,.09-.04,.13-.09,.13-.13s.32-.36,.68-.72c.32-.32,.86-.95,1.13-1.26,.41-.45,.63-.63,1.22-.99,.32-.18,.41-.22,.59-.22Zm3.97,31.6c.14,.23,.23,.36,.18,.41-.04,.04-.41-.45-.54-.68-.04-.13-.09-.27-.13-.27t-.04-.09c0-.23,.32,.13,.54,.63Zm.09-1.53c.09,.04,.18,.13,.13,.18-.04,.04-.09-.05-.13-.09-.09-.09-.04-.09,0-.09Zm5.32-9.29c0-.09-.04-.09-.27,.13-.13,.14-.36,.36-.45,.54-.09,.18-.23,.36-.32,.45l-.18,.18c-.04,.14,.13-.04,.72-.68,.36-.41,.5-.59,.5-.63Z"/><path class="cls-1" d="M49.94,10.82c.63,.41,1.08,.9,1.35,1.49,.22,.5,.32,.86,.32,1.62,0,.54,0,.68,.04,.72,.04,0,.09,.05,.04,.09s0,.04,.04,.09,.04,.18,.04,.23,.04,.13,.09,.18q.09,.09,.09,.41c-.04,.45-.14,1.13-.18,1.22,0,.04-.04,.13-.04,.18s-.04,.22-.09,.41c-.32,.9-.36,1.04-.36,1.49v.81c0,.13,0,.27-.05,.36,0,.09-.04,.32-.04,.5,0,.27,0,.32,.04,.32s.05,0,.05,.14c0,.09,0,.22-.05,.22s-.04,0,0,.04c.09,.05,.09,.09,.05,.23-.05,.09-.09,.09-.05,.14,.09,.09,.18,.45,.09,.59-.18,.32-.27,.5-.27,.72,0,.14,0,.32-.04,.36-.09,.13-.27,1.26-.32,1.71-.05,.5,.04,1.49,.18,2.16,.04,.27,.09,.63,.09,.81,0,.41,.05,.99,.14,1.35,.09,.41,.18,.5,.99,1.89,.36,.59,.81,1.31,1.13,1.62,.09,.09,.41,.36,.72,.68,1.26,1.17,1.31,1.22,1.13,1.44l-.09,.13,.14,.14c.09,.13,.13,.23,.13,.41,0,.45,.14,1.13,.27,1.35l.04,.13h-.18c-.59-.09-.95-.32-1.35-.68-.04-.04-.36-.27-.5-.36-.41-.27-1.04-.72-1.44-1.13-.5-.5-.68-.72-2.07-2.79-.63-.95-1.17-2.03-1.53-3.02-.18-.59-.68-2.48-.72-2.75,0-.13-.04-.32-.09-.45-.32-1.08-.5-4.69-.36-7.8,.13-2.75,.23-3.65,.81-5.54,.22-.68,.36-.95,.59-1.13,.09-.05,.22-.18,.32-.32,.18-.22,.32-.36,.45-.41,.04,0,.09-.09,.09-.13,0-.09,.04-.09,.36,.13Zm22.18-4.96c.13,0,.72,.5,.9,.77,.09,.13,.23,.32,.32,.45,.18,.32,.59,.72,.95,.9,.63,.32,1.17,.72,1.53,1.22,.09,.14,.27,.27,.41,.36,.13,.09,.41,.22,.59,.36l.32,.23,.27,.63c.23,.54,.27,.59,.45,.72,.59,.41,1.4,1.44,1.85,2.39,.09,.22,.27,.54,.36,.63,.36,.5,.36,1.08,0,2.03-.13,.32-.23,.63-.27,.68s-.13,.23-.22,.36c-.09,.18-.14,.32-.14,.41s.04,.54,.04,1.04c0,.68,0,.86-.13,1.44-.09,.32-.14,.59-.14,.63s-.04,.22-.13,.41c-.09,.27-.09,.41-.09,.81,0,.54-.09,.81-.5,1.58-.32,.68-.36,.81-.41,2.39-.04,1.4-.09,1.85-.18,1.89-.04,0-.09,.23-.14,.54-.04,.27-.09,.5-.13,.54,0,.04-.04,.13-.09,.23-.05,.09-.09,.18-.09,.23-.13,.18-.41,1.26-.41,1.62,0,.23-.23,1.17-.32,1.4-.04,.09-.18,.32-.27,.45-.14,.18-.23,.27-.32,.27s-.32,.23-1.13,1.13c-.54,.63-1.13,1.26-1.31,1.4-.41,.36-.99,.77-1.35,.9-.14,.05-.32,.14-.41,.18s-.32,.09-.59,.09c-.63,.04-.95,.18-1.17,.36-.23,.22-.5,.32-.81,.32-.23,0-.32,0-.59-.18-.04-.04-.32-.27-.41-.36-.14-.18-.36-.63-.36-.72,0-.04-.05-.18-.14-.32-.04-.13-.13-.36-.18-.5-.04-.13-.18-.36-.27-.5-.18-.23-.22-.27-.36-.23-.04,0-.09,0-.09-.04s0-.04-.04-.04c-.14,0-.54,.13-.63,.22s-.09,.05-.05-.04q.05-.09-.22,.04c-.18,.09-.23,.09-.18,.05,.04-.09,0-.14-.13-.09-.09,0-.23,.04-.32,.04s-.13,0-.13,.05-.04,.13-.09,.18c.04-.04,0-.09-.14-.04-.09,0-.36,.04-.59,.09-.23,0-.59,.09-.77,.14-.18,.04-.54,.13-.68,.18-.13,.05-.41,.09-.54,.14-.27,.09-.68,.13-2.3,.23-.5,0-.95,.04-1.08,.09-.45,.09-1.13,.04-1.71-.23-.27-.13-.68-.54-1.49-1.44-.32-.36-.36-.45-.36-.54,0-.27,.36-.99,.68-1.35,.13-.18,.13-.27,.13-.41-.04-.27,0-.5,.14-.77,.18-.32,.22-.63,.13-.9-.09-.32-.09-.59-.04-.77,.09-.23,.09-.86,.04-1.13s-.09-.36-.59-.63c-.27-.14-.36-.18-.68-.18-.23,0-.32,0-.32-.04,0-.09-.27-.09-1.22,0-.9,.09-1.04,.04-1.4-.68-.09-.18-.22-.41-.27-.5-.09-.23-.14-.45-.05-1.04,.05-.41,.23-.77,.36-.81,.04,0,.09-.09,.09-.45,0-.09,.13-.23,.27-.23,.04,0,.09-.04,.09-.09s.04-.14,.09-.09c.09,.04,.5-.32,.99-.86,.54-.59,.86-.9,.86-.77,0,.04,0,.09-.04,.09s-.09,.04-.09,.14-.13,.32-.36,.54c-.27,.27-.27,.36-.27,.45,.04,.14,.18,.45,.27,.45,.27,0,1.04-.41,1.76-.99,.45-.36,1.58-1.53,1.76-1.85,.18-.27,.27-.59,.27-.95,0-.41,.09-1.04,.27-1.71,.09-.32,.18-.72,.27-1.04s.23-.72,.27-.95c.09-.23,.18-.59,.23-.81,.09-.41,.09-.45,0-.5s-.32-.09-.5,0c-.09,.04-.32,.14-.54,.18-.27,.04-.5,.09-.72,.23-.5,.27-1.08,.77-1.58,1.22-.22,.23-.45,.45-.5,.45s-.36,.5-.81,1.08c-.77,1.04-.86,1.08-.86,.95,0-.22,.04-.5,.23-.72,.09-.14,.32-.5,.54-.86,.22-.36,.54-.9,.77-1.22s.41-.59,.41-.63,.45-.72,.72-1.04c.27-.36,1.53-1.67,2.61-2.75,.68-.72,1.76-1.58,1.98-1.67,.04-.05,.13-.09,.18-.14,.04-.04,.41-.32,.77-.54,.36-.22,.99-.68,1.4-.99,.72-.54,1.31-.9,1.67-1.04,.09-.04,.18-.09,.23-.13s.09-.04,.13-.04,.36-.14,.72-.32c.59-.32,1.49-.59,1.89-.68,.09,0,.27-.13,.36-.18q.18-.09,.45-.05c.36,.05,.95,.05,1.22-.04,.36-.13,.68-.18,.86-.13,.23,.04,.63-.04,.99-.18,.13-.04,.27-.09,.32-.09Zm-7.12,4.1s-.72,.54-1.13,.86c-.18,.14-.32,.23-.36,.23-.09-.04-.04,.09,.18,.36,.18,.23,.22,.23,.32,.23s.18,.04,.41,.27c.18,.13,.45,.45,.63,.59,.18,.13,.32,.27,.36,.32,.09,.09,.18,.5,.14,.54s-.04,.18-.04,.45-.04,.54-.09,.63c-.04,.13-.04,.18,.18,.63,.23,.36,.36,.72,.41,1.04,.04,.14,.09,.36,.18,.54,.14,.23,.18,.32,.18,.63s0,.32,.13,.41c.77,.41,.81,.5,1.04,1.17,.09,.27,.23,.54,.63,1.08,.59,.81,.68,.95,.68,1.31,0,.23,0,.27-.27,.54-.22,.23-.32,.32-.72,.5-.63,.27-.81,.45-.95,.72-.09,.18-.23,.36-.77,.86-.36,.36-.9,.81-1.17,1.04-.36,.32-.45,.5-.5,.59,0,.09-.04,.18-.09,.27-.04,.09-.14,.5-.18,.86s-.13,.72-.18,.81c-.05,.09-.14,.36-.18,.63s-.13,.59-.18,.72c0,.04-.09,.41-.13,.63,0,.23-.04,.45-.04,.5,0,.09,0,.14,.23,.32,.13,.09,.45,.36,.63,.54l.32,.32,.95-.04c.72,0,.99,0,1.26,.04,.36,.09,.41,.09,.41-.09,0-.04,.04-.09,.09-.14t.04,.05c0,.09,.04,.09,.04,.04s.05-.09,.09-.09c.09,0,.27-.18,.27-.27,0-.04,.23-.27,.68-.63,.77-.63,.95-.81,1.67-1.71,.99-1.22,1.26-1.58,1.44-1.94,.27-.54,.45-1.35,.45-1.85,0-.18,.05-.72,.09-1.17,.09-.9,.18-2.25,.18-3.02,0-.27,0-.5,.05-.5s.13-.63,.18-1.31c.04-.68,.14-1.49,.18-1.8,.09-.9,.13-1.94,.13-3.16v-1.13l-.36-.41c-.18-.23-.45-.54-.59-.72-.13-.18-.32-.41-.41-.5l-.18-.18-.23,.04c-.36,.09-.81,.09-.99,0-.18-.09-.45-.09-.68,0-.22,.09-.63,.09-.9,0-.27-.09-.86-.04-1.22,.09-.18,.09-.27,.13-.32,.09s-.04-.04-.09,0c-.09,.09-.54-.18-.9-.41-.18-.13-.45-.27-.63-.32-.18-.04-.32-.09-.36-.09Z"/><path class="cls-1" d="M134.81,.09c.13,.13,.68,.54,.9,.63,.13,.04,.32,.23,.5,.36,.18,.14,.32,.23,.36,.23,.04-.04,.36,.27,.5,.5,.04,.09,.18,.18,.22,.23,.27,.13,.45,.68,.32,.9-.13,.23-.18,.54-.09,.81,.04,.18,.04,.27,0,.41-.04,.13-.04,.18,0,.27,.04,.04,.04,.23,.09,.32,.05,.23,.18,.23,.36,.04,.18-.18,.36-.27,.54-.27,.09,0,.18,.04,.45,.27,.45,.36,.99,.72,1.53,.99,.27,.13,.45,.32,.68,.54,.13,.18,.41,.36,.54,.5,.32,.27,.45,.5,.45,.77,0,.23,.09,.36,.23,.36,.04,0,.13,0,.13,.04,.05,.04,0,.04-.04,.04s-.18,.09-.32,.23c-.32,.32-.5,.41-.95,.45-.14,0-.45,.09-.59,.13-.18,.04-.23,.04-.32,0-.09-.04-.14-.04-.23,0-.04,.04-.23,.14-.41,.18-.18,.04-.5,.18-.72,.32-.23,.13-.54,.27-.72,.32-.18,.04-.5,.18-.72,.27-.32,.13-.45,.18-.63,.18-.14,0-.32,.04-.41,.09q-.14,.09-.32,.68c-.18,.59-.32,.86-.41,.99-.04,.04-.13,.27-.18,.45l-.13,.32,.13,.04s.27-.04,.5-.09c.41-.13,1.13-.27,1.31-.27,.04,0,.09-.04,.13-.09s.14-.09,.23-.09,.18-.05,.23-.14c.09-.18,.22-.32,.27-.32s.13-.04,.22-.09c.18-.09,.27-.09,.63-.09,.59,.05,1.26,.14,1.89,.36,.36,.13,.5,.13,.68,.13,.41-.04,.72,.09,1.08,.41,.45,.41,.99,.72,1.4,.95,.23,.09,.45,.32,.54,.41l.27,.27c.09,.04,.59,.63,.99,1.17,.27,.36,.36,.54,.45,.86,.18,.5,.18,.77,0,1.13-.09,.14-.14,.36-.23,.5-.09,.18-.32,.45-.9,1.04-.72,.72-.77,.77-1.04,1.26-.22,.41-.36,.59-.59,.81-.13,.13-.32,.27-.36,.27-.09,0-.18,.13-.18,.27,0,.09-.09,.18-.27,.36-.14,.13-.27,.27-.27,.32t0,.04s-.14,.04-.27,.09c-.14,.04-.27,.09-.36,.14-.09,.04-.27,.09-.36,.13-.23,.04-.45,.27-.45,.45s-.14,.41-.36,.63c-.09,.13-.22,.23-.27,.23-.18,0-.04,.23,.45,.72,.63,.63,.81,.68,1.44,.36,.23-.13,.41-.18,.41-.22t.09-.04s.04-.05,.09-.14,.13-.13,.23-.13,.13-.05,.13-.09,0-.09,.04-.04c.05,0,.05,.04,.05,0s.13-.09,.22-.09c.14,0,.23,0,.36,.09,.22,.14,.32,.18,.68,.14h.77q.45,0,.77,.18c.54,.32,.63,.32,.81,.23s.45-.04,.86,.13c.27,.14,.95,.59,1.17,.77,.18,.14,.63,.63,.95,1.08l.23,.32-.04,.18c-.04,.13-.09,.36-.09,.59,0,.32,0,.41-.09,.59q-.09,.18-.36,.18c-.13,0-.32,0-.45,.04-.32,.09-1.13,.18-1.44,.14-.14-.04-.32-.04-.45-.04s-.32-.04-.41-.09c-.09-.04-.27-.13-.32-.13-.09,0-.32-.09-.41-.13-.09-.05-.32-.09-.72-.14-.32-.04-.59-.09-.72-.13-.09-.05-.27-.09-.36-.09s-.23,0-.27-.04c-.09-.04-.23-.09-.54-.09-.23,0-.59,0-.72-.04-.54-.09-.77-.09-.86-.05-.27,.18-.45,.86-.5,1.62,0,.41-.09,1.13-.18,1.8-.04,.41-.04,1.85,.04,2.43,.09,.68,.23,1.49,.32,1.8,.14,.45,.27,1.13,.27,1.58s-.13,.77-.41,1.08c-.09,.09-.18,.27-.18,.36s-.04,.13-.09,.13-.04,.04-.04,.09-.09,.09-.14,.09-.09,.04-.13,.09-.14,.09-.18,.13c-.04,.05-.13,.09-.18,.14-.09,.23-.18,.59-.18,.72,0,.27-.18,.59-.45,.81-.14,.09-.27,.18-.27,.23s-.05,.09-.14,.18c-.13,.13-.23,.22-.41,.22-.36,.05-.45,.09-.59,.23-.32,.27-.45,.32-.77,.27s-.59-.18-.81-.32c-.18-.09-.23-.09-.45-.09-.32,.04-.63-.04-.86-.18-.09-.04-.23-.13-.36-.18-.27-.09-.63-.36-1.13-.81-.14-.14-.54-.36-1.04-.63-.36-.18-.72-.41-.9-.54-.18-.14-.54-.36-.86-.54-2.52-1.53-2.79-1.71-3.34-2.21-.18-.18-.5-.41-.72-.54-.23-.13-.54-.36-.63-.45s-.18-.18-.23-.18-.09,0-.04-.04c.04-.04,.09-.04,.13,0s.09,.04,.14,.04,0-.09-.14-.13c-.86-.45-1.8-1.44-2.16-2.3-.05-.18-.14-.27-.18-.32-.04-.04-.04-.18,.04-.18,.04,0,.18,.09,.27,.18,.14,.14,.23,.27,.27,.5,.14,.45,.23,.59,.99,1.08,.54,.36,1.22,.68,1.85,.9,.41,.14,.63,.18,1.08,.23,.68,.04,.81,.09,1.26,.32,.32,.13,.41,.13,.68-.04,.05-.04,.14,.04,.27,.18s.32,.23,.41,.27c.09,0,.27,.04,.41,.09,.14,.04,.36,.13,.41,.18,.18,.09,.27,.14,.63,.14,.81,0,1.26-.14,2.03-.5,.5-.27,.77-.27,.9-.13q.09,.09,.36-.14c.36-.32,1.13-1.13,1.31-1.44q.09-.13,0-.32c-.27-.5-.27-1.08-.09-1.67,.09-.23,.14-.5,.18-.68,.04-.18,.09-.45,.13-.63,.05-.23,.05-.32-.09-.99-.13-.68-.13-1.35-.09-1.85l.04-.18h-.86c-.54,0-.99,.04-1.22,.09-.59,.09-1.26,.23-1.35,.27-.04,0-.18,.05-.36,.05-.32,.04-1.08,.22-1.26,.27-.04,0-.04,.04,.32,.36,.22,.18,.45,.36,.54,.41,.32,.18,.68,.72,.81,1.08,.04,.13,.14,.27,.23,.41,.41,.54,.54,.95,.59,1.8v.63l-.13,.18c-.18,.23-.45,.32-1.22,.36-.5,0-.63,0-.77-.05-.09-.04-.32-.09-.5-.09-.27,0-.77-.13-1.17-.36-.09-.04-.27-.09-.5-.09-.36,0-.59-.09-.86-.27-.13-.09-.18-.09-.36-.04-.23,.04-.63,0-.9-.14l-.18-.13-.36,.09c-.18,.04-.36,.09-.41,.13s-.23,.09-.41,.14c-.27,.09-.32,.09-.36,.04s-.04-.13-.04-.18c.04-.13,.54-.54,.81-.68,.13-.04,.22-.09,.22-.13s.14-.27,.27-.59l.23-.54-.13-.32c-.09-.18-.18-.41-.23-.54q-.04-.23-.18-.32c-.23-.14-.54-.14-1.13,.09-.72,.27-1.26,.54-1.53,.68-.13,.04-.5,.18-.86,.32-1.04,.36-1.49,.54-1.94,.77-.68,.36-1.31,.68-1.8,.9-.23,.09-.59,.27-.72,.36-.32,.18-.41,.18-.99,.14-.36-.04-.41-.04-.45,.04-.05,.09-.09,.32-.09,.77-.04,.59-.13,1.49-.18,1.67-.05,.23,.45,3.16,.59,3.43,.09,.14,.09,.18,.04,.23s-.04,.04-.04,.09,0,.14-.05,.18c-.04,.04-.09,.13-.09,.18s0,.04-.04,.04c-.13,0-.13,.09,0,.23,.18,.13,.23,.27,.13,.22h-.13s-.13,0-.27-.09c-.09-.09-.23-.18-.32-.23-.14-.09-.9-.63-1.44-1.04-.23-.18-.41-.36-.45-.45-.09-.13-.13-.27-.09-.32s.04-.04,.04-.09,.04-.23,.09-.45c.18-.59,.18-.68,.09-.68t-.09,.04s-.09-.36-.09-.99c0-1.08-.04-1.67-.23-2.25-.09-.41-.09-.68,.09-1.04,.23-.41,.27-.59,.32-1.08,.09-.99,.04-1.94-.23-2.66-.13-.41-.13-.77,.04-1.08,.32-.63,.36-.77,.36-1.4,0-.59,0-.81-.09-1.08-.09-.45-.09-1.17,.04-1.58,.14-.41,.14-1.13,0-1.62-.13-.5-.18-.5-.36-.45s-1.13,.09-1.67,.04h-1.49c-.32-.04-.5-.09-.77-.27-.5-.32-.59-.45-.54-.68,.09-.45,.72-1.35,1.26-1.76,.41-.32,.81-.72,1.13-1.17,.18-.23,.36-.54,.45-.63,.23-.27,.45-.72,.59-1.08,.23-.54,.41-.95,.68-1.31,.27-.36,.99-1.71,1.13-2.12,.04-.13,.09-.27,.13-.36,.23-.41,.32-1.04,.36-3.29,0-1.31,0-1.49-.09-1.8-.09-.23-.09-.45-.09-.72,0-.32-.04-.41-.18-.59-.23-.41-.27-.5-.32-.86,0-.27,0-.41,.04-.45s.14-.23,.18-.41c.09-.27,.13-.36,.27-.5,.36-.32,.68-.72,.68-.86s0-.13,.14-.18c.09-.04,.18-.09,.18-.13s.09-.09,.14-.14c.04,0,.09,0,.13,.05t.04,0c.05-.14,.14-.23,.23-.18,.04,0,.09,.04,.14,0t.04,.04s.04,.04,.09,.04c.04-.04,.04-.09,0-.13-.09-.14,0-.04,.14,.09,.09,.09,.13,.14,.13,.09s-.04-.04,0-.04,.09-.04,.09-.09,.05,0,.23,.09c.18,.09,.27,.09,.5,.09,.27,0,.32,.04,.41,.13,.14,.14,.18,.09,.09-.04-.05-.04-.05-.09,0-.14s0-.09,.04-.04c.09,.14,.59,.72,.63,.81,.04,.04,.13,.23,.23,.36,.09,.14,.45,.59,.72,.9,.27,.32,.54,.68,.59,.77,.14,.18,.32,.77,.27,.95-.04,.23-.09,.27-.18,.32l-.14,.04,.09,.22s.18,.23,.23,.27c.14,.09,.18,.27,.18,.45,0,.09,.04,.18,.09,.23,.04,.09,.04,.13,0,.27-.04,.09,0,.22,0,.27,0,.09,0,.18-.13,.41-.23,.41-.41,.86-.54,1.4-.14,.59-.23,.81-.36,1.13-.09,.18-.18,.36-.18,.5,0,.09,0,.23-.04,.27-.04,.05-.04,.36,0,.36s.04,.04,.04,.13,.04,.18,.13,.27c.09,.09,.14,.18,.14,.23s.13,.09,.23,.09c.13,0,.18,.04,.45,.36,.18,.23,.36,.5,.5,.77,.13,.23,.32,.63,.41,.86,.18,.36,.23,.41,.32,.45,.09,0,.14,0,.14,.04s.27,.13,.41,.09c.23-.04,3.29-2.39,4.82-3.7,.36-.32,.41-.36,.27-.36s-1.08-.36-1.44-.54-1.4-.99-1.67-1.26c-.27-.32-.41-.63-.41-.86,0-.18,0-.23,.18-.45,.14-.13,.27-.27,.36-.32q.13-.09,.41,.04c.32,.14,.59,.14,2.03,.04,.54-.04,1.17,0,1.44,0,.32,0,.54,0,.68-.04l.18-.04-.04-.63c-.04-.63,.04-1.94,.13-2.66,.04-.27,.04-.41,0-.41-.09-.04-.45-.32-.54-.41-.09-.09-.09-.18-.04-.23s0-.13-.09-.27c-.04-.09-.09-.18-.04-.18s.04,0,.04-.05c.04-.27,.04-.41,.09-.41s.09-.09,.14-.18c.09-.22,.32-.45,.54-.54,.09-.04,.22-.18,.32-.27,.18-.23,.72-.68,1.13-.86,.22-.09,.45-.18,.72-.18,.36-.04,.41,0,.41-.09,0-.14,.13-.23,.27-.23,.09,0,.14,0,.18-.04,.04-.09,.09-.04,.18,.04Zm-11.67,17.4h-.23c-.36,0-.72,.09-.86,.18-.05,.04-.14,.13-.18,.27-.18,.41-.41,.77-.59,.99-.27,.27-.32,.41-.41,.68-.04,.13-.18,.36-.22,.45-.05,.09-.14,.32-.14,.45-.09,.68-.18,1.08-.27,1.22-.04,.09-.09,.27-.13,.5-.04,.22-.09,.59-.14,.81-.04,.23-.13,.72-.13,.81v.41h.13c.18,0,.23,.04,.14,.22,0,.05-.04,.14-.09,.14s-.09,.04-.09,.18c0,.09-.13,.32-.23,.45-.27,.41-.32,.72-.41,1.62,0,.13-.04,.27-.04,.32-.04,.04-.04,.23-.09,.41-.09,.41-.18,.63-.23,.63s-.04,.23-.04,.45-.09,.5-.09,.59c0,.04,.04,.13,.09,.18,.04,0,.09,0,.09-.05,.04-.04,.09-.04,.23,0,.13,.05,.18,.09,.22,.05s.05-.05,.05,0c.04,.04,.18,.09,.32,.18q.22,.14,.45,.09c.14-.05,.27-.05,.27-.09s.09-.04,.18-.09c.09-.04,.36-.18,.63-.36,.27-.18,1.04-.63,1.67-1.04,1.62-.99,2.21-1.35,2.93-1.94,.36-.27,.63-.5,.68-.5s.14-.05,.18-.09,.13-.09,.18-.09c.09,0-.72,.77-1.35,1.26-.36,.32-.5,.41-1.22,.86-.41,.23-1.44,.99-1.71,1.26l-.18,.18,.59-.18c.32-.09,.9-.36,1.31-.5,.68-.27,1.53-.54,1.98-.63,.23-.04,.32-.14,.45-.36,.04-.09,.14-.23,.23-.27,.09-.05,.23-.14,.32-.23,.32-.32,.45-.32,1.04-.32,.54,0,.77,.04,1.35,.23,.27,.09,.45,.04,.72-.05,.27-.09,.5-.13,1.94-.41,.77-.13,1.85-.36,2.34-.45,.5-.09,.95-.18,.99-.18,.09,0,.27-.04,.41-.09,.14-.04,.54-.09,.86-.09,.72-.04,.68-.04,.59-.23-.04-.09-.13-.27-.22-.36-.09-.09-.18-.18-.18-.23s.04-.13,.13-.22,.14-.14,.14-.18c0-.09,.59-.68,.63-.63,.04,0,.14,.04,.18,0,.09-.04,.13-.04,.18-.04s.05,.04,.05,0-.09-.09-.27-.18c-.18-.09-.32-.13-.32-.18s-.13-.09-.32-.18c-.27-.14-.41-.18-.45-.14s-.09,.04-.14,0c-.04-.04-.77-.27-.9-.27-.04,0-.18,.04-.27,.09-.09,.04-.18,.04-.22,.04s-.09,.04-.14,.04c-.23,.09-1.08,.27-1.22,.27-.18,0-.68,.23-.63,.27s-.45,.18-.5,.13-.23,0-.41,.04c-.23,.05-.41,.14-.5,.23s-.18,.14-.27,.14-.14-.04-.14,0-.09,.09-.22,.09c-.36,.04-.86,.32-1.53,.81-.63,.45-.63,.5-.59,.63,0,.09,0,.13-.18,.23-.14,.09-.23,.09-.32,.04-.09-.04-.14,0-.23,.09-.18,.14-.27,.14-.59-.04-.14-.09-.36-.23-.5-.27-.13-.04-.32-.13-.41-.23-.09-.09-.27-.18-.36-.27s-.36-.27-.54-.45c-.18-.18-.41-.36-.45-.36-.09-.05-.14-.05-.14-.09s-.09-.18-.27-.36c-.18-.13-.5-.45-.72-.63-.27-.27-.41-.36-.5-.36-.13,0-.45-.32-.59-.59-.09-.23-.18-.5-.18-.54,.04-.04,0-.09-.05-.14-.04-.04,0-.09,0-.13,.05-.14,.45-.77,.5-.77s.04,0,.04-.04-.04-.04-.09-.04c-.18,0-.23-.09-.23-.5,0-.45-.04-.81-.27-1.26-.18-.41-.32-.72-.32-1.04v-.27Zm7.98-6.17c-.27,0-1.13,.45-1.67,.81-1.08,.72-1.76,1.35-2.34,2.25-.23,.32-.45,.68-.5,.77-.18,.32-.5,.54-.99,.77l-.45,.22,.14,.18c.36,.41,.59,.63,.63,.63s.18-.09,.36-.22c1.13-.77,3.16-1.8,4.69-2.48,.27-.09,.32-.18,.41-.41,.04-.14,.09-.32,.09-.36,0-.13-.13-.59-.18-.63-.09-.09-.14-.23-.14-.86,0-.36,0-.68-.04-.68Zm-.18,4.78s-.36,.18-2.07,1.35c-.41,.27-.68,.5-1.13,.99-.63,.68-.63,.72-.5,.95,.09,.09,.09,.18,.09,.63,0,.27,0,.54,.04,.5s.04,.04,.04,.13,.18,.36,.36,.59c.18,.23,.36,.45,.41,.59,.04,.09,.18,.27,.23,.36,.04,.09,.13,.18,.13,.27,.04,.09,.09,.14,.13,.14,.18,0,1.89-.45,1.98-.5,.09-.09,.14-.36,.14-.63,0-.23-.04-.36-.18-.5-.09-.13-.13-.27-.13-.32,0-.23-.09-.32-.23-.32-.23,0-.59-.09-.86-.23-.68-.36-.99-.54-1.04-.59-.09-.09-.13-.09-.04-.09,.04,0,.09-.04,.09-.09-.05-.09,.13-.32,.22-.27,.04,0,.04,.04,.04,0s0-.09-.04-.09c-.09-.04-.04-.09,.04-.09,.05,0,.09-.04,.09-.09s.04-.04,.09-.04,.09-.05,.09-.09,.09-.09,.14-.09,.13-.04,.13-.09c.04-.09,.14-.18,.45-.23,.27-.04,.68-.23,.77-.32,.04-.04,.13-.09,.22-.14l.18-.09,.04-.81c.04-.45,.04-.77,.04-.81Zm7.39-2.34s-.04,0-.09,.04-.14,.09-.27,.09c-.81,.04-.99,.09-1.76,.32-.23,.09-.45,.13-.54,.13s-.14,.04-.14,.23c0,.32-.09,.9-.23,1.13l-.13,.18,.45,.32c.22,.18,.59,.5,.81,.72,.23,.18,.41,.36,.45,.36s.09,.05,.13,.14q.09,.13,.05,.13c-.14-.04-.05,.23,.13,.5l.13,.23-.18,.23c-.14,.09-.23,.18-.23,.22,.09,.18-.41,.45-.68,.41-.04,0-.23,0-.45,.04-.27,.04-.32,.09-.36,.23-.04,.13-.27,.32-.41,.32s-.32,.09-.36,.23c-.04,.18-.27,.36-.41,.41-.04,0-.09,.04-.09,.18,0,.09-.05,.27-.05,.32,0,.09-.04,.09,0,.09s.14,.04,.23,.14l.18,.18,.18-.09c.09-.04,.54-.09,.9-.18,.36-.09,.81-.18,1.04-.23l.41-.09,.63-.63c1.04-1.08,1.31-1.44,1.53-1.98,.04-.13,.18-.41,.27-.59,.27-.45,.41-.86,.45-1.31,.04-.18,.09-.5,.13-.63,.18-.5,.09-.95-.36-1.4l-.23-.22h-.41c-.23,0-.5-.04-.59-.09-.09-.04-.14-.04-.18-.04Zm8.52-10.41s.27,.18,.41,.32c.13,.14,.27,.27,.32,.27,.09,0,.99,1.13,1.31,1.62,.23,.36,.32,.59,.45,.99,.09,.27,.18,.45,.18,.5,.09,.09,.04,.27-.09,.54-.18,.36-.27,.72-.18,.95,.04,.09,.04,.18,.04,.27s-.04,.14,0,.14,.04,.09,.04,.13,0,.04-.04,0-.32,.09-.36,.23c0,.04-.09,.09-.14,.04-.04,0-.13-.04-.23-.04s-.22-.04-.27-.09-.13-.04-.22-.04c-.14,0-.54-.09-.63-.18-.04-.04-.09-.04-.13-.04s-.13,0-.18-.09c-.04-.09-.09-.13-.32-.18-.13-.05-.27-.09-.32-.05-.04,.05-.04,0-.09-.04s-.18-.13-.32-.13c-.54-.14-.63-.18-.68-.23-.09-.13-.45-.36-.81-.54-.14-.09-.27-.18-.32-.23-.05-.04-.14-.09-.23-.09-.04,0-.18-.04-.27-.04s-.27,0-.41,.04c-.27,.09-.27,0-.13-.32,.04-.14,.09-.32,.09-.36,0-.09-.23-.45-.45-.72-.04-.09-.09-.23-.09-.27,0-.09,.09-.32,.18-.36l.18-.18c.18-.22,.63-.63,.99-.86,.23-.13,.41-.22,.45-.22,.27,0,.36,0,.77-.27,.18-.14,.45-.32,.63-.41,.36-.18,.68-.18,.86-.04Z"/><path class="cls-1" d="M183.71,.68c.09,0,.23,.04,.36,.09,.5,.09,1.89,.72,2.34,1.04,.27,.18,.68,.36,.9,.45,.14,.05,.32,.14,.45,.27s.36,.27,.54,.41c.9,.63,2.3,1.85,2.39,2.16,.04,.04,.09,.18,.14,.18,.18,.04,.59,.99,.9,2.07,.13,.45,.13,.59,.13,.95,0,.27-.09,.59-.13,.72-.09,.23-.18,.36-.23,.41-.09,.04-.27,.09-.36,.14-.09,.04-.36,.09-.54,.13l-.41,.14-.81,.81c-.45,.45-1.04,.99-1.31,1.22-.41,.32-.54,.41-.63,.41s-.18,0-.27,.09c-.13,.14-.41,.18-.45,.09,0-.04-.32-.09-.45-.04-.09,.04-.09,0-.09-.09,0-.04-.23-.04-.27,0s.13,.18,.54,.59c.41,.41,.54,.54,.5,.59s0,.09,.09,.18c.09,.04,.18,.23,.27,.41l.09,.32-.14,.14c-.09,.09-.18,.18-.27,.18-.13,.04-.13,.09-.09,.09,.09,.04-.18,.27-.5,.45-.18,.09-.54,.23-.77,.27s-.5,.14-.63,.18c-.14,.04-.23,.04-.27,.04t-.09,0s-.09,.09-.32,.09c-.04,0-.09,0-.13,.05-.04,.04-.14,.04-.32,.04s-.36,.04-.54,.09c-.14,.04-.41,.18-.68,.23-.22,.04-.5,.13-.54,.13s.04,.09,.22,.27c.32,.36,.32,.45,.14,.9-.18,.45-.23,.68-.27,1.04-.04,.5,0,.54,1.31,.54,.68,0,1.35-.04,1.49-.04,.09,0,.45-.09,.72-.14s.5-.09,.54-.13c.09-.09,.54-.32,.86-.45,.18-.09,.23-.09,.54-.04,.18,.04,.41,.09,.54,.13q.22,.05,.36-.09c.09-.09,.18-.13,.23-.13s.09,0,.09-.04c0-.09,.9-.23,1.13-.14,.09,.04,.09,0,.23-.09,.09-.09,.22-.18,.32-.23,.09-.04,.23-.13,.32-.18,.09-.04,.23-.09,.27-.09,.13,0,1.49,.59,2.12,.9,.59,.32,.9,.59,1.31,1.31,.04,.09,.04,.13,0,.27-.04,.09-.14,.13-.18,.13-.09,0-.09,.04-.09,.18,.04,.18,.09,.32,.18,.45,.05,.04,.05,.14-.04,.41-.13,.41-.36,.59-.59,.63-.04,0-.23,.09-.32,.13l-.13,.09-.36-.09-.32-.13-1.8,.04c-1.89,.04-1.98,.04-3.34,.13-.45,.05-.95,.09-1.13,.09-.36,0-.72,.09-.99,.23-.18,.09-.45,.13-.59,.04-.04-.04-.18,0-.54,.13-.54,.23-.68,.36-.77,.5-.05,.04-.09,.13-.18,.13-.18,0-.23,.09-.14,.23,.05,.04,.09,.14,.09,.18,0,.09-.14,.18-.23,.13-.04,0-.09,0-.09,.04,0,.14-.18,.32-.45,.36l-.27,.04-.09,.32c-.14,.45-.18,1.26-.04,1.85,.04,.23,.18,.59,.22,.77l.09,.27-.23,.68c-.13,.36-.27,.68-.27,.72s0,.09,.04,.09,.09-.04,.09,0-.05,.27-.09,.54,0,.59,0,.68,.04,.77,.04,1.53c.05,.77,.05,1.53,.09,1.71,.04,.32,.13,1.85,.13,2.84,0,.5-.04,.54,.04,.54,.14-.04,.36,.32,.36,.54,0,.18-.05,.32-.45,.86-.27,.36-.36,.5-.36,.63s0,.18-.09,.14c-.09,0-.13,0-.22,.18-.05,.14-.23,.36-.41,.5-.13,.18-.36,.41-.41,.5-.04,.13-.32,.32-.63,.63-.45,.41-.54,.5-.59,.68-.05,.18-.09,.23-.27,.32-.14,.09-.32,.14-.41,.14-.04,0-.23,0-.36,.04-.23,.04-.32,.04-.41-.04-.14-.14-.63-.77-1.04-1.31-.18-.22-.36-.45-.5-.54-.09-.09-.22-.23-.32-.36l-.13-.23h-.27c-.36,0-.59-.13-.81-.41-.09-.13-.23-.27-.32-.36s-.14-.23-.14-.27-.18-.32-.41-.54c-.32-.32-.5-.45-.72-.59-.5-.27-.81-.5-.81-.54,.04-.04,.22-.04,.5,.04l.23,.09-.18-.18c-.14-.14-.18-.23-.14-.23s.04-.09-.18-.36c-.13-.18-.5-.59-.77-.9l-.45-.59-.22,.09c-.09,.04-.23,.04-.32,.04-.04,0-.22,.04-.36,.09-.13,.04-.27,.13-.36,.13-.14,0-.63-.18-.63-.23s-.04,0-.14,.09c-.18,.13-.23,.13-.86,.13-.68,0-.81,0-.9-.09-.04-.04-.13-.09-.27-.04-.09,.04-.18,.09-.23,.13-.09,.14-.27,.14-.36,0-.13-.18-.5-.54-.59-.54-.04,0-.09-.04-.13-.04t-.14,0c-.09,.04-.18,.04-.32,0-.18-.04-.23-.09-.36-.27-.09-.13-.18-.27-.18-.32q0-.09-.04-.04c-.04,.09-.04,.59,.04,.81,.04,.13,.04,.32,.04,.41,0,.18-.22,.9-.5,1.58-.09,.23-.14,.45-.14,.59,0,.18,0,.22,.14,.27,.13,.09,.27,.32,.27,.41,0,.04-.05,.04-.09,.04-.09,0-.04,.04-.04,.18,.04,.13,0,.13-.04,.09-.04,0-.09,.04-.09,.09,0,.09-.18,.23-.36,.18-.09,0-.13,0-.22,.13-.18,.23-.36,.27-.63,.05-.09-.09-.27-.23-.41-.27-.32-.18-.72-.5-.81-.68-.04-.09-.13-.18-.18-.23-.05-.04-.14-.18-.18-.27-.13-.32-.5-.77-.81-1.04-.27-.27-.36-.41-.36-.77,0-.09,0-.18-.04-.22-.04-.05,0-.09,.04-.14s.04-.13,0-.27c-.09-.27-.09-.45,0-.72,.04-.14,.13-.32,.13-.41s.09-.18,.14-.27c.23-.27,.59-.81,.68-.99,.27-.63,.32-1.49,.14-2.25-.04-.23-.09-.45-.14-.5s-.04-.04,0-.04,.09-.04,.09-.09q0-.09-.09-.09t-.09-.14c.04-.09,.04-.13,0-.13s0-.05,.04-.09c.09-.04,.14-.09,.14-.13s.04-.09,.09-.09q.09-.04,.04-.09c-.04-.09,0-.09,.23,0,.09,.04,.18,.09,.23,.04,.04-.04,.22-.63,.36-1.17,.13-.45,.36-1.44,.45-1.98,.09-.63,.09-.72,.05-.72s-.18,.32-.32,.72c-.13,.41-.27,.81-.32,.86-.13,.14-.27,.32-.32,.63-.04,.13-.13,.32-.18,.41-.14,.18-.14,.23-.05,.18t.05,.04s-.05,.04-.05,.09q-.04,.09-.09,.04s0-.09-.04-.04-.18,.36-.36,.86c-.18,.45-.36,.86-.41,.9s-.13,.18-.22,.36c-.09,.18-.27,.45-.36,.59-.09,.14-.22,.41-.32,.54-.04,.14-.13,.23-.18,.23-.09,0-.09-.18-.05-.32,.09-.14,.05-.18,0-.09-.13,.18-.22,.45-.18,.5,0,.05-.04,.05-.09,.09-.05,.04-.09,.09-.09,.13s-.04,.14-.09,.23-.09,.23-.09,.27,0,.09-.05,.09c-.04,.04-.04,.09-.04,.18,0,.04-.13,.36-.27,.68-.13,.27-.27,.59-.27,.63,0,.09-.09,.14-.18,.14-.04,0-.04-.04-.04-.09s0-.04,.04-.04h.09s.04,0,0-.04-.04-.09,.18-.59c.32-.68,.81-1.94,.77-1.98-.04-.04-.13,.04-.22,.09-.09,.04-.18,.18-.59,1.17-.36,.95-.54,1.26-.59,1.13,0-.05,0-.09,.05-.09s.04-.04,0-.04-.09,.14-.23,.32c-.32,.5-.72,.86-1.26,1.22-.27,.18-.59,.45-.72,.59-.41,.41-.72,.5-.72,.23,0-.04,.09-.45,.23-.81,.14-.36,.32-.9,.41-1.22,.09-.32,.22-.72,.32-.86,.13-.23,.27-.72,.81-2.88,.04-.23,.09-.27,.18-.32,.04-.04,.09-.09,.09-.13,0-.14,.22-.72,.5-1.17,.27-.45,.36-.72,.54-1.67,.09-.41,.14-.68,.14-1.49,0-.63,0-1.13,.04-1.4,.09-.63,.32-1.31,.45-1.62,.27-.59,.32-.81,.36-1.62,0-.54,.09-.77,.18-.99,.14-.32,.36-.99,.59-1.58,.09-.27,.14-.45,.18-1.08,.04-.81,.13-1.35,.23-1.8,.04-.18,.09-.77,.18-1.35,.14-.9,.18-1.13,.27-1.4,.23-.59,.36-.99,.36-1.71,0-.5,.05-.81,.14-1.13,.04-.27,.13-.59,.13-.81,0-.32,0-.41-.45-1.26-.14-.23-.27-.54-.32-.68-.04-.18-.14-.23-.23-.27-.32-.18-.63-.41-.77-.54-.18-.18-.27-.5-.13-.54,.04,0,.09-.09,.09-.18,.04-.18,.41-.5,.68-.59,.14-.04,.27-.13,.36-.22,.13-.14,.18-.18,.13-.27-.04-.18,.09-.36,.32-.5,.18-.09,.27-.18,.27-.27,.04-.23,.23-.54,.36-.63,.27-.18,.59-.23,.9-.23,.27,0,.45,.04,.99,.23,.36,.13,.72,.23,.81,.23s.18,.04,.18,.09c.05,.04,.14,.04,.32,.04s.41,0,.54,.04c.36,.09,1.08,.5,1.44,.77,.18,.13,.36,.27,.45,.32s.27,.23,.45,.36c.36,.27,.5,.54,.59,.99,.04,.13,.13,.36,.22,.45,.14,.18,.27,.59,.27,.77,0,.04,.04,.18,.09,.27,.13,.32,.13,.63-.09,1.13-.13,.32-.27,.5-.54,.81-.18,.22-.36,.5-.45,.63-.59,.95-.68,1.22-.81,1.76-.04,.18-.18,.5-.27,.72-.09,.23-.18,.5-.23,.63-.09,.32-.32,.95-.45,1.4-.04,.18-.09,.36-.09,.41s-.09,.23-.18,.41c-.09,.18-.18,.5-.23,.72-.04,.18-.09,.36-.13,.45-.05,.09-.05,.18,0,.18s-.05,.18-.14,.41c-.13,.27-.18,.36-.13,.41s.04,.13,0,.22c-.04,.09-.04,.23-.09,.36-.04,.18-.04,.13-.04-.32s0-.59,.09-.77c.09-.23,.09-.27,.04-.32s-.09,0-.23,.23c-.04,.13-.09,.36-.09,.5s-.05,.23-.05,.27c-.04,.04-.09,.41-.18,.86-.09,.45-.23,.9-.27,1.04-.04,.13-.09,.23-.04,.27s0,.13-.04,.27c-.05,.13-.05,.27-.05,.41,0,.18,0,.36-.09,.63-.23,.77-.5,1.76-.54,2.07,0,.18-.09,.45-.13,.59-.09,.18-.09,.27-.09,.36s0,.23-.04,.32c-.09,.13,0,.23,.09,.13,.04-.04,.09-.04,.04,.05,0,.04-.09,.32-.14,.59-.04,.32-.09,.5-.18,.59-.09,.09-.14,.27-.18,.54v.36l-.04-.23v-.27l-.14,.5c-.04,.27-.18,.77-.27,1.08-.09,.32-.22,.63-.22,.77s0,.23-.04,.27c-.05,.04,0,0,0,.04,.04,.04,0,.04-.05,.09-.09,.04-.09,.32-.04,.36,.04,0,.09,.13,.18,.27,.09,.13,.32,.41,.5,.59,.04,.09,.36,.5,.45,.63l.18,.27,.09-.09c.13-.18,1.04-1.98,1.31-2.62,.13-.32,.32-.59,.36-.72s.04-.23,0-.36c-.04-.09-.09-.18-.09-.27,0-.14,0-.18,.13-.23,.09-.04,.13-.13,.13-.23,0-.18,.36-.68,.5-.77,.04-.05,.09-.09,.09-.14s.14-.23,.27-.36c.23-.23,.23-.32,.23-.45,0-.09,0-.18,.04-.13s.04-.04,.09-.09c.13-.14,.36-.18,.63-.14,.18,0,.27,0,1.17-.41,.5-.23,.9-.45,.95-.45s.36-.36,.81-.81c.45-.45,.81-.81,.86-.77,.09,.09-.18,.5-.54,.86-.18,.22-.41,.45-.45,.5l-.09,.09h.32c.27-.05,1.22-.32,1.98-.54,.14-.04,.54-.23,.95-.45,.45-.23,.99-.45,1.31-.54,.36-.09,.72-.18,1.62-.32,.22-.04,.59-.09,.81-.18,.23-.09,.41-.14,.45-.14,.13,0,.36-.13,.41-.27,.05-.09,.09-.27,.05-.63l-.05-.54-.27-.13c-.13-.09-.36-.27-.5-.41-.18-.18-.27-.27-.27-.36s.04-.18,.09-.13t.04-.05s0-.04,.04-.04,.09-.04,.09-.09c0-.09,.04-.18,.23-.27,.13-.09,.22-.13,.22-.18s.09-.18,.18-.27q.13-.18,.09-.27s-.09-.09-.09-.13c0-.13-.09-.18-.27-.18-.09,0-.18-.04-.23-.04-.09-.04-.5,.18-.9,.45-.45,.32-.5,.23-.04-.23,.36-.36,.41-.41,.32-.45-.04-.04-.18,0-.23,0s-.13,0-.23-.04c-.09-.04-.18-.09-.22-.09-.14,0-.32-.18-.45-.41-.04-.14-.09-.32-.13-.68-.05-.77-.09-.95-.18-1.08-.27-.36-.32-.77-.18-.9,.05-.04,.14-.18,.18-.32,.18-.41,.36-.63,.95-.99,.63-.41,1.89-1.35,2.71-2.03,.99-.81,1.71-1.49,2.75-2.57,.95-.99,1.31-1.4,1.8-2.12l.27-.36-.36-.23q-.63-.36-.99-.36h-.41l-.36,.27c-.23,.14-.54,.36-.72,.54-.18,.18-.5,.36-.68,.45-.18,.09-.5,.32-.72,.45-.41,.32-.81,.54-1.13,.63-.09,.05-.27,.09-.32,.14s-.04,.09-.09,.04c-.04,0-.36,.23-.95,.68-.5,.41-.72,.5-1.13,.5-.27,0-.45-.13-.68-.5-.09-.18-.23-.36-.27-.41q-.04-.09,.5-.72c1.26-1.44,2.21-2.34,3.29-3.06,.27-.18,.72-.45,.99-.68,.27-.22,.68-.54,.95-.72s.59-.45,.77-.59c.32-.27,.77-.5,1.13-.59,.32-.09,.59-.04,.77,0Zm-20.24,25.65v.13s-.04,0-.04-.09,.04-.09,.04-.04Zm1.67-6.31c0,.09,0,.18-.05,.23,0,.04-.09,.18-.09,.32s-.04,.27-.09,.32c-.09,.09-.09,.04,0-.23,.04-.13,.09-.36,.13-.54,.04-.32,.09-.27,.09-.09Zm11.94,3.34c-.09,.04-.23,.09-.27,.09s-.23,.09-.36,.18c-.18,.09-.32,.14-.32,.09-.04-.04-1.17,.04-1.53,.13-.22,.04-.36,.14-.9,.68-.27,.27-.54,.5-.59,.54-.13,.09-.27,.05-.36-.04-.04-.04-.13-.04-.54,.04-1.08,.23-1.53,.41-1.76,.59-.13,.09-.36,.23-.54,.32-.45,.22-.81,.68-.63,.81,.09,.05,.04,.18-.09,.18-.09,0-.18,.04-.18,.09-.04,.09-.13,.18-.23,.18-.04,0-.04-.04-.09-.09-.04-.05-.09-.14-.13-.14-.14-.04-.36,.09-.36,.18,0,.04-.04,.13-.09,.18-.04,.05-.09,.14-.14,.23-.04,.09-.13,.18-.18,.23-1.04,.5-1.13,.5-1.31,.23-.13-.23-.36-.68-.36-.81,0-.09,0-.04-.04,.04-.14,.36-.36,1.08-.45,1.53-.04,.27-.18,.77-.27,1.04-.18,.72-.27,1.35-.32,2.21,0,.68,0,.77,.09,.9,.09,.18,.22,.23,.18,.09,0-.09-.04-.09,.04-.09s.09,0,.05-.04-.05-.09-.05-.14c0-.09,.18-.09,.23-.04-.09-.09-.04-.18,.04-.13q.09,.04,.05-.05s-.05-.18-.05-.22c0-.14,.18-.41,.32-.45,.05,0,.09-.09,.09-.18,0-.18,.04-.36,.13-.36,.04,0,.14,0,.14-.04,.04-.04,.09-.09,.18-.13,.09-.05,.27-.23,.45-.45,.36-.41,.86-1.04,.86-1.08,0-.09,.59-.63,.59-.59s-.04,.18-.18,.36l-.27,.32,.14,.09c.13,.09,.18,.09,.23,0,.13-.23,.9-1.31,1.17-1.62,.36-.45,1.44-1.49,1.53-1.49,.13,0,0,.23-.32,.63-.63,.72-1.13,1.44-1.58,2.21-.27,.5-.27,.63,0,.72,.09,.05,.23,.05,.27,.09,.09,.04,.18,.04,.45-.04,.23-.09,.54-.27,.77-.41,.22-.13,.9-.68,1.53-1.08,.63-.41,1.17-.77,1.22-.81,.09-.05,1.62-1.4,2.25-2.03,.13-.14,.41-.45,.68-.77s.72-.81,.99-1.08c.54-.54,.54-.59,.32-.81-.09-.09-.27-.09-.5,.05Zm-11.85-4.06c0,.09,0,.18-.04,.14s.04-.09,.04-.18c.04-.18,.04-.13,0,.04Zm7.08-14.51c.09,.14,.09,.18,.05,.23-.05,.04-.05,.09,0,.27,.18,.54,.18,.95,.04,1.26-.23,.59-.36,2.12-.27,3.16,.13,1.76,.18,2.03,.36,2.3s.32,.54,.36,.95c.04,.18,.04,.36,.09,.45,.04,.13,.04,.27,.04,.32-.09,.32-.09,.59,.13,.99,.27,.59,.77,1.26,1.22,1.85,.5,.68,.59,.77,.72,.77s.18,0,.23,.32c.04,.27,.09,.32,.23,.41,.09,.04,.32,.18,.5,.36,.27,.27,.32,.32,.18,.32s-.23,.09-.14,.14q.09,.04,0,.13c-.09,.04-.04,.09,.05,.14,.36,.13,.54,.23,.54,.27s-.04,.04-.09,.04c-.09-.04-.09,0,0,.13,.04,.05,0,.09,0,.14s.04,.13,.09,.23c.05,.09,.09,.18,.05,.18s-.05,0-.05,.04c.05,.09-.09,.18-.27,.14-.23-.04-.72-.32-.95-.45-.09-.04-.41-.18-.54-.22-.22-.09-.5-.18-.63-.23-.18-.09-.27-.09-.36-.04-.09,.04-.14,0-.04-.09s-.41-.45-.9-.81c-.27-.18-.41-.32-.41-.36s-.04-.09-.09-.13-.09-.18-.18-.32c-.09-.18-.13-.27-.18-.86l-.04-.63-.41-1.22c-.23-.68-.5-1.44-.63-1.71-.36-.77-.41-.81-.45-1.13-.04-.22-.04-.41,0-.63,.09-.54,.09-1.08,.05-1.49-.09-.77-.09-1.13,0-1.53,.04-.23,.09-.45,.09-.54,0-.32,.09-.77,.23-1.04,.09-.13,.22-.45,.27-.63,.09-.18,.13-.45,.22-.59,.14-.27,.18-.36,.18-.41s.04-.09,.13-.18c.09-.09,.14-.23,.14-.27s0-.04,.04-.04,.09-.04,.09-.09c0-.09,.05-.14,.09-.05,0,.05,.04,0,.04-.04,0-.09,.04-.04,.18,.23Zm5.82,24.34s-.59,.45-.99,.81c-.36,.32-.5,.41-.54,.41-.13,0-.41,.13-.27,.13,.09,0-.04,.18-.27,.32-.13,.09-.32,.18-.36,.27-.04,.09-.81,.72-1.71,1.49l-1.62,1.35,.09,.14c.13,.22,.36,.41,.63,.54,.14,.05,.27,.09,.77,.09,.68,0,.81,.04,1.17,.59l.09,.09,.41-.04c.22-.04,.59-.09,.77-.09,.32,0,.41-.05,.59-.14,.14-.09,.27-.13,.41-.13h.22l.32-.5c.18-.27,.41-.63,.45-.77l.09-.27-.04-.81c-.04-.45-.04-.95-.09-1.17,0-.22-.04-.81-.04-1.35s0-.95-.04-.95Zm-1.8,.72q-.09,0-.09,.13s-.04,.05-.13,.05-.14,.04-.14,.13-.23,.27-.36,.27c-.04,0-.09,0-.09,.04s-.05,.09-.14,.14c-.09,.04-.13,.09-.09,.09s-.09,.04-.18,.09-.18,.14-.18,.18-.05,.09-.09,.09-.13,.04-.18,.14c-.05,.09-.23,.22-.36,.32-.27,.18-.32,.23-.22,.23s.45-.27,.86-.63c.32-.27,.59-.41,.63-.32,.04,.04,.45-.27,.72-.5,.14-.14,.18-.18,.14-.23s-.04-.04-.09-.04,0-.05,.05-.09c.09-.09,.04-.09-.05-.09Zm9.38-5.27c.18,.04,.32,.09,.81,.5,.18,.14,.32,.18,.36,.18s.18-.04,.36-.04c.27-.04,.36,0,.5,.09,.32,.18,.68,.27,.9,.18,.09-.04,.27,.04,.5,.23,.23,.18,.63,.32,.95,.32,.27,0,.5,.13,1.53,.9,.41,.32,.99,.77,1.31,.99,.36,.27,.77,.59,1.13,.95q.54,.54,.68,1.31c.04,.23,.14,.5,.18,.68,.04,.14,.09,.36,.09,.5,0,.18,.04,.23,.09,.23s.05,.04,0,.18c-.04,.09-.13,.18-.18,.18-.09,0-.04,.04-.09,.41-.04,.54-.13,.95-.32,1.49-.09,.32-.09,.5-.09,.9,0,.68-.09,.81-.59,1.08l-.41,.18-.27-.04c-.5-.18-.77-.36-1.22-.81-.32-.32-.45-.41-.59-.45-.09-.04-.45-.23-.5-.27-.18-.14-.36-.27-.45-.32-.18-.09-.5-.36-.9-.77-.27-.27-.72-.5-.99-.5-.18,0-.23,0-.27-.13-.05-.09-.09-.14-.36-.18-.45-.04-1.4,0-1.76,.04-.18,.05-.45,.09-.59,.14-.13,.04-.27,.09-.32,.09-.04-.04,1.04-.59,1.49-.77,.36-.14,.81-.32,1.08-.54l.18-.18-.14-.18c-.04-.09-.23-.22-.32-.32-.18-.13-.23-.32-.32-.99l-.09-.45-.27-.27c-.23-.22-.32-.32-.5-.32q-.27-.04-.5-.32c-.36-.5-.81-.95-.95-.99-.18-.04-.45-.18-.68-.36-.23-.18-.54-.59-.5-.63t-.09,0c-.32,.09-.77-.22-.77-.5,0-.14,.04-.14,.18-.14,.18,0,.18-.09,.04-.13-.36-.14-.54-.18-.59-.14s-.09,0-.14-.04c-.09-.09-.09-.18-.04-.18s.04-.04,.04-.09,.04-.04,.14,0c.09,0,.13-.04,.13-.09,.04-.04,.09-.09,.18-.09,.13,0,.18,0,.18-.09s.04-.09,.22-.09,.23,0,.27-.14c.09-.18,.04-.22,.14-.13,.13,.09,.41,.09,.68,.04,.09-.04,.27-.09,.36-.09,.27-.04,.81-.04,1.04,0Z"/></g></g></svg>