<?xml version="1.0" encoding="UTF-8"?><svg id="_レイヤー_2" xmlns="http://www.w3.org/2000/svg" viewBox="0 0 297.42 88.32"><defs><style>.cls-1{fill:#fff;}.cls-2{fill:#333;}.cls-3{fill:#a98b53;}.cls-4{fill:#d7dadd;}</style></defs><g id="_レイヤー_1-2"><g><rect class="cls-3" width="297.42" height="88.32" rx="6.18" ry="6.18"/><g><g><path class="cls-1" d="M80.54,35.28c0,5.59-3.9,7.94-8.37,7.94s-8.37-2.34-8.37-7.94v-9.67c0-5.84,3.9-7.94,8.37-7.94s8.37,2.09,8.37,7.9v9.7Zm-8.37-13.35c-2.27,0-3.35,1.44-3.35,4.11v8.8c0,2.67,1.08,4.11,3.35,4.11s3.32-1.44,3.32-4.11v-8.8c0-2.67-1.08-4.11-3.32-4.11Z"/><path class="cls-1" d="M95.04,42.89h-5.05V23.26l-3.57,2.34v-4.87l4.08-2.74h4.54v24.89Z"/><path class="cls-1" d="M118.59,42.89h-15.37v-3.25l8.33-9.81c1.55-1.8,2.31-3.32,2.31-4.94,0-2.02-1.48-3.03-3.1-3.03s-2.96,1.05-3.1,3.03h-4.47c0-4.29,3.54-7.21,7.83-7.21s7.86,3.1,7.86,7.21c0,3.28-2.16,5.84-3.75,7.72l-5.12,6.02h8.58v4.26Z"/><path class="cls-1" d="M138.97,35.28c0,5.59-3.9,7.94-8.37,7.94s-8.37-2.34-8.37-7.94v-9.67c0-5.84,3.9-7.94,8.37-7.94s8.37,2.09,8.37,7.9v9.7Zm-8.37-13.35c-2.27,0-3.35,1.44-3.35,4.11v8.8c0,2.67,1.08,4.11,3.35,4.11s3.32-1.44,3.32-4.11v-8.8c0-2.67-1.08-4.11-3.32-4.11Z"/><path class="cls-1" d="M141.42,30.44h9.34v4.04h-9.34v-4.04Z"/><path class="cls-1" d="M158.84,27.92h1.84c2.06,0,3.46-1.08,3.46-3.17,0-1.66-1.26-2.89-3.1-2.89s-2.89,1.12-3.1,2.67h-4.47c.18-4.08,3.54-6.85,7.83-6.85,4.54,0,7.86,3.14,7.86,6.85,0,2.81-1.73,4.54-3.39,5.45,2.13,1.05,3.75,2.99,3.75,5.95,0,4.04-2.81,7.29-7.94,7.29s-8.26-2.96-8.44-7h4.44c.25,1.59,1.44,2.74,3.68,2.74,2.02,0,3.25-1.44,3.25-3.28,0-2.2-1.26-3.5-3.82-3.5h-1.84v-4.26Z"/><path class="cls-1" d="M180.2,28.24c.76-.36,1.52-.47,2.42-.47,3.82,0,6.82,3.14,6.82,7.43,0,5.52-3.71,8.01-8.33,8.01s-8.41-2.45-8.41-7.97c0-1.95,.87-4.26,2.27-7.11l5.01-10.14h5.41l-5.19,10.24Zm.9,10.71c2.16,0,3.28-1.44,3.28-3.54s-1.12-3.5-3.28-3.5-3.35,1.44-3.35,3.5,1.12,3.54,3.35,3.54Z"/><path class="cls-1" d="M208,42.89h-15.37v-3.25l8.33-9.81c1.55-1.8,2.31-3.32,2.31-4.94,0-2.02-1.48-3.03-3.1-3.03s-2.96,1.05-3.1,3.03h-4.47c0-4.29,3.53-7.21,7.83-7.21s7.86,3.1,7.86,7.21c0,3.28-2.16,5.84-3.75,7.72l-5.12,6.02h8.58v4.26Z"/><path class="cls-1" d="M211.36,30.44h9.34v4.04h-9.34v-4.04Z"/><path class="cls-1" d="M238.99,42.89h-15.37v-3.25l8.33-9.81c1.55-1.8,2.31-3.32,2.31-4.94,0-2.02-1.48-3.03-3.1-3.03s-2.96,1.05-3.1,3.03h-4.47c0-4.29,3.54-7.21,7.83-7.21s7.86,3.1,7.86,7.21c0,3.28-2.16,5.84-3.75,7.72l-5.12,6.02h8.58v4.26Z"/><path class="cls-1" d="M248.25,27.92h1.84c2.06,0,3.46-1.08,3.46-3.17,0-1.66-1.26-2.89-3.1-2.89s-2.89,1.12-3.1,2.67h-4.47c.18-4.08,3.54-6.85,7.83-6.85,4.54,0,7.86,3.14,7.86,6.85,0,2.81-1.73,4.54-3.39,5.45,2.13,1.05,3.75,2.99,3.75,5.95,0,4.04-2.81,7.29-7.94,7.29s-8.26-2.96-8.44-7h4.44c.25,1.59,1.44,2.74,3.68,2.74,2.02,0,3.25-1.44,3.25-3.28,0-2.2-1.26-3.5-3.82-3.5h-1.84v-4.26Z"/><path class="cls-1" d="M273.86,42.89h-5.05V23.26l-3.57,2.34v-4.87l4.08-2.74h4.54v24.89Z"/></g><g><path class="cls-1" d="M17.21,17.16v4c3.08,0,5.94,.6,8.41,1.57,.46,.18,.91,.38,1.35,.59,.99-.48,2.06-.89,3.18-1.22,2.03-.6,4.26-.94,6.61-.94,3.09,0,5.97,.59,8.45,1.57,.46,.18,.91,.38,1.35,.59,.99-.48,2.06-.89,3.19-1.22,2.02-.59,4.23-.94,6.58-.94v-4H17.21Z"/><path class="cls-1" d="M41.7,32.34c0,1.01,.31,1.94,.83,2.72,.52,.78,1.27,1.4,2.14,1.76,.58,.25,1.22,.38,1.89,.38,1.01,0,1.94-.31,2.72-.83,.78-.52,1.4-1.27,1.76-2.14,.25-.58,.38-1.22,.38-1.89,0-.48-.1-.99-.31-1.53-.21-.54-.53-1.09-.97-1.65-.82-1.06-2.05-2.11-3.58-2.99-1.17,.68-2.17,1.45-2.94,2.25-.82,.85-1.38,1.74-1.67,2.56-.17,.47-.25,.92-.25,1.35Z"/><path class="cls-1" d="M51.33,26.67c1.02,1.06,1.79,2.23,2.24,3.47,.25,.71,.39,1.45,.39,2.19,0,1.52-.47,2.95-1.26,4.13-.8,1.18-1.92,2.11-3.25,2.67-.88,.37-1.86,.58-2.87,.58-1.52,0-2.95-.47-4.13-1.26-1.18-.8-2.11-1.92-2.67-3.25-.37-.88-.58-1.86-.58-2.87,0-1.12,.31-2.21,.85-3.24,.54-1.03,1.3-1.99,2.23-2.87,.49-.46,1.02-.89,1.6-1.31-.39-.14-.78-.27-1.19-.39-1.8-.53-3.79-.84-5.9-.84-2.59,0-5,.47-7.09,1.23,.76,.54,1.45,1.13,2.05,1.76,1.02,1.06,1.79,2.23,2.23,3.47,.25,.71,.39,1.45,.39,2.19,0,1.52-.47,2.95-1.26,4.13-.8,1.18-1.92,2.11-3.25,2.67-.88,.37-1.86,.58-2.87,.58-1.53,0-2.95-.47-4.13-1.26-1.18-.8-2.11-1.92-2.67-3.25-.37-.88-.58-1.86-.58-2.87,0-1.12,.31-2.21,.85-3.24,.54-1.03,1.3-1.99,2.23-2.87,.49-.46,1.02-.89,1.6-1.31-.39-.14-.78-.27-1.19-.39-1.79-.53-3.77-.83-5.86-.84v19.14H56.33V23.68c-2.57,0-4.98,.47-7.05,1.23,.76,.54,1.45,1.13,2.05,1.76Z"/><path class="cls-1" d="M22.11,32.34c0,1.01,.31,1.94,.83,2.72,.52,.78,1.27,1.4,2.14,1.76,.58,.25,1.22,.38,1.89,.38,1.01,0,1.94-.31,2.72-.83,.78-.52,1.4-1.27,1.76-2.14,.25-.58,.38-1.22,.38-1.89,0-.48-.1-.99-.31-1.53-.21-.54-.53-1.09-.97-1.65-.83-1.06-2.05-2.11-3.58-2.99-1.17,.68-2.17,1.45-2.94,2.25-.82,.85-1.38,1.74-1.67,2.56-.17,.47-.25,.92-.25,1.35Z"/></g></g><rect class="cls-4" x="14.71" y="54.11" width="268" height="20.68"/><g><path class="cls-2" d="M22.15,64.59c0-2.29,.93-4.15,2.33-5.58l.7,.36c-1.35,1.39-2.18,3.13-2.18,5.21s.83,3.82,2.18,5.21l-.7,.36c-1.41-1.43-2.33-3.29-2.33-5.58Z"/><path class="cls-2" d="M36.81,65.84h-4.8v4.1h-.89v-4.1h-4.73v-.86h4.73v-4.09h-4.12v-.86h9.16v.86h-4.15v4.09h4.8v.86Zm-8.24-4.37c.48,.84,.96,1.95,1.11,2.64l-.82,.28c-.16-.69-.61-1.83-1.05-2.68l.76-.23Zm4.71,2.71c.43-.73,.97-1.92,1.27-2.77l.91,.26c-.42,.94-.98,2.05-1.44,2.75l-.74-.25Z"/><path class="cls-2" d="M47.15,60.05v9.71h-.91v-.71h-5.81v.76h-.88v-9.76h7.61Zm-6.73,.86v3.16h5.81v-3.16h-5.81Zm5.81,7.29v-3.27h-5.81v3.27h5.81Z"/><path class="cls-2" d="M52.35,69.7c-.75-.94-1.76-1.93-2.59-2.61l.76-.67c.84,.68,1.9,1.75,2.62,2.6l-.8,.68Z"/><path class="cls-2" d="M65.5,66.5c-.27-.36-.89-1.03-1.39-1.54v4.97h-.86v-4.51c-.55,.56-1.11,1.05-1.68,1.43-.08-.22-.32-.62-.45-.79,1.32-.82,2.71-2.3,3.48-3.84h-3.06v-.8h1.7v-2.18h.86v2.18h.96l.15-.04,.48,.32c-.34,.87-.83,1.71-1.39,2.47,.52,.43,1.49,1.35,1.73,1.62l-.54,.7Zm5.71,2.64c.27,0,.32-.26,.35-1.69,.18,.14,.52,.27,.73,.33-.07,1.63-.26,2.07-.98,2.07h-1.02c-.82,0-1-.26-1-1.12v-4.17h-1.15c-.13,2.6-.53,4.38-2.54,5.41-.12-.21-.35-.53-.56-.69,1.85-.87,2.14-2.41,2.25-4.72h-1.15v-4.54h5.48v4.54h-1.51v4.17c0,.35,.06,.41,.32,.41h.79Zm-4.24-5.38h3.8v-2.95h-3.8v2.95Z"/><path class="cls-2" d="M82.29,60.05v9.71h-.91v-.71h-5.81v.76h-.88v-9.76h7.61Zm-6.73,.86v3.16h5.81v-3.16h-5.81Zm5.81,7.29v-3.27h-5.81v3.27h5.81Z"/><path class="cls-2" d="M87.48,69.7c-.75-.94-1.76-1.93-2.59-2.61l.76-.67c.84,.68,1.9,1.75,2.62,2.6l-.8,.68Z"/><path class="cls-2" d="M98.89,68.16h2.61v-6.42h-1.99v-.68c.97-.16,1.7-.27,2.25-.62h.81v7.72h2.45v.89h-6.13v-.89Z"/><path class="cls-2" d="M110.39,64.71c0-2.94,1.3-4.41,3.18-4.41s3.18,1.46,3.18,4.41-1.3,4.48-3.18,4.48-3.18-1.54-3.18-4.48Zm5.3,0c0-2.55-.89-3.54-2.12-3.54s-2.12,.98-2.12,3.54,.89,3.61,2.12,3.61,2.12-1.07,2.12-3.61Z"/><path class="cls-2" d="M124.39,61.79c0-.54,.42-.88,.89-.88s.89,.34,.89,.88-.42,.88-.89,.88-.89-.34-.89-.88Zm0,5.74c0-.54,.42-.89,.89-.89s.89,.35,.89,.89-.42,.88-.89,.88-.89-.35-.89-.88Z"/><path class="cls-2" d="M133.82,64.71c0-2.94,1.3-4.41,3.18-4.41s3.18,1.46,3.18,4.41-1.3,4.48-3.18,4.48-3.18-1.54-3.18-4.48Zm5.3,0c0-2.55-.89-3.54-2.12-3.54s-2.12,.98-2.12,3.54,.89,3.61,2.12,3.61,2.12-1.07,2.12-3.61Z"/><path class="cls-2" d="M145.53,64.71c0-2.94,1.3-4.41,3.18-4.41s3.18,1.46,3.18,4.41-1.3,4.48-3.18,4.48-3.18-1.54-3.18-4.48Zm5.3,0c0-2.55-.89-3.54-2.12-3.54s-2.12,.98-2.12,3.54,.89,3.61,2.12,3.61,2.12-1.07,2.12-3.61Z"/><path class="cls-2" d="M160.09,64.92c-.63-.6-1.14-.96-1.99-.96-.93,0-1.73,.62-2.21,1.55l-.83-.45c.74-1.34,1.82-2.05,3.06-2.05,1.07,0,1.82,.43,2.64,1.25,.63,.6,1.15,.96,1.99,.96,.93,0,1.73-.62,2.21-1.55l.83,.45c-.74,1.34-1.82,2.05-3.06,2.05-1.07,0-1.82-.45-2.64-1.25Z"/><path class="cls-2" d="M169.17,68.16h2.61v-6.42h-1.99v-.68c.97-.16,1.7-.27,2.25-.62h.81v7.72h2.45v.89h-6.13v-.89Z"/><path class="cls-2" d="M181.52,67.52c.5,.52,1.03,.77,1.79,.77,1.14,0,2.45-.87,2.54-3.63-.62,.68-1.37,1.15-2.34,1.15-1.48,0-2.74-.84-2.74-2.64s1.24-2.87,2.81-2.87c1.79,0,3.3,1.2,3.3,4.03,0,3.5-1.79,4.85-3.55,4.85-1.15,0-1.91-.43-2.43-1.01l.61-.66Zm4.3-3.86c-.19-1.73-1.1-2.51-2.25-2.51-1.04,0-1.78,.73-1.78,1.99s.83,1.82,1.86,1.82c.87,0,1.64-.52,2.17-1.3Z"/><path class="cls-2" d="M194.67,61.79c0-.54,.42-.88,.89-.88s.89,.34,.89,.88-.42,.88-.89,.88-.89-.34-.89-.88Zm0,5.74c0-.54,.42-.89,.89-.89s.89,.35,.89,.89-.42,.88-.89,.88-.89-.35-.89-.88Z"/><path class="cls-2" d="M204.1,64.71c0-2.94,1.3-4.41,3.18-4.41s3.18,1.46,3.18,4.41-1.3,4.48-3.18,4.48-3.18-1.54-3.18-4.48Zm5.3,0c0-2.55-.89-3.54-2.12-3.54s-2.12,.98-2.12,3.54,.89,3.61,2.12,3.61,2.12-1.07,2.12-3.61Z"/><path class="cls-2" d="M215.81,64.71c0-2.94,1.3-4.41,3.18-4.41s3.18,1.46,3.18,4.41-1.3,4.48-3.18,4.48-3.18-1.54-3.18-4.48Zm5.3,0c0-2.55-.89-3.54-2.12-3.54s-2.12,.98-2.12,3.54,.89,3.61,2.12,3.61,2.12-1.07,2.12-3.61Z"/><path class="cls-2" d="M227.8,67.58c.56,.87,1.59,1.27,2.95,1.32,1.29,.04,3.95,.01,5.34-.08-.12,.2-.25,.6-.29,.87-1.29,.05-3.74,.07-5.04,.04-1.54-.07-2.6-.49-3.34-1.39-.53,.5-1.1,1-1.7,1.5l-.46-.86c.52-.35,1.14-.84,1.69-1.34v-2.18h-1.54v-.81h2.38v2.93Zm-.3-3.89c-.42-.45-1.29-1.03-2.03-1.39l.57-.56c.73,.33,1.61,.89,2.05,1.34l-.6,.62Zm.33-2.31c-.38-.46-1.2-1.07-1.9-1.45l.57-.54c.69,.36,1.55,.94,1.93,1.39l-.61,.6Zm2.4,.09c-.39,.57-.81,1.09-1.23,1.5-.16-.14-.52-.42-.74-.55,.91-.76,1.69-1.96,2.16-3.19l.87,.23c-.16,.41-.35,.82-.57,1.21h5.05v.8h-5.53Zm.8,6.23c-1.16,0-1.66-.39-1.68-1.07,0-.5,.13-1.07,3.26-3.19h-2.99v-.79h4.29l.2-.02,.6,.3c-.04,.06-.08,.12-.15,.18-4.01,2.54-4.31,3.06-4.31,3.39,0,.28,.29,.38,.75,.38h3.43c.47,0,.57-.14,.62-1.37,.23,.14,.53,.25,.79,.28-.12,1.66-.46,1.91-1.42,1.91h-3.39Z"/><path class="cls-2" d="M245.97,65.03c-.61,1.24-1.54,2.2-2.68,2.94,1.24,.56,2.71,.94,4.34,1.14-.19,.19-.42,.57-.53,.81-1.77-.25-3.34-.73-4.68-1.45-1.41,.73-3.04,1.18-4.72,1.45-.09-.21-.34-.6-.52-.77,1.59-.22,3.12-.59,4.41-1.17-.96-.66-1.77-1.46-2.37-2.41l.12-.05h-.5v-.81h6.39l.18-.04,.57,.36Zm-7.72-.05h-.82v-2.38h1.86c-.14-.42-.47-1.07-.77-1.55l.75-.21c.34,.48,.69,1.11,.83,1.54l-.69,.22h5.1c.39-.59,.83-1.39,1.09-1.99l.88,.27c-.32,.57-.73,1.21-1.08,1.72h2v2.38h-.86v-1.61h-8.3v1.61Zm8.5-5.07c-2.34,.49-5.96,.79-9,.9-.01-.22-.12-.54-.2-.74,3-.13,6.59-.43,8.59-.87l.61,.7Zm-6.6,5.6c.56,.81,1.35,1.48,2.3,2.02,.91-.53,1.69-1.18,2.23-2.02h-4.52Zm2.05-2.98c-.07-.46-.32-1.18-.59-1.72l.79-.18c.28,.54,.54,1.25,.62,1.7l-.82,.2Z"/><path class="cls-2" d="M252.59,59.59c-.35,.88-.76,1.75-1.24,2.55v7.77h-.87v-6.42c-.38,.53-.79,1.01-1.18,1.42-.11-.2-.38-.66-.54-.86,1.2-1.14,2.31-2.92,2.98-4.73l.86,.27Zm6.81,3.12h-1.48v6.05c0,.66-.19,.93-.62,1.05-.46,.14-1.24,.15-2.51,.14-.05-.22-.21-.62-.34-.86,.98,.04,1.95,.04,2.23,.02,.26-.02,.36-.09,.36-.36v-6.05h-4.72v-.87h4.72v-2.46h.88v2.46h1.48v.87Zm-4.64,4.5c-.35-.73-1.1-1.98-1.7-2.92l.75-.35c.61,.9,1.38,2.12,1.76,2.84l-.81,.43Z"/><path class="cls-2" d="M270.51,61.32v5.48h-.89v-.67h-3.36v3.8h-.9v-3.8h-3.35v.73h-.86v-5.54h4.21v-2.09h.9v2.09h4.25Zm-5.16,3.96v-3.11h-3.35v3.11h3.35Zm4.27,0v-3.11h-3.36v3.11h3.36Z"/><path class="cls-2" d="M275.27,64.59c0,2.29-.93,4.15-2.33,5.58l-.7-.36c1.35-1.39,2.18-3.13,2.18-5.21s-.83-3.82-2.18-5.21l.7-.36c1.41,1.43,2.33,3.29,2.33,5.58Z"/></g></g></g></svg>