<?xml version="1.0" encoding="UTF-8"?><svg id="_レイヤー_2" xmlns="http://www.w3.org/2000/svg" viewBox="0 0 589.95 119.52"><defs><style>.cls-1{fill:#f76e11;}.cls-2{fill:#fff;}</style></defs><g id="_レイヤー_1-2"><g><g><rect class="cls-2" x="19.56" y="-2.98" width="1" height="125.48" transform="translate(-17.65 9.25) rotate(-18.19)"/><rect class="cls-2" x="507.15" y="59.26" width="125.48" height="1" transform="translate(335.2 582.51) rotate(-71.81)"/></g><g><path class="cls-1" d="M64.05,43.27c-.49,0-.87,.04-.87,.46,0,.27,.46,.84,.76,1.25,.27,.34,.57,.68,.68,.87,.23,.34,.42,.68,.42,.95,0,.23-.23,.46-.46,.46-.15,0-.3-.04-.46-.08s-.46-.15-.61-.15c-.23,0-.53,.08-.76,.15-3.46,1.1-6,1.6-9.57,2.17-.3,.04-.8,.08-.99,.08-.72,0-1.1-.84-1.44-1.52-.27-.53-1.03-2.2-1.03-2.7,0-.34,.42-.34,.87-.38,2.28-.19,5.89-.68,7.14-.99,.46-.11,.53-.15,.53-.3,0-.11-.15-.23-.46-.23-.49,0-1.1,.04-1.67,.04-1.1,0-2.17-.11-2.17-1.63,0-.8,.08-1.71,.08-2.7v-8.78c0-1.03-.08-1.94-.08-2.7,0-1.41,.87-1.63,2.09-1.63s2.47,.08,3.72,.08h14.36c1.22,0,2.47-.08,3.69-.08s2.13,.19,2.13,1.63c0,.76-.08,1.71-.08,2.7v8.78c0,.99,.08,1.9,.08,2.7,0,1.44-.91,1.63-2.13,1.63-.87,0-1.71-.08-2.58-.08-.11,0-.46,.04-.46,.23,0,.23,.23,.3,.68,.42,2.39,.57,5.05,1.03,7.48,1.33,.65,.08,.95,.11,.95,.38,0,.34-.87,4.07-2.62,4.07-1.33,0-6.69-1.33-8.17-1.75-.87-.27-2.93-.91-3.69-1.33-.19-.11-.3-.27-.3-.49,0-.57,.8-1.41,1.18-1.86,.11-.15,.23-.34,.23-.53,0-.46-.53-.46-.87-.46h-5.62Zm12.31-27.47c1.14,0,2.28-.08,3.46-.08s2.85,.04,2.85,1.71c0,.61-.11,1.29-.11,2.39v1.1c0,1.06,.11,1.79,.11,2.36,0,1.63-1.6,1.71-2.85,1.71-1.14,0-2.32-.08-3.46-.08h-18.81c-1.18,0-2.32,.08-3.5,.08s-2.85-.08-2.85-1.67c0-.53,.11-1.18,.11-2.39v-1.1c0-1.25-.11-1.86-.11-2.39,0-1.67,1.67-1.71,2.89-1.71,1.14,0,2.28,.08,3.46,.08h18.81Zm-19.15,3.76c-.38,0-.72,.34-.72,.72v.15c0,.42,.34,.72,.72,.72h2.17c.42,0,.72-.3,.72-.72v-.15c0-.42-.3-.72-.72-.72h-2.17Zm17.1,10.56c0-.27-.19-.49-.49-.49h-13.68c-.27,0-.49,.23-.49,.49v.34c0,.27,.23,.49,.49,.49h13.68c.3,0,.49-.23,.49-.49v-.34Zm0,4.37c0-.38-.27-.61-.61-.61h-13.45c-.34,0-.61,.27-.61,.61v.15c0,.34,.27,.61,.61,.61h13.45c.34,0,.61-.27,.61-.61v-.15Zm0,4.37c0-.42-.3-.68-.72-.68h-13.22c-.38,0-.72,.27-.72,.68v.08c0,.42,.34,.68,.72,.68h13.22c.38,0,.72-.27,.72-.68v-.08Zm-8.62-19.3c-.42,0-.72,.3-.72,.72v.15c0,.42,.34,.72,.72,.72h2.28c.38,0,.72-.3,.72-.72v-.15c0-.38-.34-.72-.72-.72h-2.28Zm8.59,0c-.42,0-.72,.3-.72,.72v.15c0,.42,.3,.72,.72,.72h2.39c.42,0,.72-.3,.72-.72v-.15c0-.38-.3-.72-.72-.72h-2.39Z"/><path class="cls-1" d="M90.57,45.17c-.11,.23-.27,.53-.57,.53-.49,0-.61-.49-.8-.99-.19-.76-1.1-3.61-1.1-4.1,0-.76,.61-.84,1.18-.87,1.06-.11,1.48-.61,1.48-1.63V21.99c0-.84-.61-.91-.91-.91h-.15c-1.14,0-1.25-.38-1.25-1.75v-1.79c0-1.25,.11-1.67,1.22-1.67,1.25,0,2.55,.08,3.8,.08h8.85c1.25,0,2.55-.08,3.8-.08,1.03,0,1.22,.34,1.22,1.33,0,1.37,.57,1.41,2.85,1.41h6.38c.46,0,1.06-.04,1.75-.04,.84,0,1.52,0,2.2,.57,.57,.49,.95,1.22,.95,1.94,0,1.75-1.03,6.23-1.52,8.02-.61,2.24-1.48,4.71-2.51,6.76-.11,.27-.27,.57-.27,.87,0,1.25,3.69,5.13,4.71,6.16,.3,.3,.8,.8,.8,1.22,0,1.03-2.66,3.88-3.65,3.88-.34,0-.76-.49-1.18-.95-.08-.11-.19-.23-.27-.3-.84-.95-2.01-2.36-2.74-3.38-.27-.38-.61-.91-1.14-.91-.3,0-.53,.23-.68,.46-.76,.91-4.64,5.36-5.62,5.36-.61,0-1.37-.99-1.75-1.44-.19-.19-.38-.53-.61-.53-.15,0-.3,.23-.3,.49,0,.53,.04,1.1,.04,1.67,0,.99-.38,1.06-1.67,1.06h-2.13c-1.18,0-1.6-.08-1.6-1.03,0-1.52,.11-3.04,.11-4.52,0-.65-.19-1.1-.87-1.1-.38,0-1.6,.38-2.05,.49-1.6,.42-3.5,.8-5.13,1.1-.61,.11-.65,.23-.87,.72Zm6.38-24.2c-.61,0-1.06,.49-1.06,1.06v.72c0,.57,.46,1.06,1.06,1.06h1.48c.57,0,1.06-.49,1.06-1.06v-.72c0-.57-.46-.99-1.06-1.06h-1.48Zm0,7.03c-.61,0-1.06,.49-1.06,1.06v.76c0,.57,.46,1.06,1.06,1.06h1.48c.57,0,1.06-.49,1.06-1.06v-.76c0-.57-.46-.99-1.06-1.06h-1.48Zm0,7.22c-.61,0-1.06,.46-1.06,1.06v1.29c0,.57,.08,1.06,.76,1.06,.34,0,1.75-.3,2.05-.46,.65-.3,.8-.76,.8-1.41v-.49c0-.61-.46-1.06-1.06-1.06h-1.48Zm7.75,6.72c0,.27,0,.91,.38,.91,.68,0,2.58-2.09,3.12-2.66,.68-.76,2.32-2.47,2.32-3.5,0-.38-.19-.8-.34-1.14-1.29-2.93-2.17-5.36-2.81-8.51-.11-.46-.27-1.29-.27-1.75s.19-.76,.61-.91c.19-.04,.34-.08,.34-.3,0-.15-.08-.27-.23-.27-.11,0-.19,.04-.42,.04-1.03,0-1.1-.19-1.1-1.22,0-.23,.04-.42,.04-.65,0-.72-.46-.95-.91-.95s-.72,.34-.72,.8v20.1Zm9.92-18.16h-.84c-.72,0-1.29,.11-1.29,.72,0,.15,.11,.72,.11,.91,.19,1.22,.46,2.39,.8,3.57,.19,.72,.27,1.25,.57,1.25,.27,0,.34-.3,.42-.53,.3-.91,.53-1.79,.72-2.7,.15-.65,.38-2.13,.38-2.7,0-.46-.19-.53-.87-.53Z"/><path class="cls-2" d="M145.29,16.33c.42,.08,1.22,.19,1.22,.68,0,.46-.3,.3-.57,.91-.27,.57-.49,1.63-.49,4.29,0,.68,.27,1.18,1.03,1.18,.99,0,3.34-.8,4.26-1.14,.84-.3,1.44-.53,1.75-.53,.53,0,.84,.68,1.33,1.94,.3,.76,.84,2.13,.84,2.93,0,.49-.53,.65-1.98,1.06-1.86,.53-3.72,.87-5.62,1.18-.91,.15-1.56,.3-1.56,1.41,0,.57,.15,3.46,.23,4.41,.11,1.14,.38,1.22,1.82,1.63,2.55,.76,6.15,2.05,8.36,3.5,.34,.23,.68,.53,.68,.95,0,.99-1.94,4.22-2.89,4.22-.27,0-.68-.3-.91-.46-.95-.65-4.9-2.93-5.89-2.93-.34,0-.72,.23-.8,.8-.49,4.1-4.18,5.43-7.83,5.43s-8.32-1.67-8.32-6.16c0-4.71,4.75-6.76,8.81-6.76h.53c.57,0,1.03-.42,1.03-.99,0-.3-.19-4.29-.23-5.24-.11-3.91,0-7.9-.65-11.78-.04-.19-.08-.38-.08-.57,0-.53,.46-.61,.87-.61,.8,0,4.1,.49,5.05,.65Zm-5.97,23.48c-1.1,0-4.18,.23-4.18,1.71,0,1.1,1.94,1.25,2.74,1.25,1.41,0,2.85-.27,2.85-2.01,0-.87-.76-.95-1.41-.95Z"/><path class="cls-2" d="M177.78,19.67c.53,.23,.72,.38,.72,.65,0,.23-.11,.27-.3,.34-.95,.42-1.33,1.37-1.67,2.24-.61,1.56-1.22,3.99-1.22,5.66,0,.23,0,.65,.34,.65,.23,0,.38-.19,.61-.72,.19-.42,.42-.91,.84-.91,.38,0,2.13,1.1,2.13,1.71,0,.19-.08,.46-.15,.65-.87,2.13-2.28,5.59-2.28,7.75v.95c0,.87-.8,1.25-1.52,1.52-.68,.27-1.52,.49-2.24,.49-1.18,0-1.52-.87-1.82-1.79-.87-2.66-1.29-6.27-1.29-9.08,0-2.51,.3-5.89,.91-8.36,.23-.99,.49-2.01,.72-3.04,.15-.65,.23-1.1,.57-1.1,.72,0,4.14,1.75,5.66,2.39Zm9.04-2.77c.84-.15,2.05-.46,2.89-.46,.72,0,.87,.27,1.1,1.22,.84,3.38,1.22,8.05,1.22,11.59,0,6.54-1.1,12.16-5.78,17.06-.72,.76-2.32,2.39-3.38,2.39-.61,0-1.71-1.03-2.17-1.44-.95-.87-1.75-1.6-1.75-2.24,0-.23,.15-.42,.65-.76,2.09-1.37,3.84-3.42,4.9-5.66,1.29-2.77,1.6-5.7,1.6-8.7,0-3.8-.49-7.6-1.41-11.32-.04-.19-.04-.38-.04-.57,0-.61,.49-.76,2.17-1.1Z"/><path class="cls-2" d="M221.63,16.98c.34,.15,.61,.34,.61,.61,0,.23-.15,.3-.34,.38-.61,.27-.91,.42-1.37,1.82l-.68,2.09c-.08,.19-.15,.38-.15,.61,0,.76,.53,.91,1.75,.99,.91,.08,1.82,.11,2.74,.11,.72,0,1.18,0,1.18,.84s-.34,2.55-.57,3.38c-.27,.99-.46,1.33-1.03,1.33-1.06,0-3.61-.3-4.71-.49-.08-.04-.19-.04-.3-.04-.87,0-1.03,.72-1.18,1.44l-.08,.3c-.04,.15-.08,.46-.08,.61,0,.99,1.03,1.03,3.76,1.03,1.03,0,1.63,.04,1.63,.68,0,1.06-.34,2.62-.68,3.65-.27,.8-.53,1.22-1.44,1.22-.84,0-2.28-.23-3.15-.34-.08-.04-.19-.04-.27-.04-.8,0-.87,.76-.87,1.22v.23c0,.84,.11,1.67,.53,2.47,.61,1.22,2.32,1.71,3.61,1.71s3-.27,4.1-.91c.87-.53,1.22-1.48,1.22-2.47,0-1.75-.61-3.69-1.14-5.36-.11-.34-.19-.57-.19-.87,0-.49,.27-.68,1.37-1.14,.84-.34,2.62-.8,3.19-.8,.68,0,.87,.68,1.25,1.9,.68,2.09,1.22,4.56,1.22,6.76,0,2.7-1.03,5.02-3.38,6.5-2.28,1.44-5.09,2.01-7.75,2.01-6.54,0-9.92-3.8-9.92-10.22,0-.46,.11-1.6,.11-1.67,0-.84-.61-1.03-1.14-1.22-2.51-.87-3-1.18-3-1.86s.34-1.9,.53-2.58c.27-.99,.53-2.09,1.37-2.09,.38,0,.76,.23,1.1,.46,.42,.27,1.14,.68,1.63,.68,.3,0,.68-.15,.87-.95,.11-.46,.27-1.03,.27-1.22,0-.68-.46-.99-1.03-1.22-3.12-1.14-3.27-1.56-3.27-2.13,0-.8,.91-4.64,2.01-4.64,.38,0,.8,.3,1.37,.68,.61,.38,1.67,.99,2.01,.99,.61,0,.8-.46,.95-1.03,.3-1.06,.87-2.96,1.25-4.45,.15-.61,.19-.84,.53-.84,.46,0,4.86,1.56,5.55,1.86Z"/><path class="cls-1" d="M248.99,43.15c0,1.71,.08,3.42,.08,5.13,0,.8-.27,1.18-1.98,1.18h-1.29c-1.71,0-2.05-.38-2.05-1.22,0-1.71,.08-3.42,.08-5.09v-8.85c0-.38,0-.84-.3-.84-.19,0-.34,.19-.46,.3-.15,.19-.46,.42-.68,.42-.95,0-3.08-3.53-3.08-4.45,0-.42,.49-.95,.8-1.25,3.04-3.42,5.36-8.17,6.69-12.54,.11-.34,.23-.8,.68-.8s3.65,1.14,4.33,1.37c.34,.11,1.14,.38,1.14,.84,0,.19-.19,.42-.53,.46-.3,.04-.42,.08-.61,.57-.61,1.71-2.13,5.4-3,6.84-.08,.11-.15,.27-.15,.38,0,.38,.27,.53,.61,.61,.27,.04,.53,.19,.53,.49,0,.27-.23,.38-.42,.53-.34,.3-.34,.61-.38,1.82v14.1Zm2.96-17.06c0-.95-.08-1.9-.08-2.77,0-1.56,1.37-1.63,2.58-1.63,1.1,0,2.2,.08,3.34,.08h.8c.72,0,1.25-.38,1.25-1.14v-1.86c0-1.1-.11-2.36-.11-3.15,0-.42,.46-.42,.8-.42,.8,0,3.42,.15,4.37,.19,.49,.04,1.14,.11,1.14,.65,0,.3-.23,.42-.46,.57-.46,.3-.49,.95-.49,2.58v1.56c0,.53,.42,1.03,1.29,1.03h.8c1.1,0,2.2-.08,3.31-.08,1.22,0,2.62,.08,2.62,1.63,0,.84-.08,1.75-.08,2.77v9.04c0,1.29,.08,2.74,.08,3.42,0,.8-.38,.87-1.48,.87h-2.32c-1.03,0-1.44-.08-1.44-.84v-.27c0-.65-.46-.84-.99-.84h-.72c-.57,0-1.06,.49-1.06,1.06v3.76c0,2.13,.11,4.22,.11,6.31,0,.87-.38,.99-1.52,.99h-2.55c-1.03,0-1.41-.11-1.41-.99,0-2.09,.11-4.18,.11-6.31v-3.76c0-.57-.46-1.06-1.06-1.06h-.76c-.53,0-.99,.19-.99,.8v.3c0,.76-.34,.84-1.48,.84h-2.36c-.95,0-1.37-.08-1.37-.84,0-.65,.11-2.32,.11-3.46v-9.04Zm6.08,.65c-.61,0-1.06,.49-1.06,1.06v3.57c0,.57,.46,1.06,1.06,1.06h.76c.61,0,1.06-.49,1.06-1.06v-3.57c0-.57-.42-.99-1.06-1.06h-.76Zm8.13,0c-.65,0-1.06,.49-1.06,1.06v3.57c0,.57,.49,1.06,1.06,1.06h.76c.57,0,1.06-.49,1.06-1.06v-3.57c0-.57-.49-1.06-1.06-1.06h-.76Z"/><path class="cls-1" d="M303.86,44.29c0,1.44,.11,2.89,.11,4.33,0,.87-.42,.99-1.6,.99h-2.62c-1.1,0-1.56-.11-1.56-.99,0-1.37,.11-2.85,.11-4.33v-13.07c0-.84-.04-1.71-.11-2.47,0-.11-.04-.27-.04-.38,0-.46,.42-.49,.8-.49,.65,0,1.56,.04,1.98,.04,.19,0,.46-.08,.46-.3,0-.27-.23-.46-.42-.61-1.56-1.29-3.95-3.84-5.24-5.43-.19-.23-.46-.53-.8-.53-.38,0-.65,.34-.99,.76-1.44,1.75-3,3.42-4.64,4.98-.15,.15-.34,.38-.34,.57,0,.46,.53,.49,1.9,.57,.38,.04,.84,.08,.99,.08,1.14,.04,1.71,.11,1.71,.65,0,.19-.11,.3-.42,.46-.49,.23-.53,.42-.53,1.22v2.58c0,3.84-.53,7.64-2.62,10.94-1.14,1.82-2.81,3.72-4.64,4.9-.27,.15-.49,.3-.72,.46-.3,.19-.46,.3-.8,.3-1.67,0-3.8-3.08-3.8-3.84,0-.42,.49-.68,.84-.87,2.55-1.41,4.86-4.22,5.55-7.07,.42-1.67,.53-3.15,.53-4.86v-2.28c0-.65-.04-1.03-.46-1.03-.27,0-.65,.3-.84,.49-.72,.61-3.53,2.93-4.29,2.93-1.44,0-3.5-3.46-3.5-3.99,0-.3,.27-.49,.53-.65,4.1-2.32,11.55-8.89,13.64-13.07,.19-.34,.3-.49,.68-.49,.65,0,3.34,.53,4.22,.65,1.6,.23,2.2,.34,2.2,.95,0,.27-.08,.34-.23,.46-.11,.08-.23,.23-.23,.38s.68,1.03,1.56,1.98c.11,.08,.19,.19,.23,.23,3.08,3.19,6.84,6.12,10.75,8.17,.76,.38,1.25,.61,1.25,1.06,0,.91-2.36,4.03-3.53,4.03-.8,0-3.38-2.01-4.1-2.58-.15-.11-.3-.19-.49-.19-.46,0-.49,.53-.49,1.41v12.99Z"/><path class="cls-2" d="M335.29,16.33c.42,.08,1.22,.19,1.22,.68,0,.46-.3,.3-.57,.91-.27,.57-.49,1.63-.49,4.29,0,.68,.27,1.18,1.03,1.18,.99,0,3.34-.8,4.26-1.14,.84-.3,1.44-.53,1.75-.53,.53,0,.84,.68,1.33,1.94,.3,.76,.84,2.13,.84,2.93,0,.49-.53,.65-1.98,1.06-1.86,.53-3.72,.87-5.62,1.18-.91,.15-1.56,.3-1.56,1.41,0,.57,.15,3.46,.23,4.41,.11,1.14,.38,1.22,1.82,1.63,2.55,.76,6.15,2.05,8.36,3.5,.34,.23,.68,.53,.68,.95,0,.99-1.94,4.22-2.89,4.22-.27,0-.68-.3-.91-.46-.95-.65-4.9-2.93-5.89-2.93-.34,0-.72,.23-.8,.8-.49,4.1-4.18,5.43-7.83,5.43s-8.32-1.67-8.32-6.16c0-4.71,4.75-6.76,8.81-6.76h.53c.57,0,1.03-.42,1.03-.99,0-.3-.19-4.29-.23-5.24-.11-3.91,0-7.9-.65-11.78-.04-.19-.08-.38-.08-.57,0-.53,.46-.61,.87-.61,.8,0,4.1,.49,5.05,.65Zm-5.97,23.48c-1.1,0-4.18,.23-4.18,1.71,0,1.1,1.94,1.25,2.74,1.25,1.41,0,2.85-.27,2.85-2.01,0-.87-.76-.95-1.41-.95Z"/><path class="cls-2" d="M367.78,19.67c.53,.23,.72,.38,.72,.65,0,.23-.11,.27-.3,.34-.95,.42-1.33,1.37-1.67,2.24-.61,1.56-1.22,3.99-1.22,5.66,0,.23,0,.65,.34,.65,.23,0,.38-.19,.61-.72,.19-.42,.42-.91,.84-.91,.38,0,2.13,1.1,2.13,1.71,0,.19-.08,.46-.15,.65-.87,2.13-2.28,5.59-2.28,7.75v.95c0,.87-.8,1.25-1.52,1.52-.68,.27-1.52,.49-2.24,.49-1.18,0-1.52-.87-1.82-1.79-.87-2.66-1.29-6.27-1.29-9.08,0-2.51,.3-5.89,.91-8.36,.23-.99,.49-2.01,.72-3.04,.15-.65,.23-1.1,.57-1.1,.72,0,4.14,1.75,5.66,2.39Zm9.04-2.77c.84-.15,2.05-.46,2.89-.46,.72,0,.87,.27,1.1,1.22,.84,3.38,1.22,8.05,1.22,11.59,0,6.54-1.1,12.16-5.78,17.06-.72,.76-2.32,2.39-3.38,2.39-.61,0-1.71-1.03-2.17-1.44-.95-.87-1.75-1.6-1.75-2.24,0-.23,.15-.42,.65-.76,2.09-1.37,3.84-3.42,4.9-5.66,1.29-2.77,1.6-5.7,1.6-8.7,0-3.8-.49-7.6-1.41-11.32-.04-.19-.04-.38-.04-.57,0-.61,.49-.76,2.17-1.1Z"/><path class="cls-2" d="M411.63,16.98c.34,.15,.61,.34,.61,.61,0,.23-.15,.3-.34,.38-.61,.27-.91,.42-1.37,1.82l-.68,2.09c-.08,.19-.15,.38-.15,.61,0,.76,.53,.91,1.75,.99,.91,.08,1.82,.11,2.74,.11,.72,0,1.18,0,1.18,.84s-.34,2.55-.57,3.38c-.27,.99-.46,1.33-1.03,1.33-1.06,0-3.61-.3-4.71-.49-.08-.04-.19-.04-.3-.04-.87,0-1.03,.72-1.18,1.44l-.08,.3c-.04,.15-.08,.46-.08,.61,0,.99,1.03,1.03,3.76,1.03,1.03,0,1.63,.04,1.63,.68,0,1.06-.34,2.62-.68,3.65-.27,.8-.53,1.22-1.44,1.22-.84,0-2.28-.23-3.15-.34-.08-.04-.19-.04-.27-.04-.8,0-.87,.76-.87,1.22v.23c0,.84,.11,1.67,.53,2.47,.61,1.22,2.32,1.71,3.61,1.71s3-.27,4.1-.91c.87-.53,1.22-1.48,1.22-2.47,0-1.75-.61-3.69-1.14-5.36-.11-.34-.19-.57-.19-.87,0-.49,.27-.68,1.37-1.14,.84-.34,2.62-.8,3.19-.8,.68,0,.87,.68,1.25,1.9,.68,2.09,1.22,4.56,1.22,6.76,0,2.7-1.03,5.02-3.38,6.5-2.28,1.44-5.09,2.01-7.75,2.01-6.54,0-9.92-3.8-9.92-10.22,0-.46,.11-1.6,.11-1.67,0-.84-.61-1.03-1.14-1.22-2.51-.87-3-1.18-3-1.86s.34-1.9,.53-2.58c.27-.99,.53-2.09,1.37-2.09,.38,0,.76,.23,1.1,.46,.42,.27,1.14,.68,1.63,.68,.3,0,.68-.15,.87-.95,.11-.46,.27-1.03,.27-1.22,0-.68-.46-.99-1.03-1.22-3.12-1.14-3.27-1.56-3.27-2.13,0-.8,.91-4.64,2.01-4.64,.38,0,.8,.3,1.37,.68,.61,.38,1.67,.99,2.01,.99,.61,0,.8-.46,.95-1.03,.3-1.06,.87-2.96,1.25-4.45,.15-.61,.19-.84,.53-.84,.46,0,4.86,1.56,5.55,1.86Z"/><path class="cls-1" d="M445.98,44.07c0,2.09-3.12,3.42-4.41,3.42-.84,0-1.1-.61-1.52-1.48-.61-1.25-2.32-3.15-3.19-3.15-.49,0-.95,.38-1.29,.68-.3,.27-.76,.68-.99,.68-.84,0-3.08-4.22-3.08-5.09,0-.46,.34-.61,.8-.84,.95-.49,7.1-4.18,7.52-4.67,.27-.34,.3-.87,.3-1.37v-1.48c0-.53-.34-.95-.87-.95-.15,0-1.06,.15-1.29,.19-.57,.11-1.6,.3-2.13,.3-.76,0-1.52-.04-1.52-3.99,0-1.44,0-1.52,1.48-1.6,1.1-.04,2.2-.11,3.31-.23,.38-.04,.8-.19,.99-.53,.23-.38,.27-2.28,.27-3.42v-.65c0-.8-.08-1.63-.08-1.86,0-.38,.19-.61,.57-.61,.84,0,4.56,.8,5.62,.99,.34,.08,.72,.19,.72,.49,0,.19-.23,.34-.38,.42-.57,.46-.68,.84-.8,1.37-.15,.84-.23,1.41-.23,1.52,0,.42,.34,.76,.72,.76,.19,0,.99-.27,1.22-.34,.3-.11,.8-.27,1.03-.27,.65,0,.99,.84,1.14,2.32,.08,.57,.19,1.67,.19,2.24,0,.95-.42,.99-3.61,1.52-.65,.11-1.14,.42-1.14,1.22,0,.53,.15,.99,.76,.99,.23,0,.65-.15,.87-.23,1.63-.53,3.38-.84,5.09-.84,4.67,0,9.08,2.62,9.08,7.75,0,2.43-1.14,4.64-3.08,6.08-2.01,1.52-5.74,2.01-8.21,2.01-1.03,0-1.82,0-2.13-.57-.42-.8-.65-2.74-.65-3.57,0-.68,.08-1.44,.91-1.44,.23,0,1.06,.11,1.33,.15,.46,.04,1.18,.08,1.6,.08,1.63,0,4.41-.46,4.41-2.55,0-1.86-1.82-2.77-3.42-2.77-1.48,0-4.71,.72-5.85,1.6-.38,.3-.49,.84-.49,1.29s.08,1.63,.11,2.09c.04,.76,.3,3.88,.3,4.33Zm-5.62-2.89c0-.46-.04-.95-.38-.95-.3,0-.65,.3-.87,.49-.15,.11-.3,.23-.3,.46,0,.3,.11,.42,.8,.87,.23,.15,.38,.23,.46,.23,.27,0,.3-.23,.3-.46v-.65Zm19.53-16.64c.87,.72,2.24,1.86,3.04,2.66,.23,.19,.49,.46,.49,.76,0,.99-2.28,3.61-3.23,3.61-.34,0-.61-.27-.91-.53-1.71-1.56-3.5-3-5.36-4.37-.42-.3-.84-.57-.84-.99,0-.53,1.06-1.79,1.44-2.17,.08-.08,.15-.19,.23-.27,.49-.53,1.03-1.14,1.48-1.14,.65,0,3.08,1.98,3.65,2.43Z"/><path class="cls-1" d="M477.22,45.05c0,1.18,.11,2.51,.11,3.42,0,.84-.49,.91-1.63,.91h-2.28c-1.18,0-1.67-.08-1.67-.91s.11-2.24,.11-3.42v-6.91c0-.27-.04-.49-.3-.49-.19,0-.34,.11-.46,.23-.23,.15-.53,.38-.8,.38-.53,0-.99-.61-1.29-1.03-.08-.08-.15-.15-.19-.23-.49-.61-1.33-1.75-1.33-2.55,0-.53,.34-.76,.72-1.06,2.7-2.13,6.08-6.65,7.48-9.8,.19-.42,.3-.76,.68-.76s1.25,.38,1.94,.68c.23,.11,.42,.19,.57,.27,1.06,.46,2.36,.91,2.36,1.6,0,.27-.42,.42-.61,.46-.34,.08-.42,.15-.61,.49-.76,1.48-1.98,3.38-2.93,4.71-.11,.19-.23,.34-.23,.53,0,.3,.23,.34,.49,.42,.27,.04,.61,.11,.61,.46,0,.27-.19,.38-.38,.53-.34,.3-.38,1.06-.38,1.82v10.26Zm-.61-29.41c.8,.3,2.47,.84,2.47,1.48,0,.3-.49,.46-.76,.49-.49,.11-.53,.27-.84,.87-1.37,2.81-3.38,5.28-5.7,7.37-.34,.34-.8,.84-1.29,.84-.76,0-2.89-2.39-2.89-3.19,0-.53,.61-1.03,.99-1.37,2.01-1.86,3.65-3.99,4.75-6.57,.19-.46,.3-.8,.68-.8,.53,0,2.01,.65,2.58,.87Zm14.29,20.14c.38,0,.72-.15,.72-.57,0-.95-.38-.99-.8-.99h-6.61c-1.44,0-2.85,.08-4.29,.08-.87,0-.91-.42-.91-1.44v-1.06c0-1.1,.04-1.48,.91-1.48,1.44,0,2.85,.08,4.29,.08h11.85c1.41,0,2.81-.08,4.26-.08,.8,0,.91,.23,.91,1.44v1.18c0,1.03-.08,1.37-.95,1.37-.72,0-1.48-.08-2.2-.08-.34,0-.46,.04-.46,.3,0,.08,.04,.15,.04,.19,0,.11-.08,.19-.15,.3-.08,.11-.15,.19-.15,.34,0,.42,.65,.42,.95,.42,.91,0,1.86-.08,2.77-.08,.84,0,.91,.46,.91,1.33v1.29c0,.95-.08,1.37-.95,1.37s-1.82-.08-2.74-.08c-.99,0-1.37,.38-1.37,1.33v1.56c0,.8,.08,1.63,.08,2.47,0,3.99-3.31,4.37-6.42,4.37-2.2,0-2.7-.19-2.89-2.85-.04-.27-.08-.61-.42-.61-.23,0-.42,.19-.57,.3-.46,.34-1.52,1.06-2.09,1.06-.34,0-.72-.49-1.41-1.37-.15-.19-.3-.42-.49-.65-.57-.76-1.29-1.6-1.94-2.24-.27-.27-.65-.61-.65-.95,0-.57,1.1-1.37,1.56-1.67,.15-.11,.3-.23,.3-.42,0-.3-.3-.34-.53-.34-.72,0-1.41,.08-2.09,.08-.91,0-.99-.42-.99-1.48v-.99c0-1.03,.04-1.52,.91-1.52,1.22,0,2.39,.08,3.61,.08h7.98Zm3.15-19.91c.99,0,1.98-.08,2.96-.08,1.1,0,1.79,.27,1.79,1.67,0,.95-.08,1.94-.08,2.89v4.41c0,.99,.08,1.94,.08,2.89,0,1.25-.53,1.71-1.75,1.71-.99,0-2.01-.11-3-.11h-7.94c-.99,0-1.98,.11-3,.11s-1.75-.3-1.75-1.71c0-.95,.04-1.9,.04-2.89v-4.41c0-.95-.04-1.94-.04-2.89,0-1.25,.49-1.71,1.71-1.71,1.03,0,2.01,.11,3.04,.11h7.94Zm-2.36,24.81c0-.61-.49-1.06-1.06-1.06h-5.36c-.23,0-.49,.04-.49,.3,0,.23,.27,.49,.46,.68,.68,.76,1.79,2.05,2.39,2.89,.27,.34,.49,.61,.99,.68,.27,.04,1.6,.15,1.86,.15,1.1,0,1.22-.23,1.22-1.52v-2.13Zm2.09-20.48c0-.27-.23-.49-.49-.49h-6.46c-.27,0-.49,.23-.49,.49v.23c0,.27,.23,.49,.49,.49h6.46c.3,0,.49-.19,.49-.49v-.23Zm0,4.48c0-.3-.19-.49-.49-.49h-6.46c-.27,0-.49,.23-.49,.49v.23c0,.3,.23,.49,.49,.49h6.46c.27,0,.49-.19,.49-.49v-.23Z"/><path class="cls-1" d="M511.16,20.93c.19-.72,.38-1.44,.49-2.05,.11-.72,.15-1.06,.65-1.06,.34,0,3.99,1.33,5.62,2.05,.76,.34,.99,.57,.99,.76,0,.15-.11,.23-.27,.3-.87,.42-1.06,.72-1.41,1.56-1.25,2.93-2.32,7.33-2.32,10.79,0,2.09,0,3.12,.49,3.12,.27,0,.46-.3,.65-.61,.23-.38,.46-.8,.87-.8,.46,0,1.98,1.29,1.98,1.86,0,.53-1.67,3.46-1.67,5.51,0,.27,.08,1.22,.15,1.79,.04,.23,.11,.87,.11,1.1,0,1.41-2.81,2.51-3.99,2.51-.72,0-1.06-.49-1.75-1.86-1.86-3.76-2.43-8.02-2.43-12.2,0-4.67,.65-8.28,1.82-12.77Zm10.87,16.3c1.6,1.9,2.85,2.55,5.32,2.55,2.81,0,5.62-.46,8.32-1.22,.27-.08,.65-.15,.91-.15,.49,0,.72,.49,.76,.84,.15,1.03,.19,3.19,.19,3.95,0,.49-.04,.76-.53,.99-1.33,.65-7.67,1.22-9.38,1.22-6.12,0-8.81-3.04-8.81-3.91,0-.72,1.9-4.56,2.77-4.56,.19,0,.34,.19,.46,.3Zm-.08-16.45c.23,0,.84,.08,1.18,.15,1.44,.3,3.53,.53,5.02,.53,1.9,0,3.8-.3,5.62-.76,.34-.08,.53-.11,.76-.11,.72,0,.95,.8,1.03,1.37,.11,.95,.23,2.17,.23,3.12s-.11,1.18-1.1,1.33c-2.13,.3-4.26,.46-6.38,.46-1.14,0-6.38-.19-7.1-.8-.3-.27-.3-1.41-.3-1.82,0-2.81,.15-3.46,1.06-3.46Z"/><path class="cls-2" d="M99.39,96.8c-.65,0-1.1,.49-1.1,1.06v2.32c0,.61,.49,1.06,1.06,1.06h7.18c1.6,0,3.19-.08,4.79-.08,.87,0,.95,.38,.95,1.56v1.79c0,1.22-.08,1.6-.95,1.6-1.6,0-3.19-.08-4.79-.08h-22.26c-1.6,0-3.19,.08-4.79,.08-.87,0-.95-.34-.95-1.44v-1.94c0-1.14,.08-1.56,.95-1.56,1.6,0,3.19,.08,4.79,.08h7.14c.61,0,1.06-.46,1.06-1.06v-2.32c0-.57-.46-1.06-1.06-1.06h-3.8c-1.52,0-3,.08-4.48,.08-.87,0-.95-.42-.95-1.52v-1.67c0-1.1,.08-1.48,.95-1.48,1.48,0,2.96,.08,4.48,.08h15.62c1.48,0,2.96-.08,4.45-.08,.87,0,.95,.38,.95,1.33v1.94c0,1.03-.08,1.41-.95,1.41-1.48,0-2.96-.08-4.45-.08h-3.84Zm-13.68-16.03c-.76,0-1.22,.46-1.22,1.1,0,.27,.11,.91,.11,1.33,0,.91-.57,1.03-1.52,1.03h-2.32c-1.1,0-1.71-.11-1.71-.99,0-.53,.11-1.44,.11-2.24v-.99c0-1.22-.08-2.28-.08-2.7,0-1.41,1.48-1.44,2.55-1.44,1.48,0,3,.08,4.48,.08h5.02c.68,0,1.18-.42,1.18-1.1,0-.34-.11-1.41-.11-1.67,0-.61,.42-.68,.91-.68,.8,0,3.15,.19,3.99,.27,1.33,.15,2.05,.15,2.05,.76,0,.3-.23,.46-.42,.65-.23,.19-.34,.46-.34,.72,0,.53,.42,1.06,1.22,1.06h5.09c1.52,0,3-.08,4.48-.08,1.06,0,2.58,.04,2.58,1.44,0,.3-.11,1.44-.11,2.7v.84c0,.46,.04,.91,.08,1.37,.04,.19,.04,.49,.04,.68,0,.95-.76,.95-1.48,.95h-.23c-.15,0-.38,.04-.38,.23,0,.15,.19,.23,.34,.3,.34,.23,.49,.46,.49,.84,0,1.18-.8,3.19-1.44,4.14-.87,1.22-1.94,1.25-3.23,1.25h-5.17c-2.51,0-4.67-.04-4.67-3,0-.68,.08-1.33,.08-2.01v-3.76c0-.61-.49-1.06-1.06-1.06h-1.94c-.23,0-.42,.04-.42,.23s.27,.3,.42,.34c.49,.19,1.56,.53,1.56,1.14,0,.34-.46,.49-.68,.57-.53,.11-.65,.23-.87,.72-2.7,5.43-10.52,8.4-11.89,8.4-1.06,0-2.58-2.55-2.58-3.95,0-.61,.3-.61,1.33-.87,2.7-.68,6.08-2.51,7.56-4.9,.11-.23,.46-.84,.46-1.06,0-.53-.49-.61-.99-.61h-1.25Zm15.81,3.65c0,1.29,.38,1.37,1.41,1.37h1.29c1.03,0,1.06-.49,1.22-1.44,.11-.68,.23-.76,.42-.84,.38-.23,.38-.57,.42-1.06,0-.11,.04-.23,.04-.38v-.23c0-.57-.42-1.06-1.18-1.06h-2.55c-.61,0-1.06,.46-1.06,1.1v2.55Z"/><path class="cls-2" d="M133.24,75.29c.42,1.29,.68,1.48,1.18,1.48,.34,0,1.41-.53,2.13-.91,.61-.34,1.06-.53,1.41-.53,.84,0,2.24,3.15,2.24,4.07,0,.61-.49,.91-.95,1.18-.76,.46-1.56,.8-2.36,1.14-.3,.11-.8,.3-.8,.65,0,.23,.15,.76,.57,.76,.76,0,3.15-1.44,3.88-1.9,.27-.19,.84-.49,1.18-.49,.57,0,1.03,.76,1.41,1.37,.65,1.03,1.29,2.05,1.29,2.7,0,.61-.72,.99-2.05,1.6-.8,.38-1.63,.76-2.43,1.1-.46,.19-.76,.46-.76,.95,0,.3,.15,.61,.46,1.18,.87,1.63,1.79,3.19,2.93,4.64,.42,.49,1.06,1.25,1.06,1.94,0,1.03-3.08,3.23-4.07,3.23-.34,0-.57-.19-1.06-.68-1.48-1.41-3.88-2.36-6.23-2.36-1.1,0-2.85,.34-2.85,1.75,0,2.09,3.46,2.43,4.98,2.43,.46,0,1.67-.08,2.51-.19,.42-.04,1.06-.11,1.25-.11,.91,0,1.1,.61,1.1,2.2,0,3.61-.65,3.65-1.79,3.65-2.01,0-4.1,0-6.08-.34-3.95-.72-7.37-3.08-7.37-7.45,0-4.6,3.61-6.8,7.83-6.8,.68,0,1.37,.08,2.05,.19h.15c.23,0,.57-.19,.57-.53,0-.19-.27-.65-.42-.87-.19-.3-.42-.53-.8-.53-.08,0-.23,.04-.38,.08-2.17,.65-7.68,1.71-9.88,1.71-.68,0-.91-.42-1.14-1.1-.34-.99-.72-2.55-.72-3.57,0-.53,.15-.8,1.71-.87,1.75-.08,6.12-.49,7.75-.99,.3-.08,.49-.27,.49-.57s-.27-.68-.57-.68c-.08,0-.34,.08-.49,.11-1.14,.27-3.69,.72-4.79,.72-.65,0-.84-.38-1.06-.95-.3-.76-.87-2.62-.87-3.38,0-.57,.34-.99,1.37-1.03,.57-.04,1.6-.11,2.36-.23,.68-.11,1.1-.34,1.1-.91,0-.3-.34-.84-.53-1.14-.23-.34-.8-1.22-.8-1.63,0-.61,1.18-.95,1.67-1.1,.84-.27,2.28-.72,3.12-.72,.99,0,1.14,.57,1.52,1.79Z"/><path class="cls-2" d="M182.6,94.67c0,1.06,4.14,5.59,5.09,6.46,.15,.15,.53,.49,.53,.76,0,1.03-2.96,3.04-3.95,3.04-.27,0-.49-.15-.68-.3-2.28-2.09-5.02-6.16-6.5-8.89-1.18-2.17-2.51-5.13-3.19-7.48-.19-.61-.34-1.1-1.56-1.1-.38,0-1.33,.08-1.33,.61,0,.23,.23,.42,.57,.68,3.76,2.96,5.13,8.02,5.13,12.39,0,2.24-.15,4.48-2.36,5.59-1.63,.8-4.03,.8-5.85,.8-2.43,0-3-.53-3.23-3-.04-.38-.23-.8-.68-.8-.19,0-.34,.08-.49,.15-.84,.46-5.02,2.39-5.7,2.39-1.1,0-2.66-2.28-2.66-3.31,0-.34,.23-.49,.91-.72,4.14-1.33,8.66-3.5,12.42-6.19,.76-.53,1.06-.76,1.06-1.22,0-.27-.19-.49-.49-.49-.19,0-.34,.11-.61,.34-2.28,1.9-6.57,4.18-9.42,5.36-.65,.27-1.37,.53-1.63,.53-.95,0-2.2-2.36-2.2-3.23,0-.38,.27-.49,1.06-.8,3.19-1.18,6.76-2.77,9.46-4.48,.8-.49,1.1-.72,1.1-.95,0-.27-.27-.38-.53-.38-.23,0-.42,.08-.61,.19-2.51,1.41-4.94,2.47-7.83,3.53-.38,.15-1.14,.42-1.44,.42-1.03,0-2.24-2.55-2.24-3.46,0-.42,.27-.53,1.14-.76,2.17-.61,4.03-1.22,6.19-2.13,.84-.34,1.37-.65,1.37-.87,0-.11-.11-.19-.27-.19-.11,0-.19,.04-.46,.04h-.11c-.76,0-1.52,.04-2.28,.04-.87,0-1.14-.15-1.14-1.18v-.3c0-.49-.38-.91-.87-.91h-2.05c-.68,0-1.37-.08-1.37-.95,0-.53,.15-1.41,.15-2.05v-1.9c0-1.22-.11-2.13-.11-2.51,0-1.37,1.56-1.41,2.55-1.41,1.48,0,2.93,.08,4.41,.08h5.62c.61,0,1.06-.49,1.06-1.1,0-.34-.08-1.29-.11-1.63-.04-.11-.04-.23-.04-.34,0-.49,.42-.53,.84-.53,1.03,0,3.8,.19,5.02,.3,.84,.08,1.03,.27,1.03,.53,0,.19-.15,.34-.42,.53-.3,.23-.34,.68-.34,1.25,0,.46,.46,.99,1.03,.99h5.47c1.48,0,2.93-.08,4.41-.08,.95,0,2.55,.04,2.55,1.37,0,.3-.11,1.52-.11,2.55v1.98c0,.72,.15,1.56,.15,2.05,0,.91-.49,.99-2.09,.99-.46,0-.87-.04-1.29-.04-.8,0-.87,.65-.87,1.18v.34c0,.38,.65,1.03,1.18,1.48,.61,.53,1.41,1.48,2.2,2.2,.46,.42,.76,.8,.76,1.06s-.23,.46-.46,.46c-.08,0-.11,0-.38-.08-.23-.08-.27-.08-.34-.08-.15,0-.27,.08-.38,.15-.72,.53-1.37,.91-1.86,1.25-1.29,.87-1.9,1.25-1.9,1.79Zm-4.26-12.2c1.06,0,2.09-.04,3.15-.04h.23c.34,0,.65-.15,.65-.53v-.61c0-.23-.19-.42-.42-.42h-20.9c-.23,0-.46,.19-.46,.42v.53q0,.65,3.99,.65h13.75Zm-7.03,17.67c0-.23-.19-.49-.46-.49-.19,0-.72,.34-1.33,.76-.3,.23-.68,.46-1.03,.68-.19,.11-.38,.3-.38,.49,0,.3,.23,.34,.87,.34,1.86,0,2.32-.23,2.32-1.79Zm10.22-12.92c-.46,0-.95-.04-1.41-.04-.68,0-1.1,.04-1.1,.65,0,.19,.11,.49,.23,.76,.15,.38,.34,.91,.84,.91s2.32-1.44,2.32-1.82c0-.42-.42-.46-.76-.46h-.11Z"/><path class="cls-2" d="M199.94,86.65c-.53,0-1.06,.49-1.06,1.06v12.54c0,1.94,.11,3.88,.11,5.85,0,.95-.38,1.06-1.56,1.06h-2.39c-1.22,0-1.6-.08-1.6-1.06,0-1.98,.08-3.91,.08-5.85v-20.44c0-1.37-.08-2.74-.08-4.07,0-1.48,.57-2.13,2.05-2.13,1.25,0,2.47,.11,3.69,.11h3.5c1.22,0,2.43-.11,3.65-.11,1.29,0,2.09,.34,2.09,2.13,0,1.33-.08,2.7-.08,4.07v.76c0,1.37,.08,2.74,.08,4.07,0,1.52-.53,2.13-2.05,2.13-1.22,0-2.43-.11-3.69-.11h-2.74Zm3.19-8.66c0-.27-.23-.49-.49-.49h-3.27c-.27,0-.49,.23-.49,.49v.11c0,.27,.23,.49,.49,.49h3.27c.3,0,.49-.23,.49-.49v-.11Zm0,4.22c0-.27-.19-.49-.49-.49h-3.27c-.27,0-.49,.23-.49,.49v.19c0,.27,.23,.49,.49,.49h3.27c.27,0,.49-.23,.49-.49v-.19Zm5.55,19.15c-.49,0-.87,.23-.87,.76v.27c0,.87-.34,.95-1.63,.95h-1.98c-1.14,0-1.6-.08-1.6-.84,0-.8,.11-2.32,.11-3.53v-5.17c0-.87-.08-1.79-.08-2.66,0-1.44,1.18-1.52,2.32-1.52s2.24,.08,3.34,.08h2.32c1.14,0,2.24-.08,3.38-.08s2.28,.08,2.28,1.52c0,.84-.08,1.71-.08,2.66v5.17c0,2.55,.04,2.96,.84,2.96h.19c.68,0,1.33,.04,2.01,.04,.91,0,.95-.65,.95-1.6v-12.65c0-.57-.46-1.06-1.06-1.06h-2.77c-1.22,0-2.43,.11-3.65,.11-1.29,0-2.09-.34-2.09-2.13,0-1.33,.08-2.7,.08-4.07v-.76c0-1.37-.08-2.74-.08-4.07,0-1.52,.53-2.13,2.05-2.13,1.22,0,2.47,.11,3.69,.11h3.53c1.22,0,2.43-.11,3.65-.11,1.29,0,2.09,.38,2.09,2.13,0,1.33-.08,2.7-.08,4.07v18.31c0,1.22,.08,2.47,.08,3.72,0,1.67-.23,3-1.67,4.03-1.33,.95-3.46,1.25-5.21,1.25-1.63,0-2.2-.3-2.51-3.04-.04-.46-.3-.8-.76-.8-.04,0-.42,.04-.8,.04h-1.14c-1.82,0-2.2,0-2.2-.87,0-.15,.04-.3,.04-.34,0-.49-.34-.76-.84-.76h-1.86Zm2.77-6.23c0-.57-.49-1.06-1.06-1.06h-1.63c-.57,0-1.06,.49-1.06,1.06v.84c0,.57,.49,1.06,1.06,1.06h1.63c.57,0,1.03-.42,1.06-1.06v-.84Zm8.74-17.14c0-.27-.19-.49-.49-.49h-3.31c-.27,0-.49,.23-.49,.49v.11c0,.27,.23,.49,.49,.49h3.31c.3,0,.49-.19,.49-.49v-.11Zm0,4.29c0-.3-.19-.49-.49-.49h-3.31c-.27,0-.49,.23-.49,.49v.11c0,.27,.23,.49,.49,.49h3.31c.3,0,.49-.23,.49-.49v-.11Z"/><path class="cls-2" d="M259.93,73.58c1.22,0,2.43-.08,3.65-.08,.8,0,.87,.3,.87,1.25v1.9c0,.84-.08,1.14-.87,1.14-1.14,0-2.39-.08-3.65-.08h-1.94c-.72,0-.84,.95-.84,1.03,0,.46,.46,.53,.8,.53,1.14,0,2.24-.04,3.38-.04,1.22,0,1.9,.27,1.9,1.6,0,.95-.08,1.86-.08,2.81v7.83c0,.91,.08,1.82,.08,2.77,0,1.33-.72,1.63-1.9,1.63-.38,0-.72-.04-1.06-.04-.11,0-.27,.04-.27,.19,0,.46,3.57,1.75,4.14,1.94,.27,.08,.61,.15,.61,.49,0,.68-1.03,2.01-1.52,2.55-.04,.04-.15,.15-.15,.27,0,.15,.19,.15,.3,.15h.68c.61,0,.76,.49,.76,1.03,0,1.67-.53,3.57-1.37,3.88-.65,.23-1.71,.23-2.43,.23-4.86,0-9.69,0-14.55-.08-5.93-.08-8.51-.3-10.45-2.36-.08-.08-.19-.23-.3-.23-.27,0-.38,.38-.42,.61-.46,2.66-.8,2.66-1.25,2.66-.91,0-4.06-.46-4.06-1.67,0-.19,.15-.68,.23-.87,.8-2.93,1.41-6.27,1.41-9.31v-.19c0-.57,.04-.76,.61-.76,1.29,0,2.81,.3,4.1,.46,.27,.04,.68,.15,.68,.49,0,.38-.34,.57-.61,.72-.19,.11-.19,.91-.19,1.29,0,.8,.65,2.01,.99,2.01,.19,0,.23-.11,.23-.57v-4.67c0-.53-.38-.91-.91-.91h-1.14c-1.22,0-2.43,.08-3.65,.08-1.03,0-1.1-.38-1.1-1.41v-1.67c0-.99,.08-1.41,1.03-1.41,1.25,0,2.51,.08,3.72,.08h7.18c1.25,0,2.51-.08,3.76-.08,.87,0,1.03,.42,1.03,1.33v1.82c0,.99-.15,1.33-1.1,1.33s-1.98-.08-2.96-.08c-.57,0-.91,.19-.91,.8,0,.53,.34,.8,.84,.8,.87,0,1.79-.08,2.66-.08,.68,0,.76,.3,.76,1.22v1.1c0,.38,.11,.87,.61,.87s3.72-1.48,3.72-1.82c0-.19-.19-.23-.34-.23-.27,0-.49,.04-.76,.04-1.22,0-1.9-.34-1.9-1.67,0-.91,.11-1.82,.11-2.74v-7.83c0-.95-.11-1.86-.11-2.77,0-1.25,.65-1.63,1.82-1.63h1.41c.68,0,.95-.95,.95-1.1,0-.38-.42-.42-.99-.42h-.8c-.91,0-1.82,.08-2.74,.08-.76,0-.84-.3-.84-1.14v-1.94c0-.91,.08-1.22,.84-1.22,1.22,0,2.47,.08,3.69,.08h8.62Zm-19.34-.04c1.03,0,2.01-.08,3.04-.08,1.14,0,2.17,.11,2.17,1.52,0,.84-.08,1.71-.08,2.62v5.81c0,.91,.08,1.79,.08,2.62,0,1.41-1.03,1.52-2.17,1.52-1.03,0-2.01-.08-3.04-.08h-2.7c-1.03,0-2.05,.08-3.04,.08-1.14,0-2.17-.11-2.17-1.52,0-.87,.08-1.75,.08-2.62v-5.81c0-.87-.08-1.75-.08-2.62,0-1.41,1.03-1.52,2.17-1.52,.99,0,2.01,.08,3.04,.08h2.7Zm-3.31,4.83c.04,.27,.19,.42,.42,.42h3.15c.27,0,.46-.19,.46-.42v-.23c0-.23-.19-.42-.46-.42h-3.15c-.23,0-.42,.19-.42,.42v.23Zm0,4.41c0,.3,.23,.49,.49,.49h3.04c.27,0,.49-.19,.49-.49v-.11c0-.27-.23-.46-.49-.46h-3.04c-.3,0-.49,.19-.49,.46v.11Zm9.88,17.86c-.08-.11-.42-.53-.49-.68-.53-.8-.57-.87-3.15-.87-.65,0-1.14,.46-1.14,1.22,0,.84,.38,1.29,1.25,1.29s1.75-.04,2.62-.04h.53c.27,0,.72,0,.72-.38,0-.23-.19-.38-.34-.53Zm7.41-4.83c-.34,0-.84,0-.84,.46,0,.3,.53,.91,.72,1.14,.27,.27,.8,.84,.8,1.25,0,.23-.23,.34-.42,.34-.11,0-.23-.04-.3-.08-.04,0-.19-.08-.27-.08s-.23,.15-.3,.19c-.95,.61-2.13,1.25-3.15,1.75-.38,.19-.84,.34-.84,.57,0,.15,.27,.23,.42,.23h5.81c1.48,0,2.96-.04,4.45-.04,.11,0,.42-.04,.42-.23,0-.23-.57-.42-.76-.49-.65-.3-4.14-1.94-4.14-2.58,0-.46,.84-1.37,1.14-1.71,.11-.11,.3-.3,.3-.46,0-.19-.27-.27-.42-.27h-2.62Zm3.08-11.78c.23,0,.42-.19,.42-.42v-.19c0-.27-.19-.46-.42-.46h-4.03c-.23,0-.42,.19-.42,.46v.19c0,.23,.15,.42,.42,.42h4.03Zm-4.03,2.89c-.23,0-.42,.19-.42,.42v.19c0,.23,.19,.46,.42,.46h4.03c.23,0,.42-.23,.42-.46v-.19c0-.23-.15-.42-.42-.42h-4.03Zm.04,4.1c-.27,0-.46,.23-.46,.49v.08c0,.3,.19,.49,.46,.49h3.91c.27,0,.49-.19,.49-.49v-.08c0-.3-.23-.46-.49-.49h-3.91Z"/><path class="cls-2" d="M287.9,74.15c.68,.3,1.18,.57,1.18,.91,0,.3-.42,.42-.68,.49-.46,.19-1.03,1.14-1.03,1.44s.19,.42,.46,.42c.57,0,2.28-.57,3.08-.84,.3-.11,.72-.27,1.06-.27,.84,0,1.03,.8,1.18,1.48,.19,.76,.46,2.28,.46,3.08,0,.57-.34,.72-2.43,1.1-2.09,.38-4.67,.84-7.03,1.1-1.22,.15-1.29,.99-1.29,1.03,0,.19,.19,.27,.34,.27,.08,0,.27-.08,.34-.11,1.1-.38,2.09-.57,3.23-.57,.91,0,1.98,.15,2.74,.61,1.06,.61,1.33,1.1,1.82,2.17,.15,.3,.34,.46,.65,.46,.38,0,2.39-1.14,3.53-1.79,.34-.19,.61-.34,.76-.42,.15-.08,.34-.19,.49-.19,.95,0,2.28,4.37,2.28,5.24,0,.49-.38,.61-1.14,.87-1.82,.68-2.96,1.18-4.71,1.9-.91,.38-1.06,.72-1.06,1.75,0,.46,.04,1.37,.04,2.2,0,2.43-.04,2.47-2.17,2.47-2.62,0-3.42-.11-3.42-1.29,0-.34,.04-.68,.08-1.03v-.19c0-.27-.15-.53-.46-.53-.38,0-2.28,1.22-2.28,2.55,0,1.9,3.23,1.9,4.56,1.9,2.43,0,4.67-.42,7.07-.95,.34-.08,.68-.11,.95-.11,.91,0,.95,1.37,.95,3.8,0,1.44-.08,1.82-1.18,2.05-1.71,.34-5.51,.46-7.37,.46-2.66,0-4.41-.19-6.65-1.22-2.43-1.1-3.88-3.12-3.88-5.89,0-3.57,2.7-5.62,5.47-7.26,.65-.38,1.41-.8,2.09-1.14,.34-.15,.65-.34,.65-.76,0-.53-.49-.99-1.18-.99-1.44,0-4.07,1.33-5.21,2.2-1.79,1.41-2.93,3.42-4.03,5.4-.11,.23-.27,.42-.57,.42-.84,0-4.71-2.13-4.71-3.04,0-.3,.23-.53,.68-1.03,1.56-1.79,4.03-5.74,5.24-7.45,.19-.27,.23-.38,.23-.53,0-.3-.27-.53-.57-.53-.46,0-.99,.04-1.48,.04-1.29,0-1.41-.11-1.41-2.96,0-2.36,.15-2.39,1.37-2.39,.84,0,2.2,.08,3.46,.08,1.86,0,2.2-.15,2.51-.68,.76-1.33,1.48-3.31,1.79-4.71,.11-.57,.19-.84,.57-.84,.42,0,4.03,1.56,4.64,1.82Z"/><path class="cls-1" d="M322.9,99.84c0,.84,.04,1.71,.04,2.55,0,3.61-1.67,4.67-5.09,4.67-.87,0-1.75-.15-2.13-1.06-.27-.65-.38-2.43-.38-3.15,0-.76,.08-1.03,.95-1.03,.53,0,1.1,.04,1.63,.04,.8,0,.84-.27,.84-1.18v-1.56c0-.57-.46-1.06-1.06-1.06h-4.71c-1.1,0-1.14,.53-1.29,1.79-.15,1.14-.72,3.65-1.06,4.71-.38,1.14-.84,2.43-1.41,2.43-.72,0-3.08-1.56-3.08-2.39,0-.15,.08-.34,.15-.46,1.67-4.14,1.75-8.74,1.75-13.15v-3.76c0-2.17,0-2.2-.84-3-.3-.27-.99-.99-.99-1.44,0-.19,.15-.46,.42-.72,1.9-2.17,4.26-6.16,5.28-8.81,.3-.8,.34-.87,.61-.87,.34,0,3.38,.8,3.95,.95,.99,.27,1.6,.46,1.6,.91,0,.27-.38,.38-.57,.42-.19,.04-.65,.11-.65,.34,0,.3,.46,.34,.68,.34h.53c.68,0,1.37-.04,2.05-.04s1.03,.08,1.52,.53c.53,.46,1.18,1.29,1.18,1.94,0,.57-1.29,2.62-1.67,3.15-.11,.19-.19,.3-.19,.49,0,.38,.27,.46,.57,.46,1.1,0,1.41,.65,1.41,1.63,0,1.25-.04,2.51-.04,3.72v5.17c0,.8,.04,.95,.23,.95,.8,0,1.52-4.71,1.56-5.51,.04-.57,.11-.8,.57-.8,.23,0,1.82,.34,2.36,.46,1.1,.23,1.82,.42,1.82,.87,0,.19-.19,.3-.34,.38-.04,.04-.53,.15-.53,1.22,0,.34,.15,.61,.53,.61,.42,0,.61-.23,.61-.87,0-.53-.04-1.29-.11-1.9v-.27c0-.49,.38-.49,.76-.49,1.06,0,3.04,.08,4.14,.15,.76,.04,1.14,.11,1.14,.53,0,.23-.11,.34-.34,.53-.3,.3-.34,.8-.34,1.22,0,.61,.57,1.06,1.18,1.06,.84,0,1.71-.08,2.55-.08s.87,.3,.87,1.41v1.71c0,.99-.08,1.33-.84,1.33-.95,0-1.9-.08-2.85-.08-.42,0-.91,.3-.91,.95v.38c0,.65,.34,1.03,.95,1.03h.46c1.06,0,2.09-.08,3.15-.08,.95,0,1.03,.42,1.03,1.37v1.67c0,.99-.08,1.41-1.03,1.41-1.1,0-2.24-.08-3.38-.08-.61,0-1.18,.46-1.18,1.1,0,1.18,.08,2.32,.08,3.5,0,.91-.42,.99-1.56,.99h-2.24c-1.25,0-1.63-.08-1.63-1.03,0-1.14,.11-2.24,.11-3.38,0-.95-.72-1.18-1.56-1.18-1.14,0-2.24,.08-3.38,.08-.95,0-1.03-.42-1.03-1.52v-1.6c0-.38,.04-.76,.19-1.06,.04-.08,.08-.15,.08-.23,0-.3-.68-.49-.8-.49-.27,0-.3,.3-.3,.53v2.66Zm-10.14-13.79c-.34,0-.61,.27-.61,.61v.84c0,.34,.27,.61,.61,.61h.34c.3,0,.61-.27,.61-.61v-.84c0-.34-.27-.57-.61-.61h-.34Zm.34,7.98c.34-.04,.61-.27,.61-.61v-.84c0-.34-.3-.61-.61-.61h-.3c-.57,0-.65,.46-.65,.95v.49c0,.27,.15,.61,.65,.61h.3Zm1.22-12.08c.46,0,.95-.04,1.33-.61,.23-.3,.8-1.33,.8-1.63,0-.23-.11-.3-.49-.3h-.65c-.72,0-1.03,.46-1.44,1.22-.15,.23-.27,.46-.46,.72-.08,.08-.11,.19-.11,.3,0,.3,.3,.3,.61,.3h.42Zm3.46,4.1c-.3,0-.61,.27-.61,.61v.84c0,.34,.3,.61,.61,.61h.38c.34,0,.61-.27,.61-.61v-.84c0-.34-.27-.61-.61-.61h-.38Zm.38,7.98c.34,0,.61-.27,.61-.61v-.84c0-.34-.27-.61-.61-.61h-.38c-.3,0-.61,.27-.61,.61v.84c0,.34,.27,.57,.61,.61h.38Zm15.84-20.36c1.18,0,2.36-.11,3.53-.11,1.67,0,2.36,.53,2.36,2.7s-.3,5.89-.99,7.9c-.42,1.25-1.18,2.24-4.71,2.24-1.56,0-2.66-.23-2.66-3.38,0-1.22,.15-1.75,.72-1.75h1.1c1.1,0,1.44-.08,1.44-2.09,0-.99-.04-1.03-1.37-1.03-1.48,0-1.6,.57-1.98,1.98-1.06,3.88-4.26,6.54-5.13,6.54-.95,0-3.08-1.82-3.08-2.74,0-.3,.23-.46,.46-.61,.68-.46,1.67-1.44,2.17-2.13,.34-.46,1.18-1.82,1.18-2.39,0-.53-.49-.61-.87-.61-.46,0-.87,.04-1.33,.04-.8,0-.87-.42-.87-1.44v-1.67c0-1.14,.08-1.56,.95-1.56,1.14,0,2.2,.11,3.69,.11h5.4Zm-5.28,23.52c.61,0,.99-.27,.99-.91v-.53c0-.49-.42-.91-.91-.91h-.57c-1.06,0-1.1,.61-1.44,1.48-.04,.11-.08,.23-.08,.34,0,.27,.15,.53,.49,.53h1.52Z"/><path class="cls-1" d="M353.68,91.82c.42,.3,1.67,1.22,1.67,1.67,0,.99-4.98,9.35-5.85,10.64-.27,.38-.53,.76-.53,1.25v.46c0,.34-.04,.84-.46,.84-.38,0-2.28-1.75-2.7-2.13-1.06-.91-1.75-1.48-1.75-2.01,0-.3,.3-.65,.49-.87,2.39-2.7,5.09-7.45,6.53-10.75,.08-.23,.19-.38,.46-.38,.38,0,1.41,.76,2.13,1.29Zm-2.39-8.24c.68,.49,1.82,1.33,1.82,1.9,0,.46-.46,1.1-.76,1.52-.38,.53-1.48,2.13-2.09,2.13-.38,0-2.01-1.41-2.51-1.82-.68-.61-2.09-1.6-2.85-2.05-.3-.19-.72-.38-.72-.8,0-.49,2.01-3.61,2.77-3.61,.57,0,3.31,1.98,4.33,2.74Zm1.79-8.13c.53,.42,1.79,1.33,1.79,1.86s-.65,1.33-1.25,2.09c-.61,.72-1.14,1.48-1.67,1.48-.3,0-.68-.34-.91-.53-1.29-1.03-3.15-2.36-3.8-2.77-.42-.27-.95-.57-.95-.95,0-.34,.65-1.25,1.1-1.9,.65-.95,1.18-1.75,1.79-1.75,.72,0,3.27,1.94,3.91,2.47Zm7.37,17.52c-1.41,0-2.85,.08-4.26,.08-1.03,0-1.1-.42-1.1-1.56v-.99c0-2.01,0-2.51,1.14-2.51,1.41,0,2.81,.08,4.22,.08h.95c1.03,0,1.14-.76,1.14-1.86v-1.82c0-.84-.34-1.22-1.18-1.22h-1.67c-.95,0-2.39,.11-2.81,.11-.61,0-.61-.57-.61-1.18v-2.43c0-1.25,.08-1.56,.65-1.56,.53,0,1.56,.11,2.77,.11h1.71c1.03,0,1.18-.68,1.18-1.44,0-.3-.04-.57-.04-.84,0-.8-.08-1.82-.08-2.24,0-.65,.38-.76,.91-.76,.57,0,4.64,.23,5.13,.3,.3,.04,.68,.19,.68,.57,0,.3-.23,.42-.46,.57-.57,.3-.61,.53-.61,1.79v.99c0,.49,.34,1.06,1.33,1.06h1.75c1.14,0,2.28-.11,3.42-.11,1.37,0,1.75,.65,1.75,2.36,0,1.41-.04,2.81-.04,4.22v2.43c0,.61,.38,.87,.76,.87h.15c1.1,0,1.18,.46,1.18,1.75v1.52c0,1.37-.08,1.79-1.14,1.79-1.41,0-2.81-.08-4.22-.08h-2.36c-.61,0-1.14,0-1.14,.46,0,.3,.87,1.63,1.1,1.94,1.86,2.74,4.52,5.4,7.33,7.29,.27,.19,.91,.57,.91,.91,0,1.29-2.74,3.65-3.99,3.65-.76,0-3.42-2.55-4.03-3.19-1.71-1.75-3.04-3.61-4.22-5.78-.19-.3-.38-.61-.76-.61s-.57,.3-.72,.61c-1.41,2.47-3.46,4.75-5.7,6.5-.61,.49-3.12,2.36-3.76,2.36-.99,0-3.46-2.77-3.46-3.95,0-.57,.53-.84,.91-1.06,2.89-1.79,5.43-3.5,7.26-6.42,.27-.42,1.1-1.86,1.1-2.32,0-.38-.34-.38-.65-.38h-.46Zm9.61-4.9c.57,0,1.06-.46,1.06-1.06v-2.47c0-.8-.27-1.37-1.14-1.37h-1.1c-.42,0-.76,.34-.76,.72v3.08c0,.76,.49,1.1,1.22,1.1h.72Z"/><path class="cls-2" d="M397.5,76.28c.3,.08,.84,.23,.84,.53,0,.15-.15,.27-.27,.3-.61,.34-.68,.8-.87,1.75-.95,4.67-1.22,9.46-1.22,14.21,0,3,0,6.08,3.04,6.08,2.39,0,4.67-1.41,6.12-3.23,1.25-1.56,2.09-3.57,2.43-5.51,.15-.76,.27-1.44,.91-1.44,.84,0,1.98,1.03,2.58,1.56,.68,.61,1.82,1.63,1.82,2.58,0,1.14-1.06,3.65-1.63,4.67-2.43,4.48-6.73,7.45-11.93,7.45-2.7,0-5.58-.91-7.33-3.12-1.9-2.43-2.13-6.46-2.13-9.5,0-4.37,.38-9.04,.68-13.15,.08-.8,.11-2.09,.11-2.96s0-1.33,.65-1.33c.87,0,4.98,.84,6.19,1.1Z"/><path class="cls-2" d="M441.01,74.65c.19,.04,.53,.08,.53,.38,0,.19-.11,.42-.27,.65-.49,.76-.61,1.52-.61,2.39,0,.49,.34,.87,.84,.87,.68,0,4.37-.84,5.36-1.06,.61-.15,1.25-.3,1.56-.3,.53,0,.72,.76,.8,1.18,.19,.95,.42,2.28,.42,3.23s-.46,1.06-1.67,1.29c-1.9,.34-3.88,.65-5.81,.91-.91,.11-1.33,.23-1.33,1.03,0,.53,.27,.95,.84,.95,.53,0,3.38-.61,4.03-.8,.3-.08,.68-.15,.95-.15,.3,0,.49,.3,.65,.8,.27,.8,.27,2.62,.27,3.65,0,1.22-1.18,1.37-4.67,1.75-1.52,.15-1.82,.34-1.82,1.03,0,2.09,.04,2.39,1.22,2.77,1.6,.53,6.69,2.7,6.69,4.48,0,.84-1.6,3.69-2.81,3.69-.53,0-1.52-.76-2.85-1.75-.34-.27-1.22-.91-1.67-.91-.53,0-.68,.42-.87,.84-1.22,2.96-4.26,3.8-7.22,3.8-1.44,0-3.31-.27-4.64-1.18-1.52-1.03-2.39-2.74-2.39-4.48,0-1.63,.84-3.23,2.17-4.18,1.63-1.18,3.91-1.56,5.89-1.56h.42c.53,0,.8-.34,.8-.84,0-.76-.49-1.03-.87-1.03-.68,0-3.04,.19-4.71,.19-1.44,0-1.82-.04-2.05-1.06-.23-.95-.53-2.2-.53-3.53,0-.57,.08-1.1,.76-1.1,1.1,0,2.74,.19,4.56,.19h1.03c.95,0,1.67-.08,1.67-.91,0-.53-.3-.95-.91-.95-1.29,0-3.61,.15-5.4,.15h-1.14c-1.52,0-2.74-.04-2.96-.57-.38-.95-.42-2.89-.42-3.99,0-.53,.04-1.18,.76-1.18s4.71,.34,7.22,.34h.84c.91,0,1.6-.08,1.6-.87,0-.34-.19-2.47-.3-3.15-.08-.34-.11-.72-.11-1.06,0-.46,.27-.57,.72-.57,.72,0,4.56,.49,5.51,.65Zm-9.54,25.11c0,.91,1.41,.95,2.05,.95,1.03,0,2.28-.27,2.28-1.56,0-.53-.46-.57-1.18-.57-.76,0-3.15,.08-3.15,1.18Z"/><path class="cls-2" d="M478.85,73.74c.3,.04,.87,.15,.87,.42,0,.11-.11,.23-.27,.34-.23,.23-.57,.49-.61,1.14-.04,.38-.08,1.18-.08,1.75,0,.99,.04,1.6,1.18,1.6,3,0,6-.38,9-.38,.57,0,1.06,.04,1.06,2.7,0,.72-.08,2.36-.23,2.85-.11,.3-.23,.46-.57,.46-.19,0-4.29-.27-5.47-.3-1.25-.04-2.55-.04-3.84-.04-.72,0-1.1,.42-1.1,1.14v.91c0,.99,.04,1.06,.53,2.09,.72,1.48,1.03,3.5,1.03,5.13,0,6.12-4.22,13.53-6.16,13.53-.8,0-2.32-.68-3.08-1.03-1.06-.46-1.94-.87-1.94-1.41,0-.34,.49-.8,.8-1.06,.72-.68,2.55-2.39,2.55-3,0-.42-.34-.49-.68-.49-3.5-.08-4.83-4.03-4.83-6.95,0-3.38,1.56-7.03,5.24-7.71,.27-.04,.72-.08,.72-.42,0-.19-.15-.38-.49-.38-.42,0-3.19,.3-3.8,.38-.91,.11-6.23,.99-6.99,1.18-.23,.04-.49,.11-.68,.11-.61,0-.8-.87-.99-3.15-.11-1.25-.15-2.13-.15-2.43,0-.57,.19-.65,1.1-.68,3.46-.15,6.88-.42,9.92-.57,.99-.04,1.86-.11,1.86-1.37,0-1.06-.15-3.12-.34-4.14-.04-.15-.04-.23-.04-.3,0-.27,.11-.57,.57-.57,.68,0,5.02,.57,5.89,.68Zm-6.65,19.04c0,.68,.15,2.66,1.18,2.66s1.29-1.9,1.29-2.66c0-.8-.15-2.47-1.25-2.47-1.03,0-1.22,1.71-1.22,2.47Z"/><path class="cls-2" d="M508.08,100.29c0,3-2.43,5.43-5.43,5.43s-5.4-2.43-5.4-5.43,2.39-5.43,5.4-5.43,5.43,2.43,5.43,5.43Zm-8.62,0c0,1.75,1.44,3.19,3.19,3.19s3.23-1.44,3.23-3.19-1.44-3.19-3.23-3.19-3.19,1.41-3.19,3.19Z"/></g><circle class="cls-2" cx="446.16" cy="4.76" r="4"/><circle class="cls-2" cx="486.16" cy="4.76" r="4"/><circle class="cls-2" cx="526.16" cy="4.76" r="4"/></g></g></svg>