<?xml version="1.0" encoding="UTF-8"?><svg id="_レイヤー_2" xmlns="http://www.w3.org/2000/svg" viewBox="0 0 181.73 193.9"><defs><style>.cls-1{fill:#fff;}.cls-2{fill:#5ec263;}</style></defs><g id="_レイヤー_1-2"><g><rect class="cls-2" x="0" width="181.73" height="193.9" rx="15.4" ry="15.4"/><g><path class="cls-1" d="M55.05,37.86V18.74h4.37v15.55h9.8v3.57h-14.17Z"/><path class="cls-1" d="M79.24,37.86h-4.51V18.74h4.51v19.12Z"/><path class="cls-1" d="M99.28,37.86l-9.66-13,.15,13h-4.29V18.74h4.15l9.66,13-.15-13h4.29v19.12h-4.15Z"/><path class="cls-1" d="M124.85,34.44v3.42h-15.67V18.74h15.36v3.42h-10.99v4.29h9.7v3.28h-9.7v4.71h11.31Z"/><path class="cls-1" d="M35.5,48.27v9.05h-6.33v12.66h-3.49v-21.71h9.83Zm-3.15,3.47v-1.12h-3.18v1.12h3.18Zm-3.18,2.14v1.12h3.18v-1.12h-3.18Zm5.36,14.29h-3.32v-9.36h9.85v7.3c.92,.19,1.43,.29,1.77,.29,.27,0,.49-.12,.49-.66v-8.42h-6.33v-9.05h9.85v19.07c0,2.57-2.55,2.62-3.47,2.62-.51,0-.75-.02-1.12-.1-.15-1.07-.34-1.8-1.38-3.59h-6.33v1.89Zm3.23-4.49v-2.28h-3.23v2.28h3.23Zm5.56-11.94v-1.12h-3.18v1.12h3.18Zm-3.18,2.14v1.12h3.18v-1.12h-3.18Z"/><path class="cls-1" d="M57.55,50.19c.22,.07,.49,.15,.49,.36,0,.32-.29,.36-.51,.39-.51,1.48-1.36,4.03-1.36,7.3,0,2.96,.92,5.02,1.63,5.02,.78,0,1.7-2.14,2.35-3.66,.9,1.24,1.82,2.06,2.55,2.57-1.94,4.71-4.15,6.36-5.34,6.36-1.36,0-4.95-2.89-4.95-10.38,0-3.11,.53-5.94,1.19-9.07l3.95,1.12Zm11.72,.17c2.67,3.59,4.49,7.72,4.9,12.2-1.43,.56-3.15,1.38-3.95,1.8-.29-5.14-1.8-8.69-4.08-12.01l3.13-1.99Z"/><path class="cls-1" d="M95.14,58.05h-10.99v-1.33c-1.24,.92-2.01,1.5-4,2.57-.29-.46-.8-1.36-2.52-3.06,6.23-2.55,8.76-6.65,9.9-8.64l4.37,.32c.12,0,.39,.07,.39,.29,0,.15-.1,.24-.39,.46,1.36,2.45,6.4,5.97,9.9,7.25-.83,.75-1.84,1.94-2.28,3.13-1.8-.87-3.45-1.99-4.37-2.64v1.65Zm-9.51,11.01v1.07h-3.57v-10.58h15.16v10.58h-3.59v-1.07h-8.01Zm8.01-3.18v-3.18h-8.01v3.18h8.01Zm-.46-10.94c-1.48-1.14-2.09-1.8-3.61-3.54-2.09,2.4-2.18,2.52-3.32,3.54h6.94Z"/><path class="cls-1" d="M116.1,53.1c-.32,.34-.66,.8-.82,1.19,1.92-1.16,3.52-1.41,4.88-1.41,3.42,0,6.89,2.21,6.89,7.08,0,7.52-7.45,8.61-9.12,8.86-.78-1.97-1.09-2.55-1.92-3.52,2.64-.17,7.28-.99,7.28-5.12,0-2.47-1.77-3.76-3.66-3.76-2.06,0-4.32,1.29-5.94,2.64v10.43l-3.95,.29c.27-3.03,.34-5.97,.36-6.72-.7,.99-1.96,2.77-2.13,2.96l-2.77-2.72c3.2-3.35,4.63-5.82,4.95-6.36v-.7c-.68,.32-2.18,.87-3.69,1.29l-.63-4.05c1.58-.1,3.35-.46,4.44-.75,0-.78-.12-4.17-.12-4.88l3.69,.22c.46,.02,.73,.05,.73,.36,0,.27-.22,.29-.53,.34-.17,1.46-.19,2.06-.22,2.64,.15-.07,.22-.12,.51-.24l1.8,1.92Z"/><path class="cls-1" d="M149.14,48.63c.34,.05,.56,.07,.56,.34s-.29,.34-.49,.39c0,.12,.07,3.57,.1,3.91,3.01-.44,3.81-.51,4.66-.58v4c-.39-.02-.8-.07-1.41-.07-1.14,0-2.26,.12-3.23,.22,.02,6.5-1.07,6.74-5.65,6.74-.12-1.24-.9-3.42-.95-3.59,.29,.05,.75,.12,1.36,.12,1.36,0,1.46-.34,1.6-2.77-.78,.12-4.17,.7-4.88,.82-.02,.75-.05,1.48-.05,2.21,0,3.86,.19,4.1,.65,4.54,.53,.49,1.26,.68,2.94,.68,1.38,0,4.71-.17,8.15-1.04-.12,.58-.49,2.26-.46,3.95-3.18,.56-8.03,.66-8.37,.66-1.41,0-5.19-.05-6.09-3.35-.36-1.38-.34-3.3-.29-6.89-2.91,.73-3.76,.95-4.71,1.21l-.29-4.25c1.31-.02,2.45-.22,4.88-.66-.05-2.47-.15-4.42-.32-5.58l4.2,.46c.36,.05,.66,.07,.66,.39,0,.27-.27,.34-.44,.36-.05,.61-.22,3.18-.27,3.71,.73-.12,3.06-.49,4.59-.75-.02-1.26-.1-3.64-.58-5.75l4.12,.56Z"/></g><g><path class="cls-1" d="M129.15,112.11c0-17.13-17.18-31.07-38.29-31.07s-38.29,13.94-38.29,31.07c0,15.36,13.62,28.22,32.02,30.65,1.25,.27,2.94,.82,3.37,1.89,.39,.97,.25,2.48,.12,3.46,0,0-.45,2.7-.55,3.28-.17,.97-.77,3.79,3.32,2.06,4.09-1.72,22.05-12.98,30.08-22.23h0c5.55-6.09,8.21-12.26,8.21-19.12Z"/><g><path class="cls-2" d="M116.41,122h-10.76c-.4,0-.73-.33-.73-.73h0v-16.69h0v-.02c0-.4,.33-.73,.73-.73h10.76c.4,0,.73,.33,.73,.73v2.72c0,.4-.33,.73-.73,.73h-7.31v2.82h7.31c.4,0,.73,.33,.73,.73v2.72c0,.4-.33,.73-.73,.73h-7.31v2.82h7.31c.4,0,.73,.33,.73,.73v2.72c0,.4-.33,.73-.73,.73Z"/><path class="cls-2" d="M76.62,122c.4,0,.73-.33,.73-.73v-2.72c0-.4-.33-.73-.73-.73h-7.31v-13.26c0-.4-.33-.73-.73-.73h-2.72c-.4,0-.73,.33-.73,.73v16.7h0c0,.42,.33,.74,.73,.74h10.76Z"/><rect class="cls-2" x="79.65" y="103.83" width="4.18" height="18.17" rx=".73" ry=".73"/><path class="cls-2" d="M101.59,103.83h-2.72c-.4,0-.73,.33-.73,.73v9.92l-7.65-10.32s-.04-.05-.06-.08c0,0,0,0,0,0-.01-.02-.03-.03-.04-.05,0,0,0,0-.01-.01-.01-.01-.03-.02-.04-.03,0,0-.01,0-.02-.01-.01,0-.03-.02-.04-.03,0,0-.01,0-.02-.01-.01,0-.03-.02-.04-.02,0,0-.02,0-.02-.01-.01,0-.03-.01-.04-.02,0,0-.02,0-.02,0-.01,0-.03,0-.04-.01,0,0-.02,0-.03,0-.01,0-.03,0-.04,0-.01,0-.02,0-.03,0-.01,0-.03,0-.04,0-.01,0-.03,0-.04,0,0,0-.02,0-.03,0h-2.7c-.4,0-.73,.33-.73,.73v16.71c0,.4,.33,.73,.73,.73h2.72c.4,0,.73-.33,.73-.73v-9.92l7.65,10.34c.05,.07,.12,.14,.19,.18,0,0,0,0,0,0,.01,0,.03,.02,.05,.03,0,0,.01,0,.02,.01,.01,0,.02,.01,.04,.02,.01,0,.02,.01,.04,.02,0,0,.02,0,.02,0,.02,0,.03,.01,.05,.02,0,0,0,0,.01,0,.06,.02,.12,.03,.19,.03h2.7c.4,0,.73-.33,.73-.73v-16.71c0-.4-.33-.73-.73-.73Z"/></g></g><g><path class="cls-1" d="M16.39,170.13c0-2.9,1.18-5.27,2.96-7.08l.89,.46c-1.71,1.77-2.77,3.97-2.77,6.62s1.06,4.85,2.77,6.62l-.89,.46c-1.79-1.81-2.96-4.18-2.96-7.08Z"/><path class="cls-1" d="M21.57,174.98c3.42-2.99,5-5.16,5-7.04,0-1.25-.65-2.16-2.01-2.16-.89,0-1.67,.55-2.26,1.26l-.79-.77c.89-.97,1.83-1.61,3.21-1.61,1.95,0,3.17,1.28,3.17,3.23,0,2.17-1.71,4.39-4.27,6.81,.57-.04,1.23-.1,1.79-.1h3.02v1.18h-6.86v-.8Z"/><path class="cls-1" d="M36.95,172.78h-1.44v3.01h-1.29v-3.01h-4.75v-.89l4.54-7.01h1.5v6.81h1.44v1.09Zm-2.74-1.09v-3.35c0-.54,.06-1.41,.09-1.98h-.06c-.27,.54-.57,1.07-.88,1.61l-2.48,3.72h3.33Z"/><path class="cls-1" d="M46.55,174.01h-3.2v1.21h-1.01v-10.91h4.21v9.7Zm-3.2-8.7v3.3h2.16v-3.3h-2.16Zm2.16,7.71v-3.44h-2.16v3.44h2.16Zm8.05-4.06v1.68h1.73v.98h-1.73v3.99c0,.62-.16,.95-.61,1.12-.46,.16-1.21,.18-2.41,.18-.04-.3-.19-.74-.36-1.03,.92,.03,1.74,.03,1.98,.01,.25-.01,.33-.07,.33-.3v-3.97h-5.62v-.98h5.62v-1.68h-5.7v-.98h3.73v-1.89h-3.09v-.98h3.09v-1.77h1.09v1.77h3.2v.98h-3.2v1.89h3.84v.98h-1.89Zm-4.89,3.18c.76,.74,1.59,1.8,1.93,2.53l-.94,.59c-.34-.73-1.13-1.83-1.89-2.62l.89-.51Z"/><path class="cls-1" d="M58.5,169.04v7.89h-1.1v-12.96h5.37v5.07h-4.27Zm0-4.21v1.23h3.21v-1.23h-3.21Zm3.21,3.36v-1.31h-3.21v1.31h3.21Zm-.04,7.35v.74h-1v-6.13h5.52v5.39h-4.52Zm0-4.54v1.38h3.5v-1.38h-3.5Zm3.5,3.66v-1.44h-3.5v1.44h3.5Zm4.43,.79c0,.7-.16,1.07-.65,1.26-.48,.18-1.26,.19-2.5,.19-.04-.31-.22-.83-.39-1.13,.91,.04,1.81,.03,2.08,.01,.25,0,.34-.09,.34-.36v-6.38h-4.39v-5.09h5.5v11.49Zm-4.45-10.62v1.23h3.33v-1.23h-3.33Zm3.33,3.38v-1.32h-3.33v1.32h3.33Z"/><path class="cls-1" d="M75.04,174.49l.68-.89c.64,.67,1.47,1.25,2.71,1.25s2.22-.77,2.22-2.02-.88-2.19-3.39-2.19v-1.04c2.25,0,3.02-.91,3.02-2.08,0-1.06-.71-1.73-1.84-1.76-.88,.03-1.65,.48-2.26,1.09l-.73-.86c.82-.76,1.79-1.31,3.05-1.31,1.83,0,3.17,.98,3.17,2.74,0,1.32-.79,2.2-1.95,2.63v.06c1.29,.3,2.32,1.28,2.32,2.77,0,1.95-1.56,3.11-3.5,3.11-1.71,0-2.78-.71-3.5-1.49Z"/><path class="cls-1" d="M89.53,166.63c-.43-.52-1.09-.83-1.76-.83-1.49,0-2.75,1.15-2.81,4.54,.67-.82,1.62-1.32,2.48-1.32,1.84,0,3.02,1.15,3.02,3.42,0,2.11-1.43,3.54-3.12,3.54-2.1,0-3.65-1.8-3.65-5.4,0-4.27,1.92-5.91,4.03-5.91,1.13,0,1.95,.48,2.54,1.12l-.74,.85Zm-.34,5.8c0-1.47-.64-2.41-1.96-2.41-.68,0-1.52,.39-2.23,1.4,.16,2.26,.98,3.5,2.35,3.5,1.04,0,1.84-1,1.84-2.48Z"/><path class="cls-1" d="M91.53,174.53l.67-.89c.62,.62,1.41,1.21,2.68,1.21s2.32-.98,2.32-2.57-.89-2.48-2.26-2.48c-.73,0-1.19,.22-1.81,.64l-.73-.45,.34-5.1h5.31v1.16h-4.12l-.27,3.15c.48-.27,.97-.43,1.62-.43,1.82,0,3.29,1.07,3.29,3.47s-1.73,3.75-3.57,3.75c-1.7,0-2.74-.71-3.47-1.44Z"/><path class="cls-1" d="M115.42,164.36v12.33h-1.16v-.91h-7.38v.97h-1.12v-12.39h9.66Zm-8.54,1.09v4.02h7.38v-4.02h-7.38Zm7.38,9.25v-4.15h-7.38v4.15h7.38Z"/><path class="cls-1" d="M129.92,170.68c-.77,1.58-1.95,2.8-3.41,3.73,1.58,.71,3.44,1.19,5.5,1.44-.24,.24-.54,.73-.67,1.03-2.25-.31-4.24-.92-5.94-1.84-1.79,.92-3.85,1.5-6,1.84-.12-.27-.43-.76-.65-.98,2.02-.28,3.96-.74,5.59-1.49-1.22-.83-2.25-1.86-3.01-3.06l.15-.06h-.64v-1.03h8.11l.22-.04,.73,.46Zm-9.8-.06h-1.04v-3.02h2.37c-.18-.54-.59-1.35-.98-1.96l.95-.27c.43,.61,.88,1.41,1.06,1.95l-.88,.28h6.47c.49-.74,1.06-1.77,1.38-2.53l1.12,.34c-.4,.73-.92,1.53-1.37,2.19h2.54v3.02h-1.09v-2.04h-10.53v2.04Zm10.79-6.44c-2.98,.62-7.57,1-11.43,1.15-.01-.28-.15-.68-.25-.94,3.81-.16,8.36-.55,10.91-1.1l.77,.89Zm-8.38,7.11c.71,1.03,1.71,1.87,2.92,2.56,1.16-.67,2.14-1.5,2.83-2.56h-5.74Zm2.6-3.78c-.09-.58-.4-1.5-.74-2.19l1-.22c.36,.68,.68,1.59,.79,2.16l-1.04,.25Z"/><path class="cls-1" d="M138.32,163.78c-.45,1.12-.97,2.22-1.58,3.24v9.86h-1.1v-8.15c-.48,.67-1,1.28-1.5,1.8-.13-.25-.48-.83-.68-1.09,1.52-1.44,2.93-3.7,3.78-6.01l1.09,.34Zm8.64,3.96h-1.87v7.68c0,.83-.24,1.18-.79,1.34-.58,.18-1.58,.19-3.18,.18-.06-.28-.27-.79-.43-1.09,1.25,.04,2.47,.04,2.83,.03,.33-.03,.46-.12,.46-.46v-7.68h-6v-1.1h6v-3.12h1.12v3.12h1.87v1.1Zm-5.89,5.71c-.45-.92-1.4-2.51-2.16-3.7l.95-.45c.77,1.15,1.76,2.69,2.23,3.6l-1.03,.55Z"/><path class="cls-1" d="M161.08,165.98v6.96h-1.13v-.85h-4.27v4.82h-1.15v-4.82h-4.25v.92h-1.09v-7.04h5.34v-2.65h1.15v2.65h5.4Zm-6.55,5.03v-3.94h-4.25v3.94h4.25Zm5.42,0v-3.94h-4.27v3.94h4.27Z"/><path class="cls-1" d="M167.11,170.13c0,2.9-1.18,5.27-2.96,7.08l-.89-.46c1.71-1.77,2.77-3.97,2.77-6.62s-1.06-4.85-2.77-6.62l.89-.46c1.79,1.81,2.96,4.18,2.96,7.08Z"/></g></g></g></svg>