<?xml version="1.0" encoding="UTF-8"?><svg id="_レイヤー_2" xmlns="http://www.w3.org/2000/svg" viewBox="0 0 297.42 88.32"><defs><style>.cls-1{fill:#f76e11;}.cls-2{fill:#fff;}</style></defs><g id="_レイヤー_1-2"><g><rect class="cls-1" width="297.42" height="88.32" rx="6.18" ry="6.18"/><g><path class="cls-2" d="M30.14,50.09H14.94v-2.4h2v-2.56h-2.85v-2.4h2.85v-1.44c-.44,.42-.67,.6-.96,.85-1.02-.81-2.1-1.25-2.65-1.44,1.27-1.02,3.04-2.54,4.21-4.77l2.98,.98c.1,.04,.21,.1,.21,.23,0,.27-.33,.33-.48,.38-.06,.1-.15,.19-.21,.27h12.25v2.58h-1.9v2.35h2.81v2.4h-2.81v2.56h2.17v2.4h-2.4c.71,.67,1.83,1.71,3.31,3.83-.9,.42-2.37,1.5-2.6,1.67-.71-1.23-1.56-2.54-2.98-3.92l2.25-1.58Zm-10.85,1.29c.19,.1,.35,.19,.35,.37,0,.23-.15,.25-.52,.31-.62,1.15-1.85,2.83-2.71,3.71-.73-.79-1.58-1.27-2.56-1.67,1.23-.94,2.54-2.58,3.1-3.9l2.33,1.17Zm.1-8.64h1.21v-2.35h-1.21v2.35Zm0,4.96h1.21v-2.56h-1.21v2.56Zm3,2.98c.71,1.37,1.04,2.54,1.33,4.08-1.17,.21-2.08,.48-3.04,.81-.08-.65-.27-2.42-.98-4.19l2.69-.71Zm.65-7.94h1.21v-2.35h-1.21v2.35Zm0,4.96h1.21v-2.56h-1.21v2.56Zm3.62,2.81c.96,1.4,1.5,3.33,1.67,3.87-1.62,.48-1.92,.56-2.83,.96-.52-1.81-.94-2.85-1.52-4.08l2.69-.75Zm.02-10.12v2.35h1.21v-2.35h-1.21Zm0,4.75v2.56h1.21v-2.56h-1.21Z"/><path class="cls-2" d="M43.37,55.3h-2.9v-4.52c-.77,1.17-1.21,1.65-1.62,2.08-1.27-1.19-1.92-1.48-2.46-1.73,1.5-1.37,3-3.12,3.83-5.79h-3.17v-2.69h3.42v-1.52c-1.25,.44-1.9,.81-2.37,1.08-.17-.92-.5-2.25-1.21-3.69l2.31-.83c.48,.94,1.04,2.33,1.27,3.19v-4.75l2.83,.17c.27,.02,.58,.04,.58,.33,0,.25-.33,.4-.52,.46v5.56h2.85v2.69h-2.56c1.08,1.65,2.1,2.48,2.69,2.96-.6,.56-.96,.98-1.52,2-.65-.54-.96-.83-1.46-1.35v6.35Zm3.69-17.08c.19,.04,.42,.12,.42,.27,0,.17-.27,.31-.46,.42-.17,.6-.54,1.83-1.15,3.25-.81-.46-1.35-.65-2.29-.81,.25-.71,.75-2.27,1.06-3.77l2.42,.65Zm8.81,8.35l.5,2.54-2.08,.54v5.6h-2.96v-4.81l-4.98,1.33-.48-2.67,5.46-1.4v-7.29c-.71,.58-1.1,1.04-1.65,1.73-.56-.77-1.94-2.02-2.58-2.54l1.73-1.98c1.02,.81,1.94,1.67,2.5,2.37v-3.81l2.94,.25c.17,.02,.46,.04,.46,.27,0,.17-.23,.31-.44,.44v9.81l1.58-.4Zm-7.31-3.94c1.1,1,1.85,1.77,2.67,2.9-.52,.52-1.08,1.12-1.81,1.92-.67-.98-1.62-2.06-2.56-2.87l1.71-1.94Z"/><path class="cls-2" d="M72.84,40.14c.77,.73,2.83,2.46,6.75,3.83-.54,.44-1.15,1.02-1.9,2.27-.56-.21-.96-.35-2.1-.96v7.33h3.48v2.33h-19.18v-2.33h3.52v-7.31c-.9,.48-1.4,.69-1.87,.9-.65-1.04-1.17-1.54-2-2.23,2.58-.83,4.5-1.94,6.35-3.83h-5.96v-2.35h8.02v-1.79l3.08,.15c.19,0,.42,.04,.42,.25,0,.17-.19,.31-.42,.4v1h8v2.35h-6.19Zm-1.81,3.87h-3.08v-2.04c-.42,.42-1.4,1.37-3.08,2.46h9.21c-1.02-.65-1.81-1.12-3.04-2.31v1.9Zm1.48,3.37v-.75h-6.04v.75h6.04Zm0,2.6v-.79h-6.04v.79h6.04Zm0,2.62v-.81h-6.04v.81h6.04Z"/><path class="cls-2" d="M94.05,46.39h5.48v2.73h-5.48v3.1c.52,.02,1.12,.04,1.94,.04,1.96,0,2.29-.02,6.42-.35-.73,1.73-.77,2.52-.75,3.25h-8.14c-3.81,0-5.54-2.08-6.14-2.92-.77,1.75-1.6,2.81-1.96,3.29-1.08-.79-1.31-.87-2.98-1.29,.77-.9,3.08-3.56,3.54-8.62l3.21,.56c.19,.04,.42,.08,.42,.33,0,.21-.12,.25-.58,.42-.1,.52-.21,1.04-.48,2.04,.38,.9,.85,2.02,2.33,2.71v-7.21h-5.39v-1.58h-2.6v-4.83h7.89v-1.96l3.19,.21c.29,.02,.56,.04,.56,.25,0,.17-.1,.25-.56,.46v1.04h8v4.75h-2.42v1.67h-5.48v1.92Zm4.81-4.6v-1.21h-12.98v1.21h12.98Z"/><path class="cls-2" d="M120.61,37.49c.17,0,1.08-.04,1.44-.12l2.42,1.96c-.25,.31-.48,.58-.69,1.1-2.08,5.08-2.52,6.1-4.04,8.14-1.77,2.35-3.83,4.06-7.71,6.21-.35-.48-.85-1.15-2.58-2.54,4.73-2.27,7.94-4.39,10.54-11.66h-12.66v-3.08h13.29Z"/><path class="cls-2" d="M131.19,45.66v-2.77h7.35v-2.92l2.96,.19c.29,.02,.44,.04,.44,.23,0,.21-.27,.29-.44,.33v2.17h3.33v2.77h-3.33v6.54c0,2.12-.73,2.67-3.98,2.62-.17-1.06-.65-2.25-1.12-3.12,.31,.08,.6,.17,1.37,.17s.77-.25,.77-.94v-2.5c-2,2.71-4.71,4.19-5.79,4.77-.6-.9-1.29-1.73-2.08-2.46,1.71-.65,4.17-1.83,6.33-5.08h-5.81Z"/><path class="cls-2" d="M170.18,44.09v3.54h-18.1v-3.54h18.1Z"/><path class="cls-2" d="M188.37,43.57c2.12,2.58,4.46,6.29,5.1,8.12-.96,.71-2.1,1.56-2.83,2.19-.25-.67-.5-1.33-.96-2.33-4.85,.9-7.96,1.37-13.54,2.02-.04,.19-.15,.4-.31,.4-.21,0-.27-.23-.31-.42l-.79-3.21c.98-.02,1.52-.04,2.19-.08,1.5-2.77,3.83-8.77,4.85-13.52l3.6,.92c.19,.04,.38,.1,.38,.29,0,.29-.33,.35-.5,.4-.35,.9-1.79,4.92-2.12,5.73-.33,.85-1.52,3.79-2.6,5.92,1.98-.21,4.44-.5,7.64-1.1-.83-1.27-1.67-2.52-2.71-3.6l2.92-1.71Z"/><path class="cls-2" d="M202.78,37.87c.17,.06,.27,.15,.27,.29,0,.25-.4,.29-.58,.31-1.25,4.29-1.25,7.37-1.25,8.02,0,1.04,.08,1.52,.15,2.08,.27-.4,.71-1.06,.98-1.48,.42,.79,.9,1.44,1.5,2.06-.42,.6-1.75,2.62-1.73,5.1l-2.79,.52c-.29-1-1.12-3.96-1.12-8.39,0-2.12,.23-5.87,1.25-9.54l3.33,1.02Zm9.89-.46c.1,.02,.27,.04,.27,.23,0,.25-.29,.31-.48,.33-.06,.46-.15,1.04-.21,2.5,1.62-.29,2.33-.52,3.08-.77v3.15c-.48,.12-1.44,.35-3.17,.67,0,2.06,.21,4.08,.33,4.79,1.6,.54,3.19,1.4,3.96,2.15-.33,.6-.96,1.96-1.42,2.94-.67-.65-1.35-1.21-2.23-1.58-.08,2.67-2.75,2.98-4.06,2.98-3.12,0-4.69-1.71-4.69-3.65,0-2.48,2.46-3.42,5.17-3.35-.17-2.37-.19-2.65-.23-3.85-1.19,.1-2.04,.1-2.4,.1-.67,0-1.1-.02-1.54-.06v-3.27c.75,.08,1.81,.23,3.92,.15,0-.87,0-2.71,.02-4.06l3.67,.62Zm-4.31,12.91c-.46,0-1.46,.15-1.46,.79,0,.54,.69,.77,1.35,.77,.17,0,1.42,0,1.42-1.02,0-.1,0-.19-.04-.27-.25-.1-.62-.27-1.27-.27Z"/><path class="cls-2" d="M227.07,47.22c-1.12,1-1.87,2.15-1.87,2.62,0,.35,.27,.58,.42,.67,.77,.42,3.17,.46,4.14,.46,4.4,0,7.04-.75,8.04-1.04,.08,1.12,.4,2.62,.6,3.46-2.85,.71-7.21,.83-8.83,.83-4.77,0-7.83-.87-7.83-4.04,0-1.79,1.46-3.37,3.1-4.77l2.23,1.81Zm9.96-7.27c-2.58,1.02-4.48,2.23-6.56,4.12-.04-.04-.23-.25-1.85-2.08,.56-.38,1.02-.77,1.48-1.25-.52,.04-1.81,.12-3.71,.12-1.65,0-2.31-.08-2.81-.12l-.17-3.44c1.69,.35,4.5,.46,6.29,.46,3.29,0,5.04-.33,5.64-.46l1.69,2.65Z"/><path class="cls-2" d="M253.3,36.89c.17,.04,.4,.12,.4,.33,0,.12-.1,.27-.46,.29-.46,1.42-.5,1.56-.6,1.87,2.31-.35,4.6-.79,6.79-1.65,.1,.69,.38,2.27,.58,3.1-2.56,.9-5.81,1.56-8.52,1.77-.5,1.37-.67,1.79-1.08,2.81,1.69-.83,3.52-1.42,5.42-1.42,5.56,0,5.85,3.92,5.85,4.96,0,1.85-1,3.35-2.23,4.21-1.1,.75-3.19,2-8.96,2-.88,0-1.48-.06-1.94-.1-.15-1.08-.4-2.06-.77-3.1,.6,.06,1.83,.19,3.1,.19,.48,0,4.04,0,6.19-1.27,1.1-.67,1.12-1.58,1.12-1.96,0-1.21-.62-2.23-2.54-2.23s-4.77,.94-7.21,3.48l-3-1.5c1.5-2.25,2.62-5.42,2.77-5.85-1.81,.02-3.25-.06-4.04-.12l-.04-3.42c1.35,.33,2.54,.46,5.04,.46,.35-1.29,.62-2.46,.79-3.69l3.33,.83Z"/><path class="cls-2" d="M274.02,40.97c.15,.04,.31,.08,.31,.27,0,.25-.25,.27-.48,.29-.5,.94-1.06,2.17-1.37,3.6,1.85-1.27,4.27-1.94,6.08-1.94,3.58,0,5.33,2.65,5.33,5.12,0,3.98-3.75,6.71-10.64,6.71-.6,0-1.12-.02-1.52-.04-.12-1.15-.29-1.71-.98-3.5,.71,.17,1.44,.31,3.08,.31,4.73,0,6.6-1.77,6.6-3.52,0-.6-.29-2.12-2.44-2.12-2.98,0-5.14,1.92-6.64,3.42l-2.98-1.08c.6-3.56,1.23-5.83,2.19-8.62l3.46,1.1Zm-1.15-4.87c.73,.1,3.94,.58,7,2.31-.79,1.1-1.31,2-1.88,3.04-1.75-1.23-4.29-2.15-6.21-2.56l1.08-2.79Z"/></g><g><path class="cls-2" d="M80.13,16.9c-.91,.21-1.9,.36-2.87,.48-.13,.6-.28,1.25-.43,1.83-.5,1.99-1.44,4.85-2.17,6.36l-1.23-.41c.83-1.43,1.81-4.24,2.33-6.21,.13-.46,.24-.97,.35-1.47-.45,.03-.87,.04-1.26,.04-.62,0-1.12-.03-1.61-.06l-.04-1.09c.66,.08,1.16,.1,1.67,.1,.46,0,.95-.03,1.48-.06,.1-.5,.17-.94,.21-1.22,.04-.39,.07-.85,.04-1.15l1.36,.11c-.1,.31-.2,.83-.25,1.11l-.21,1.02c.9-.11,1.81-.28,2.65-.5v1.11Zm-.55,4.86c-.13,.46-.2,.9-.2,1.25,0,.66,.31,1.29,2.28,1.29,.9,0,1.86-.11,2.7-.27l-.04,1.13c-.74,.1-1.67,.18-2.68,.18-2.19,0-3.33-.67-3.33-2.05,0-.53,.08-1.05,.21-1.64l1.05,.1Zm-.35-3.38c.73-.07,1.64-.11,2.54-.11,.8,0,1.65,.03,2.4,.11l-.03,1.06c-.7-.08-1.53-.17-2.34-.17-.87,0-1.71,.06-2.56,.15v-1.05Z"/><path class="cls-2" d="M89.3,19.2c.99-.31,3.26-1.13,4.9-1.13,1.96,0,3.39,1.18,3.39,3.07,0,2.68-2.58,4.05-6.32,4.27l-.45-1.08c3-.1,5.63-.94,5.63-3.21,0-1.18-.92-2.03-2.34-2.03-1.72,0-4.75,1.26-5.65,1.61l-.46-1.16c.41-.07,.87-.2,1.29-.34Z"/><path class="cls-2" d="M108.13,16.9c-.91,.21-1.9,.36-2.87,.48-.13,.6-.28,1.25-.43,1.83-.5,1.99-1.44,4.85-2.17,6.36l-1.23-.41c.83-1.43,1.81-4.24,2.33-6.21,.13-.46,.24-.97,.35-1.47-.45,.03-.87,.04-1.26,.04-.62,0-1.12-.03-1.61-.06l-.04-1.09c.66,.08,1.16,.1,1.67,.1,.46,0,.95-.03,1.48-.06,.1-.5,.17-.94,.21-1.22,.04-.39,.07-.85,.04-1.15l1.36,.11c-.1,.31-.2,.83-.25,1.11l-.21,1.02c.9-.11,1.81-.28,2.65-.5v1.11Zm-.55,4.86c-.13,.46-.2,.9-.2,1.25,0,.66,.31,1.29,2.28,1.29,.9,0,1.86-.11,2.7-.27l-.04,1.13c-.74,.1-1.67,.18-2.68,.18-2.19,0-3.33-.67-3.33-2.05,0-.53,.08-1.05,.21-1.64l1.05,.1Zm-.35-3.38c.73-.07,1.64-.11,2.54-.11,.8,0,1.65,.03,2.4,.11l-.03,1.06c-.7-.08-1.53-.17-2.34-.17-.87,0-1.71,.06-2.56,.15v-1.05Z"/><path class="cls-2" d="M117.11,24.41c3.25-2.59,5.55-4.78,5.55-6.57,0-1.2-.78-2.09-2.17-2.09-1.08,0-1.92,.6-2.73,1.51l-.81-.73c.97-1.11,2.14-1.85,3.6-1.85,2.03,0,3.39,1.18,3.39,3.12,0,2.07-2.12,4.17-4.75,6.33,.56-.04,1.09-.08,1.62-.08h3.63v1.09h-7.33v-.74Z"/><path class="cls-2" d="M130.92,19.97c0-3.52,1.56-5.27,3.8-5.27s3.8,1.75,3.8,5.27-1.55,5.35-3.8,5.35-3.8-1.83-3.8-5.35Zm6.33,0c0-3.05-1.06-4.23-2.54-4.23s-2.54,1.18-2.54,4.23,1.06,4.31,2.54,4.31,2.54-1.27,2.54-4.31Z"/><path class="cls-2" d="M147,21.93c-.22-.39-.8-1.16-1.27-1.74v6h-1.01v-6.19c-.57,1.41-1.32,2.82-2.03,3.67-.1-.29-.35-.7-.52-.95,.88-.98,1.85-2.79,2.41-4.38h-2.14v-.98h2.28v-2.13c-.69,.14-1.4,.25-2.05,.35-.06-.24-.2-.57-.32-.81,1.57-.25,3.4-.66,4.44-1.12l.71,.78c-.5,.21-1.12,.41-1.78,.56v2.37h1.75v.98h-1.75v.85c.43,.36,1.62,1.6,1.91,1.92l-.63,.83Zm7.34-1.39c-.92,3.08-2.97,4.8-6.58,5.66-.1-.29-.35-.7-.57-.94,3.4-.67,5.32-2.21,6.15-4.99l1.01,.27Zm-4.62-4.61c-.35,1.68-.92,3.35-1.62,4.44-.2-.15-.64-.39-.9-.5,.73-1.01,1.23-2.56,1.53-4.1l.99,.17Zm2.1,4.85c0,.55-.11,.84-.49,1.02-.35,.15-.91,.2-1.85,.18-.04-.27-.21-.71-.36-.98,.67,.01,1.26,.01,1.43,0,.18,0,.25-.06,.25-.24v-7.33h1.02v7.34Zm2.45-.76c-.21-1.11-.85-2.8-1.57-4.06l.88-.28c.76,1.25,1.41,2.9,1.64,4.02l-.95,.32Z"/><path class="cls-2" d="M158.1,15.86c.91-.08,3.53-.34,6.08-.56,1.51-.13,2.82-.2,3.74-.24v1.12c-.8,0-2,.01-2.72,.22-1.98,.63-3.17,2.75-3.17,4.38,0,2.7,2.52,3.56,4.78,3.64l-.41,1.18c-2.56-.11-5.49-1.48-5.49-4.58,0-2.16,1.3-3.92,2.58-4.68-1.22,.14-5,.5-6.5,.81l-.13-1.23c.53-.01,.97-.04,1.23-.07Zm9.01,3.96l-.71,.34c-.32-.67-.73-1.4-1.15-1.98l.71-.31c.32,.46,.85,1.33,1.15,1.95Zm1.6-.6l-.73,.34c-.34-.67-.74-1.36-1.19-1.95l.7-.32c.34,.46,.88,1.32,1.22,1.93Z"/><path class="cls-2" d="M177.39,14.28c0,2.48,.32,7.76,5.81,11.02-.24,.17-.66,.62-.84,.87-3.45-2.09-4.93-5.15-5.56-7.8-1.04,3.63-2.8,6.18-5.59,7.82-.2-.21-.66-.64-.94-.83,3.1-1.61,4.82-4.43,5.67-8.35l.62,.1c-.1-.64-.15-1.26-.18-1.79h-3.45v-1.04h4.45Z"/><path class="cls-2" d="M196.37,16.48s-.01,.39-.03,.55c-.31,5.74-.6,7.83-1.22,8.53-.32,.39-.66,.5-1.19,.56-.49,.04-1.39,.01-2.24-.04-.01-.31-.14-.76-.35-1.06,.95,.08,1.85,.1,2.2,.1,.29,0,.48-.04,.64-.21,.5-.48,.81-2.45,1.08-7.38h-4.78c-.2,2.9-1.12,6.29-5.18,8.77-.17-.25-.55-.66-.8-.83,3.8-2.26,4.69-5.32,4.9-7.94h-4.48v-1.04h4.54v-3.03h1.08v3.03h5.83Z"/><path class="cls-2" d="M209.41,25.03c.52,0,.62-.25,.66-1.85,.24,.15,.67,.32,.95,.41-.11,1.9-.42,2.4-1.53,2.4h-2.16c-1.27,0-1.61-.32-1.61-1.43v-3.54h-2.45c-.32,2.54-1.15,4.33-4.41,5.24-.11-.25-.39-.69-.62-.88,2.98-.74,3.67-2.24,3.92-4.36h-3.61v-.98h12.33v.98h-4.12v3.54c0,.39,.1,.48,.69,.48h1.96Zm-9.48-7.17h-1.05v-2.93h5.27v-1.48h1.08v1.48h5.32v2.93h-1.08v-1.95h-9.54v1.95Zm1.01,.57v-.97h7.55v.97h-7.55Z"/><path class="cls-2" d="M224.12,15.04c-1.22,1.46-3.14,3.07-4.85,4.05v5.79c0,.7-.2,1.02-.73,1.19-.53,.15-1.46,.15-2.89,.15-.04-.29-.25-.74-.42-1.04,1.15,.04,2.24,.04,2.55,.03,.31-.01,.41-.1,.41-.35v-6.68h.69c1.16-.7,2.38-1.72,3.26-2.63h-9.02v-1.02h9.96l.22-.07,.81,.59Z"/></g><g><path class="cls-2" d="M79.43,71.59c0-2.12,.83-4.01,2.41-5.65l.3,.23c-1.56,1.57-2.33,3.44-2.33,5.42s.77,3.85,2.33,5.42l-.3,.23c-1.58-1.64-2.41-3.53-2.41-5.65Z"/><path class="cls-2" d="M85.86,75.89c3.01-2.46,4.92-4.41,4.92-6.06,0-1.16-.71-2.12-2.19-2.12-1.02,0-1.86,.6-2.52,1.42l-.36-.26c.73-.86,1.61-1.56,2.9-1.56,1.64,0,2.63,1.01,2.63,2.53,0,1.83-2.06,3.91-4.65,5.97,.48-.02,.97-.05,1.45-.05h3.67v.4h-5.84v-.26Z"/><path class="cls-2" d="M103.94,73.6h-1.49v2.55h-.43v-2.55h-4.51v-.24l4.52-5.91h.42v5.77h1.49v.38Zm-1.92-.38v-3.8c0-.42,.01-.78,.04-1.33h-.05c-.32,.46-.56,.85-.88,1.26l-2.99,3.87h3.87Z"/><path class="cls-2" d="M110.86,74.59h-2.73v.9h-.36v-8.47h3.09v7.57Zm-2.73-7.21v3.21h2.39v-3.21h-2.39Zm2.39,6.86v-3.29h-2.39v3.29h2.39Zm5.89-3.77v1.7h1.64v.35h-1.64v3.85c0,.34-.11,.48-.38,.54-.28,.06-.84,.06-1.87,.06-.02-.08-.08-.23-.16-.35,.89,.02,1.58,.02,1.79,.01,.2-.01,.26-.07,.26-.26v-3.85h-4.88v-.35h4.88v-1.7h-4.98v-.35h3.33v-2h-2.72v-.35h2.72v-1.59h.36v1.59h2.79v.35h-2.79v2h3.45v.35h-1.81Zm-3.97,2.73c.67,.65,1.39,1.56,1.69,2.16l-.31,.23c-.3-.61-1-1.55-1.67-2.19l.29-.19Z"/><path class="cls-2" d="M120.28,70.65v6.37h-.36v-10.25h4.09v3.89h-3.73Zm0-3.54v1.39h3.38v-1.39h-3.38Zm3.38,3.19v-1.45h-3.38v1.45h3.38Zm3.18,5.58h-3.98v.61h-.35v-4.76h4.33v4.15Zm-3.98-3.79v1.49h3.63v-1.49h-3.63Zm3.63,3.44v-1.6h-3.63v1.6h3.63Zm3.06,.79c0,.37-.11,.54-.41,.61-.29,.06-.89,.06-1.86,.06-.02-.1-.1-.26-.16-.38,.84,.02,1.57,.01,1.79,0,.2-.01,.28-.07,.28-.29v-5.67h-3.83v-3.89h4.19v9.56Zm-3.84-9.21v1.39h3.48v-1.39h-3.48Zm3.48,3.19v-1.45h-3.48v1.45h3.48Z"/><path class="cls-2" d="M133.55,74.86l.29-.29c.66,.82,1.46,1.33,2.85,1.33,1.27,0,2.39-.77,2.39-2.04s-1.04-2.08-3.26-2.08v-.41c2.05,0,3-.96,3-1.93,0-1.02-.8-1.74-2.12-1.74-1.02,0-1.91,.43-2.55,1.14l-.29-.29c.74-.74,1.63-1.26,2.84-1.26,1.58,0,2.58,.86,2.58,2.1,0,1.09-.74,1.86-1.83,2.12v.05c1.2,.18,2.1,1.04,2.1,2.27,0,1.54-1.27,2.46-2.84,2.46s-2.51-.62-3.14-1.44Z"/><path class="cls-2" d="M151.22,68.55c-.6-.64-1.13-.84-1.95-.84-1.32,0-2.93,1.13-2.99,4.51,.77-.88,1.59-1.4,2.66-1.4,1.59,0,2.76,.9,2.76,2.63,0,1.86-1.26,2.85-2.65,2.85-1.78,0-3.23-1.14-3.23-3.89,0-3.85,1.86-5.1,3.44-5.1,1.13,0,1.76,.38,2.24,.94l-.29,.3Zm.02,4.89c0-1.44-.9-2.23-2.31-2.23-1,0-1.93,.58-2.64,1.57,.12,2.07,1.21,3.11,2.76,3.11,1.25,0,2.19-.88,2.19-2.45Z"/><path class="cls-2" d="M157.47,74.99l.29-.31c.64,.68,1.43,1.21,2.78,1.21s2.59-1.01,2.59-2.51c0-1.38-.95-2.37-2.47-2.37-.95,0-1.58,.2-2.23,.7l-.36-.19,.31-4.07h4.87v.4h-4.49l-.29,3.36c.62-.43,1.22-.6,2.18-.6,1.63,0,2.93,.95,2.93,2.76s-1.56,2.94-3.07,2.94-2.4-.65-3.05-1.31Z"/><path class="cls-2" d="M176.44,67.11v9.67h-.35v-.68h-6.64v.78h-.35v-9.76h7.34Zm-6.99,.35v3.93h6.64v-3.93h-6.64Zm6.64,8.29v-4.01h-6.64v4.01h6.64Z"/><path class="cls-2" d="M188.24,71.98c-.71,1.34-1.82,2.39-3.17,3.18,1.39,.78,3.05,1.31,4.88,1.57-.07,.08-.17,.23-.22,.34-1.86-.31-3.59-.88-5-1.72-1.51,.82-3.29,1.36-5.06,1.7-.05-.1-.13-.25-.2-.34,1.74-.3,3.45-.8,4.93-1.58-1.22-.78-2.22-1.76-2.89-2.96h-.65v-.35h7.05l.1-.02,.23,.18Zm-8.2-.02h-.35v-2.28h7.21c.48-.64,1.12-1.62,1.46-2.31l.31,.19c-.38,.68-.91,1.51-1.38,2.12h2.42v2.28h-.35v-1.93h-9.33v1.93Zm8.77-5.48c-2.11,.48-5.84,.82-8.9,.97-.01-.1-.05-.22-.08-.31,3.01-.17,6.79-.5,8.68-.95l.3,.29Zm-7.04,3.06c-.18-.48-.6-1.25-1-1.81l.3-.1c.42,.55,.84,1.3,1.01,1.77l-.31,.13Zm.14,2.64c.66,1.12,1.62,2.05,2.82,2.78,1.25-.72,2.29-1.62,2.96-2.78h-5.78Zm2.79-2.75c-.1-.52-.4-1.34-.72-1.97l.35-.07c.31,.62,.64,1.45,.72,1.95l-.35,.08Z"/><path class="cls-2" d="M194.92,66.38c-.4,1-.86,1.94-1.4,2.81v7.8h-.35v-7.24c-.5,.74-1.04,1.43-1.59,1.99-.06-.07-.19-.22-.28-.29,1.32-1.25,2.53-3.17,3.27-5.15l.35,.08Zm7.06,2.91h-1.7v6.99c0,.47-.17,.61-.5,.68-.35,.07-1.07,.07-2.35,.06-.04-.1-.11-.25-.17-.37,1.1,.04,2.04,.02,2.31,.01,.26-.02,.36-.1,.36-.37v-7h-5.16v-.35h5.16v-2.6h.35v2.6h1.7v.35Zm-4.29,4.94c-.41-.77-1.26-2.13-1.94-3.12l.29-.16c.71,1.01,1.56,2.33,1.97,3.06l-.31,.22Z"/><path class="cls-2" d="M213.38,68.4v5.27h-.35v-.77h-4.19v4.08h-.35v-4.08h-4.19v.83h-.35v-5.32h4.53v-2.21h.35v2.21h4.53Zm-4.88,4.15v-3.8h-4.19v3.8h4.19Zm4.53,0v-3.8h-4.19v3.8h4.19Z"/><path class="cls-2" d="M217.98,71.59c0,2.12-.83,4.01-2.41,5.65l-.3-.23c1.56-1.57,2.33-3.44,2.33-5.42s-.77-3.85-2.33-5.42l.3-.23c1.58,1.64,2.41,3.53,2.41,5.65Z"/></g><g><rect class="cls-2" x="15.23" y="18.5" width="49.86" height="1"/><rect class="cls-2" x="232.33" y="19" width="49.86" height="1"/></g></g></g></svg>