<?xml version="1.0" encoding="UTF-8"?>
<svg id="_レイヤー_1" data-name="レイヤー_1" xmlns="http://www.w3.org/2000/svg" version="1.1" viewBox="0 0 181.73 193.9">
  <!-- Generator: Adobe Illustrator 29.6.1, SVG Export Plug-In . SVG Version: 2.1.1 Build 9)  -->
  <defs>
    <style>
      .st0 {
        letter-spacing: -.03em;
      }

      .st0, .st1, .st2, .st3, .st4, .st5, .st6, .st7 {
        isolation: isolate;
      }

      .st0, .st1, .st3, .st4, .st5, .st6, .st7 {
        font-family: GenShinGothic-Bold, 'Gen Shin Gothic';
        font-size: 21px;
        font-weight: 700;
      }

      .st0, .st1, .st3, .st4, .st5, .st6, .st7, .st8 {
        fill: #fff;
      }

      .st9 {
        fill: #f76e11;
      }

      .st3 {
        letter-spacing: -.25em;
      }

      .st4 {
        letter-spacing: -.06em;
      }

      .st5 {
        letter-spacing: -.08em;
      }

      .st6 {
        letter-spacing: -.1em;
      }

      .st7 {
        letter-spacing: -.14em;
      }
    </style>
  </defs>
  <rect class="st9" width="181.73" height="193.9" rx="15.4" ry="15.4"/>
  <g>
    <path class="st8" d="M122.36,86.88h-62.99c-5.29,0-9.58,4.29-9.58,9.58v39.07c0,5.29,4.29,9.58,9.58,9.58h62.98c5.29,0,9.58-4.29,9.58-9.58v-39.07c0-5.29-4.29-9.58-9.58-9.58h0ZM127.37,138.11l-1.82,2.16-25.54-20.84-3.95,3.76c-2.93,2.69-7.44,2.69-10.37,0l-3.95-3.76-25.54,20.84-1.82-2.16,23.98-21.9-24.13-22.68,1.43-1.89,35.23,26.69,35.23-26.69,1.43,1.89-24.13,22.68,23.98,21.9h-.03Z"/>
    <path class="st8" d="M16.15,170.13c0-2.9,1.18-5.27,2.96-7.08l.89.46c-1.71,1.77-2.77,3.97-2.77,6.62s1.06,4.85,2.77,6.62l-.89.46c-1.79-1.81-2.96-4.18-2.96-7.08Z"/>
    <path class="st8" d="M21.34,174.98c3.42-2.99,5-5.16,5-7.04,0-1.25-.65-2.16-2.01-2.16-.89,0-1.67.55-2.26,1.26l-.79-.77c.89-.97,1.83-1.61,3.21-1.61,1.95,0,3.17,1.28,3.17,3.23,0,2.17-1.71,4.39-4.27,6.81.57-.04,1.23-.1,1.79-.1h3.02v1.18h-6.86v-.8Z"/>
    <path class="st8" d="M36.72,172.78h-1.44v3.01h-1.29v-3.01h-4.75v-.89l4.54-7.01h1.5v6.81h1.44v1.09ZM33.98,171.69v-3.35c0-.54.06-1.41.09-1.98h-.06c-.27.54-.57,1.07-.88,1.61l-2.48,3.72h3.33Z"/>
    <path class="st8" d="M46.31,174.01h-3.2v1.21h-1.01v-10.91h4.21v9.7ZM43.11,165.31v3.3h2.16v-3.3h-2.16ZM45.27,173.02v-3.44h-2.16v3.44h2.16ZM53.32,168.96v1.68h1.73v.98h-1.73v3.99c0,.62-.16.95-.61,1.12-.46.16-1.21.18-2.41.18-.04-.3-.19-.74-.36-1.03.92.03,1.74.03,1.98,0,.25,0,.33-.07.33-.3v-3.97h-5.62v-.98h5.62v-1.68h-5.7v-.98h3.73v-1.89h-3.09v-.98h3.09v-1.77h1.09v1.77h3.2v.98h-3.2v1.89h3.84v.98h-1.89ZM48.43,172.14c.76.74,1.59,1.8,1.93,2.53l-.94.59c-.34-.73-1.13-1.83-1.89-2.62l.89-.51h0Z"/>
    <path class="st8" d="M58.26,169.04v7.89h-1.1v-12.96h5.37v5.07h-4.27ZM58.26,164.83v1.23h3.21v-1.23h-3.21ZM61.47,168.19v-1.31h-3.21v1.31h3.21ZM61.43,175.54v.74h-1v-6.13h5.52v5.39h-4.52ZM61.43,171v1.38h3.5v-1.38s-3.5,0-3.5,0ZM64.93,174.66v-1.44h-3.5v1.44h3.5ZM69.36,175.45c0,.7-.16,1.07-.65,1.26-.48.18-1.26.19-2.5.19-.04-.31-.22-.83-.39-1.13.91.04,1.81.03,2.08,0,.25,0,.34-.09.34-.36v-6.38h-4.39v-5.09h5.5v11.49h.01v.02ZM64.91,164.83v1.23h3.33v-1.23h-3.33ZM68.24,168.21v-1.32h-3.33v1.32h3.33Z"/>
    <path class="st8" d="M74.8,174.49l.68-.89c.64.67,1.47,1.25,2.71,1.25s2.22-.77,2.22-2.02-.88-2.19-3.39-2.19v-1.04c2.25,0,3.02-.91,3.02-2.08,0-1.06-.71-1.73-1.84-1.76-.88.03-1.65.48-2.26,1.09l-.73-.86c.82-.76,1.79-1.31,3.05-1.31,1.83,0,3.17.98,3.17,2.74,0,1.32-.79,2.2-1.95,2.63v.06c1.29.3,2.32,1.28,2.32,2.77,0,1.95-1.56,3.11-3.5,3.11-1.71,0-2.78-.71-3.5-1.49h0Z"/>
    <path class="st8" d="M89.29,166.63c-.43-.52-1.09-.83-1.76-.83-1.49,0-2.75,1.15-2.81,4.54.67-.82,1.62-1.32,2.48-1.32,1.84,0,3.02,1.15,3.02,3.42,0,2.11-1.43,3.54-3.12,3.54-2.1,0-3.65-1.8-3.65-5.4,0-4.27,1.92-5.91,4.03-5.91,1.13,0,1.95.48,2.54,1.12l-.74.85h.01ZM88.95,172.43c0-1.47-.64-2.41-1.96-2.41-.68,0-1.52.39-2.23,1.4.16,2.26.98,3.5,2.35,3.5,1.04,0,1.84-1,1.84-2.48h0Z"/>
    <path class="st8" d="M91.29,174.53l.67-.89c.62.62,1.41,1.21,2.68,1.21s2.32-.98,2.32-2.57-.89-2.48-2.26-2.48c-.73,0-1.19.22-1.81.64l-.73-.45.34-5.1h5.31v1.16h-4.12l-.27,3.15c.48-.27.97-.43,1.62-.43,1.82,0,3.29,1.07,3.29,3.47s-1.73,3.75-3.57,3.75c-1.7,0-2.74-.71-3.47-1.44v-.02Z"/>
    <path class="st8" d="M115.18,164.36v12.33h-1.16v-.91h-7.38v.97h-1.12v-12.39h9.66ZM106.64,165.45v4.02h7.38v-4.02h-7.38ZM114.02,174.7v-4.15h-7.38v4.15h7.38Z"/>
    <path class="st8" d="M129.68,170.68c-.77,1.58-1.95,2.8-3.41,3.73,1.58.71,3.44,1.19,5.5,1.44-.24.24-.54.73-.67,1.03-2.25-.31-4.24-.92-5.94-1.84-1.79.92-3.85,1.5-6,1.84-.12-.27-.43-.76-.65-.98,2.02-.28,3.96-.74,5.59-1.49-1.22-.83-2.25-1.86-3.01-3.06l.15-.06h-.64v-1.03h8.11l.22-.04.73.46h.02ZM119.88,170.62h-1.04v-3.02h2.37c-.18-.54-.59-1.35-.98-1.96l.95-.27c.43.61.88,1.41,1.06,1.95l-.88.28h6.47c.49-.74,1.06-1.77,1.38-2.53l1.12.34c-.4.73-.92,1.53-1.37,2.19h2.54v3.02h-1.09v-2.04h-10.53v2.04ZM130.67,164.18c-2.98.62-7.57,1-11.43,1.15-.01-.28-.15-.68-.25-.94,3.81-.16,8.36-.55,10.91-1.1l.77.89ZM122.29,171.29c.71,1.03,1.71,1.87,2.92,2.56,1.16-.67,2.14-1.5,2.83-2.56h-5.75ZM124.89,167.51c-.09-.58-.4-1.5-.74-2.19l1-.22c.36.68.68,1.59.79,2.16l-1.04.25h-.01Z"/>
    <path class="st8" d="M138.08,163.78c-.45,1.12-.97,2.22-1.58,3.24v9.86h-1.1v-8.15c-.48.67-1,1.28-1.5,1.8-.13-.25-.48-.83-.68-1.09,1.52-1.44,2.93-3.7,3.78-6.01l1.09.34h0ZM146.72,167.74h-1.87v7.68c0,.83-.24,1.18-.79,1.34-.58.18-1.58.19-3.18.18-.06-.28-.27-.79-.43-1.09,1.25.04,2.47.04,2.83.03.33-.03.46-.12.46-.46v-7.68h-6v-1.1h6v-3.12h1.12v3.12h1.87v1.1h-.01ZM140.83,173.45c-.45-.92-1.4-2.51-2.16-3.7l.95-.45c.77,1.15,1.76,2.69,2.23,3.6l-1.03.55h.01Z"/>
    <path class="st8" d="M160.84,165.98v6.96h-1.13v-.85h-4.27v4.82h-1.15v-4.82h-4.25v.92h-1.09v-7.04h5.34v-2.65h1.15v2.65h5.4ZM154.29,171.01v-3.94h-4.25v3.94h4.25ZM159.71,171.01v-3.94h-4.27v3.94h4.27Z"/>
    <path class="st8" d="M166.88,170.13c0,2.9-1.18,5.27-2.96,7.08l-.89-.46c1.71-1.77,2.77-3.97,2.77-6.62s-1.06-4.85-2.77-6.62l.89-.46c1.79,1.81,2.96,4.18,2.96,7.08Z"/>
    <g class="st2">
      <text class="st1" transform="translate(20.21 39.5)"><tspan x="0" y="0">無料相</tspan></text>
      <text class="st3" transform="translate(86.21 39.5)"><tspan x="0" y="0">談・</tspan></text>
      <text class="st1" transform="translate(119.21 39.5)"><tspan x="0" y="0">査定</tspan></text>
      <text class="st4" transform="translate(10.01 65.9)"><tspan x="0" y="0">申し</tspan></text>
      <text class="st1" transform="translate(51.33 65.9)"><tspan x="0" y="0">込</tspan></text>
      <text class="st5" transform="translate(73.33 65.9)"><tspan x="0" y="0">み</tspan></text>
      <text class="st7" transform="translate(93.55 65.9)"><tspan x="0" y="0">フ</tspan></text>
      <text class="st6" transform="translate(112.53 65.9)"><tspan x="0" y="0">ォ</tspan></text>
      <text class="st6" transform="translate(132.27 65.9)"><tspan x="0" y="0">ー</tspan></text>
      <text class="st0" transform="translate(152.13 65.9)"><tspan x="0" y="0">ム</tspan></text>
    </g>
  </g>
</svg>