<?xml version="1.0" encoding="UTF-8"?><svg id="_レイヤー_2" xmlns="http://www.w3.org/2000/svg" viewBox="0 0 297.42 88.32"><defs><style>.cls-1{fill:#fff;}.cls-2{fill:#5ec263;}</style></defs><g id="_レイヤー_1-2"><g><rect class="cls-2" width="297.42" height="88.32" rx="6.18" ry="6.18"/><g><path class="cls-1" d="M83.19,39.59c0-14.48-14.52-26.26-32.36-26.26S18.47,25.11,18.47,39.59c0,12.98,11.51,23.85,27.06,25.91,1.05,.23,2.49,.69,2.85,1.6,.33,.82,.21,2.1,.1,2.93,0,0-.38,2.28-.46,2.77-.14,.82-.65,3.2,2.8,1.74,3.45-1.46,18.64-10.97,25.43-18.79h0c4.69-5.14,6.94-10.36,6.94-16.16Z"/><g><path class="cls-2" d="M72.42,47.95h-9.09c-.34,0-.62-.28-.62-.62h0v-14.11h0c0-.36,.28-.63,.62-.63h9.09c.34,0,.62,.28,.62,.62v2.29c0,.34-.28,.62-.62,.62h-6.18v2.38h6.18c.34,0,.62,.28,.62,.62v2.29c0,.34-.28,.62-.62,.62h-6.18v2.38h6.18c.34,0,.62,.28,.62,.62v2.3c0,.34-.28,.62-.62,.62Z"/><path class="cls-2" d="M38.79,47.95c.34,0,.62-.28,.62-.62v-2.3c0-.34-.28-.62-.62-.62h-6.18v-11.21c0-.34-.28-.62-.62-.62h-2.3c-.34,0-.62,.28-.62,.62v14.11h0c0,.35,.28,.63,.62,.63h9.09Z"/><rect class="cls-2" x="41.35" y="32.59" width="3.53" height="15.36" rx=".62" ry=".62"/><path class="cls-2" d="M59.89,32.59h-2.3c-.34,0-.62,.28-.62,.62v8.39l-6.46-8.73s-.03-.04-.05-.06c0,0,0,0,0,0-.01-.01-.02-.03-.04-.04,0,0,0,0-.01-.01-.01,0-.02-.02-.03-.03,0,0-.01,0-.02-.01-.01,0-.02-.02-.03-.02,0,0-.01,0-.02-.01-.01,0-.02-.01-.03-.02,0,0-.01,0-.02,0-.01,0-.02-.01-.04-.02,0,0-.01,0-.02,0-.01,0-.02,0-.04-.01,0,0-.01,0-.02,0-.01,0-.02,0-.04,0,0,0-.02,0-.03,0-.01,0-.02,0-.03,0-.01,0-.02,0-.03,0,0,0-.01,0-.02,0h-2.28c-.34,0-.62,.28-.62,.62v14.12c0,.34,.28,.62,.62,.62h2.3c.34,0,.62-.28,.62-.62v-8.39l6.47,8.74c.04,.06,.1,.11,.16,.16,0,0,0,0,0,0,.01,0,.03,.02,.04,.02,0,0,.01,0,.02,0,0,0,.02,0,.03,.01,.01,0,.02,0,.03,.01,0,0,.01,0,.02,0,.01,0,.03,0,.04,.01,0,0,0,0,0,0,.05,.01,.11,.02,.16,.02h2.28c.34,0,.62-.28,.62-.62v-14.12c0-.34-.28-.62-.62-.62Z"/></g></g><g><path class="cls-1" d="M117.02,42.29v.87h-12.49v-.87h4.31v-2.75h-3.53v-.87h2.63c-.21-.42-.56-.97-.91-1.36l.9-.35c.45,.45,.88,1.08,1.06,1.54l-.39,.17h4.29l-.48-.17c.32-.42,.76-1.09,1-1.54l1.02,.32c-.32,.5-.69,1.01-1.01,1.39h2.9v.87h-3.75v2.75h4.46Zm-10.17-2.55c.52,.63,.98,1.53,1.18,2.13l-.93,.36c-.15-.6-.62-1.51-1.09-2.17l.84-.32Zm-.27,4.27h8.42v5.69h-1.09v-.42h-6.28v.48h-1.05v-5.74Zm1.05,.83v1.37h6.28v-1.37h-6.28Zm6.28,3.6v-1.41h-6.28v1.41h6.28Zm-4.1-6.15h1.79v-2.75h-1.79v2.75Zm3.56-.38c.42-.6,.97-1.57,1.25-2.24l.94,.32c-.42,.77-.97,1.64-1.39,2.2l-.8-.28Z"/><path class="cls-1" d="M120.4,47.37v2.38h-.98v-2.2l-.97,.17-.18-1.01,1.15-.18v-8.5l.56,.2c1.25-.34,2.55-.8,3.31-1.23l.9,.74c-1.04,.5-2.46,.94-3.78,1.26v1.61h3.22v.95h-3.22v1.71h3.33v.97h-3.33v2.13c1.15-.18,2.44-.41,3.7-.63l.06,.97-3.75,.67Zm10.14-3.99c-.49,1.65-1.3,2.96-2.34,3.96,.85,.69,1.88,1.19,3.07,1.51-.25,.2-.55,.62-.69,.9-1.22-.38-2.28-.95-3.17-1.72-1.06,.8-2.28,1.37-3.6,1.77-.11-.27-.37-.69-.57-.91,1.25-.32,2.44-.84,3.43-1.58-.76-.84-1.35-1.86-1.78-3.01l.69-.18h-1.26v-.95h5.37l.2-.04,.66,.27Zm-4.45-3.81c0,1.13-.28,2.51-1.68,3.39-.13-.2-.5-.57-.7-.71,1.25-.77,1.42-1.78,1.42-2.7v-1.98h4.13v3.43c0,.27,.01,.41,.08,.46,.06,.04,.13,.06,.22,.06h.41c.11,0,.24-.01,.29-.04,.07-.04,.12-.14,.15-.31,.04-.21,.05-.63,.07-1.19,.17,.15,.52,.32,.78,.39-.03,.55-.07,1.18-.14,1.4-.08,.24-.22,.38-.42,.46-.15,.1-.43,.14-.66,.14h-.71c-.25,0-.59-.07-.77-.25-.2-.17-.28-.41-.28-1.18v-2.45h-2.2v1.08Zm-.27,4.54c.38,.97,.92,1.84,1.62,2.56,.74-.71,1.35-1.55,1.77-2.56h-3.39Z"/><path class="cls-1" d="M143.12,38.51c-.14,.27-.35,.73-.46,1.02-.45,1.23-1.16,2.77-2.1,4.13,1.25,1.04,2.45,2.13,3.45,3.19l-.88,.98c-1.04-1.19-2.1-2.19-3.31-3.22-1.3,1.6-3.04,3.26-5.48,4.52l-.99-.88c2.45-1.16,4.19-2.7,5.56-4.4-1.04-.85-2.59-2-3.94-2.83l.74-.88c1.19,.76,2.81,1.9,3.92,2.76,.9-1.3,1.47-2.62,1.89-3.81,.1-.28,.22-.73,.28-1.04l1.32,.45Z"/><path class="cls-1" d="M147.18,42.64c.42,.03,1.16,.07,1.95,.07h7.68c.7,0,1.21-.04,1.51-.07v1.37c-.28-.01-.87-.07-1.5-.07h-7.69c-.77,0-1.51,.03-1.95,.07v-1.37Z"/><path class="cls-1" d="M160.68,48.34c1.18-.84,2.02-2.09,2.44-3.45,.41-1.29,.42-4.08,.42-5.63,0-.42-.04-.73-.1-1.02h1.29c-.01,.17-.07,.59-.07,1.01,0,1.55-.06,4.55-.43,5.95-.42,1.5-1.32,2.87-2.49,3.84l-1.05-.7Zm6.42,.07c.06-.22,.1-.5,.1-.78v-8.39c0-.53-.07-.92-.08-1.04h1.29c-.01,.11-.06,.5-.06,1.04v8.08c1.29-.59,3.01-1.86,4.08-3.45l.67,.95c-1.21,1.64-3.15,3.07-4.78,3.88-.21,.11-.34,.21-.48,.32l-.74-.62Z"/><path class="cls-1" d="M180.97,46.81c.04-.53,.05-1.43,.05-2.16-1.29,.7-2.18,1.42-2.18,2.33,0,1.09,1.08,1.25,2.51,1.25,1.08,0,2.56-.13,3.78-.34l-.03,1.13c-1.05,.13-2.59,.22-3.79,.22-1.99,0-3.59-.42-3.59-2.12s1.65-2.68,3.26-3.52c-.14-.57-.64-.85-1.25-.85-.91,0-1.75,.45-2.4,1.02-.39,.38-.78,.9-1.26,1.46l-.95-.71c1.77-1.71,2.68-3.14,3.19-4.23h-.57c-.59,0-1.53-.03-2.28-.08v-1.05c.74,.08,1.71,.14,2.34,.14,.29,0,.59,0,.91-.01,.2-.62,.32-1.25,.35-1.72l1.15,.1c-.1,.39-.22,.97-.42,1.6,1.42-.07,2.93-.2,4.24-.42v1.04c-1.39,.21-3.1,.34-4.61,.39-.31,.71-.74,1.48-1.25,2.13,.5-.32,1.3-.52,1.92-.52,.9,0,1.62,.43,1.84,1.26,.95-.45,1.79-.78,2.52-1.12,.42-.18,.76-.35,1.15-.55l.45,1.05c-.35,.1-.85,.29-1.22,.43-.78,.31-1.78,.71-2.83,1.2,.02,.8,.03,1.98,.04,2.65h-1.08Z"/><path class="cls-1" d="M192.64,37.26c-.39,.98-.9,1.98-1.44,2.91v9.67h-1v-8.17c-.49,.69-1.02,1.3-1.54,1.82-.1-.24-.39-.77-.59-1.01,1.42-1.33,2.77-3.42,3.59-5.53l.98,.31Zm4.44,7.44c-.11,.97-.37,1.88-.93,2.69,1.4,.77,3.17,1.25,5.16,1.48-.22,.22-.48,.63-.62,.94-1.97-.29-3.73-.84-5.15-1.69-.7,.69-1.71,1.27-3.17,1.71-.11-.22-.41-.66-.63-.85,1.37-.35,2.31-.84,2.96-1.41-.83-.63-1.51-1.39-2.03-2.28l.87-.28c.42,.73,1.02,1.34,1.77,1.86,.45-.66,.66-1.39,.76-2.16h-3.39v-3.84h3.46v-1.37h-3.87v-.95h3.87v-1.5h1.02v1.5h4.03v.95h-4.03v1.37h3.57v3.84h-3.64Zm-.97-.88c.01-.21,.01-.42,.01-.63v-1.44h-2.49v2.07h2.48Zm1.04-2.07v1.44c0,.21,0,.42-.02,.63h2.59v-2.07h-2.58Z"/><path class="cls-1" d="M207.34,40.22c-.17,.25-.41,.63-.62,.97-.03,.28-.04,.59-.07,.88,1.53-1.25,3.08-1.72,4.4-1.72,1.93,0,3.64,1.34,3.66,3.5,.01,2.79-2.03,4.27-5.06,4.85l-.5-1.05c2.34-.35,4.44-1.43,4.43-3.82,0-1.06-.84-2.45-2.68-2.45-1.6,0-3.07,.8-4.33,1.99-.03,.57-.04,1.13-.04,1.62,0,1.26,0,2.1,.06,3.35,.01,.24,.04,.59,.07,.84h-1.22c.02-.2,.04-.6,.04-.83,.01-1.33,.01-2.02,.04-3.56,0-.14,.02-.32,.02-.53-.67,1.02-1.58,2.35-2.26,3.28l-.7-.97c.77-.97,2.37-3.12,3.07-4.22,.03-.45,.06-.9,.08-1.33-.63,.07-1.83,.24-2.7,.35l-.11-1.16c.31,.01,.57,.01,.91-.01,.45-.03,1.26-.11,1.97-.22,.04-.66,.07-1.15,.07-1.3,0-.32,.01-.69-.06-1.04l1.33,.04c-.07,.34-.18,1.12-.28,2.09l.07-.03,.41,.49Z"/><path class="cls-1" d="M223.74,40.3c-.73,.21-1.6,.39-2.51,.5-.69,1.96-1.92,4.37-3.03,5.87l-1.09-.56c1.16-1.34,2.34-3.56,2.97-5.18-.41,.03-.81,.04-1.22,.04-.52,0-1.09-.01-1.61-.04l-.08-1.05c.52,.07,1.11,.1,1.71,.1,.49,0,1.01-.03,1.54-.07,.21-.77,.41-1.65,.44-2.4l1.25,.11c-.14,.5-.32,1.34-.55,2.14,.73-.11,1.46-.28,2.16-.5l.03,1.04Zm1.62,1.61c-.04,.57-.03,.98-.01,1.5,.01,.5,.07,1.42,.1,2.26,1.19,.43,2.16,1.12,2.87,1.74l-.6,.95c-.59-.53-1.33-1.15-2.23-1.58,.01,.21,.01,.41,.01,.56,0,1.11-.73,2.02-2.44,2.02-1.53,0-2.77-.63-2.77-2,0-1.27,1.21-2.1,2.77-2.1,.46,0,.91,.04,1.32,.13-.04-1.13-.11-2.49-.14-3.46h1.12Zm-.94,4.44c-.44-.13-.91-.2-1.4-.2-1.02,0-1.69,.46-1.69,1.09s.52,1.08,1.6,1.08c1.13,0,1.51-.63,1.51-1.32,0-.18,0-.41-.01-.66Zm3.7-4.06c-.74-.63-2.24-1.48-3.17-1.9l.55-.87c1.01,.45,2.59,1.34,3.25,1.85l-.63,.92Z"/><path class="cls-1" d="M232.81,40.3c-.01,.87,0,2.14,.1,3.28,.22,2.33,.9,3.85,1.88,3.85,.71,0,1.36-1.43,1.72-2.83l.88,1.01c-.83,2.35-1.68,3.15-2.63,3.15-1.3,0-2.56-1.3-2.94-4.9-.14-1.2-.15-2.89-.15-3.7,0-.32-.02-.9-.08-1.23l1.34,.03c-.06,.34-.1,.98-.11,1.34Zm9.78,5.83l-1.13,.45c-.24-2.49-1.08-5.24-2.4-6.86l1.09-.38c1.25,1.61,2.24,4.45,2.44,6.79Z"/><path class="cls-1" d="M249.96,40.38c-.04,.76-.1,1.53-.21,2.3h5.57s-.01,.34-.03,.5c-.28,3.99-.56,5.53-1.11,6.09-.32,.34-.66,.43-1.19,.46-.49,.03-1.4,.01-2.34-.04-.03-.29-.17-.73-.36-1.01,.99,.1,1.99,.1,2.34,.1,.32,0,.52-.01,.66-.15,.42-.36,.69-1.74,.93-4.97h-4.62c-.49,2.48-1.61,4.79-4.46,6.16-.15-.27-.48-.64-.74-.85,3.87-1.74,4.27-5.36,4.44-8.59h-4.3v-.99h5.64v-2.44h1.05v2.44h5.74v.99h-7.02Z"/><path class="cls-1" d="M261.37,38.04c-.08,.22-.2,.69-.24,.94-.28,1.29-.69,4.03-.69,5.59,0,.67,.03,1.22,.13,1.89,.22-.63,.55-1.46,.78-2.02l.59,.46c-.35,.97-.84,2.38-.98,3.07-.04,.18-.08,.45-.07,.62,0,.14,.03,.34,.04,.48l-.99,.08c-.28-.99-.53-2.52-.53-4.4,0-2.03,.46-4.68,.63-5.83,.06-.32,.1-.69,.1-.98l1.23,.1Zm9.02,10.1c-.69-.64-1.37-1.19-2.09-1.58v.25c0,1.15-.53,2.27-2.41,2.27s-2.88-.77-2.88-2c0-1.16,1.04-2.12,2.86-2.12,.46,0,.9,.04,1.29,.13-.04-1.06-.13-2.4-.14-3.54-.45,.01-.88,.03-1.33,.03-.79,0-1.51-.04-2.33-.08v-1.06c.79,.08,1.54,.13,2.35,.13,.43,0,.87-.01,1.3-.03v-1.72c0-.24-.03-.6-.07-.84h1.28c-.04,.27-.07,.55-.08,.83-.02,.38-.03,1.02-.04,1.67,.84-.06,1.65-.17,2.39-.32v1.09c-.76,.13-1.57,.21-2.39,.27,.01,1.39,.11,2.77,.17,3.94,1.12,.45,2,1.16,2.73,1.81l-.6,.91Zm-3.19-2.06c-.45-.15-.92-.22-1.41-.22-1.04,0-1.75,.46-1.75,1.11,0,.69,.67,1.08,1.67,1.08,1.18,0,1.51-.57,1.51-1.5,0-.13,0-.29-.01-.46Z"/><path class="cls-1" d="M107.65,65.49c-.17,.56-.28,1.06-.28,1.58,0,1.04,1.07,1.76,3.28,1.76,1.92,0,3.7-.21,4.75-.53v1.2c-.98,.27-2.75,.48-4.72,.48-2.82,0-4.45-.92-4.45-2.66,0-.73,.15-1.37,.28-1.95l1.15,.11Zm-.57-5.6c1.01,.13,2.28,.18,3.67,.18s2.75-.1,3.74-.2v1.15c-.94,.07-2.46,.17-3.74,.17-1.39,0-2.56-.06-3.67-.15v-1.15Z"/><path class="cls-1" d="M128.71,61.15c-1.62,.29-3.84,.52-5.62,.59-.25,1.16-.57,2.48-.87,3.28,1.21-.85,2.34-1.2,3.88-1.2,2.21,0,3.5,1.13,3.5,2.76,0,2.89-2.94,3.98-7.14,3.52l-.31-1.11c3.19,.45,6.3-.11,6.3-2.38,0-1.04-.84-1.82-2.47-1.82s-3.18,.55-4.09,1.65c-.18,.21-.31,.39-.43,.64l-1.04-.38c.7-1.37,1.26-3.36,1.61-4.93h-.01c-.94,0-1.84-.06-2.63-.13v-1.11c.71,.13,1.78,.24,2.62,.24h.22c.07-.36,.11-.67,.14-.91,.07-.45,.08-.77,.07-1.15l1.25,.07c-.1,.36-.18,.8-.25,1.16-.04,.21-.08,.49-.15,.8,1.67-.07,3.71-.29,5.41-.67v1.08Z"/><path class="cls-1" d="M135.62,65.15c1.33-1.16,2.83-1.67,4.48-1.67,2.13,0,3.54,1.27,3.54,2.9,0,2.49-2.2,4.17-7.35,3.74l-.34-1.15c4.37,.53,6.51-.73,6.51-2.62,0-1.11-1.02-1.88-2.44-1.88-1.85,0-3.31,.67-4.29,1.83-.2,.24-.32,.48-.42,.7l-1.05-.25c.28-1.26,.62-4.17,.7-5.63l1.19,.15c-.18,.95-.42,2.97-.55,3.87Zm.85-6.39c1.19,.38,4.13,.95,5.37,1.06l-.27,1.09c-1.32-.18-4.33-.8-5.39-1.09l.29-1.06Z"/><path class="cls-1" d="M151.72,58.86c-.06,.27-.13,.55-.17,.83-.08,.41-.21,1.22-.36,1.96,.64-.06,1.22-.1,1.55-.1,1.25,0,2.26,.49,2.26,2.37,0,1.65-.22,3.84-.8,5-.45,.92-1.13,1.15-2.03,1.15-.53,0-1.19-.1-1.64-.2l-.18-1.19c.59,.2,1.32,.31,1.71,.31,.5,0,.91-.11,1.2-.71,.45-.92,.66-2.73,.66-4.23,0-1.26-.57-1.48-1.47-1.48-.34,0-.88,.04-1.49,.1-.5,1.99-1.46,5.11-2.91,7.44l-1.13-.46c1.42-1.89,2.44-5.02,2.91-6.86-.73,.07-1.39,.14-1.75,.18-.34,.04-.9,.1-1.25,.17l-.11-1.22c.43,.01,.79,.01,1.23,0,.46-.01,1.26-.08,2.1-.15,.2-.99,.36-2.07,.35-3.01l1.32,.13Zm4.76,1.58c.87,1.12,2.07,3.64,2.54,4.93l-1.08,.53c-.42-1.43-1.51-3.85-2.48-4.99l1.02-.48Zm.57,.22c-.28-.56-.76-1.42-1.13-1.95l.74-.31c.35,.49,.87,1.36,1.16,1.92l-.77,.34Zm1.58-.57c-.31-.6-.77-1.4-1.16-1.93l.74-.31c.37,.5,.91,1.39,1.18,1.91l-.76,.34Z"/><path class="cls-1" d="M171.73,61.59c-.04,.24-.07,.5-.07,.69-.05,1.34-.22,5.42-.85,6.77-.28,.59-.73,.84-1.5,.84-.71,0-1.53-.04-2.25-.08l-.14-1.16c.76,.1,1.5,.15,2.09,.15,.41,0,.66-.11,.81-.46,.53-1.06,.71-4.51,.71-6.01h-3.92c-.5,4.02-1.96,6.15-4.3,7.76l-1.01-.83c.43-.24,1.01-.63,1.43-1.04,1.39-1.26,2.39-3.01,2.77-5.9h-2.35c-.56,0-1.12,0-1.61,.06v-1.19c.49,.06,1.06,.08,1.6,.08h2.46c.03-.45,.06-.92,.06-1.43,0-.31-.04-.83-.1-1.16h1.32c-.04,.32-.07,.81-.08,1.15-.01,.5-.04,.98-.07,1.44h3.33c.38,0,.66-.03,.9-.07l.78,.39Z"/><path class="cls-1" d="M181.33,66.78c2.16-1.36,3.87-3.43,4.68-5.15l.67,1.19c-.97,1.75-2.59,3.66-4.71,4.97-1.4,.9-3.17,1.75-5.5,2.19l-.74-1.15c2.45-.36,4.27-1.22,5.6-2.05Zm-.83-4.44l-.88,.88c-.7-.73-2.45-2.23-3.49-2.93l.8-.85c.99,.66,2.79,2.12,3.57,2.9Z"/><path class="cls-1" d="M199.97,60.73c-.11,.2-.24,.53-.32,.76-.35,1.23-1.06,2.79-2.04,4.16,.53,.34,1.01,.66,1.36,.91l-.77,1.01c-.34-.27-.8-.6-1.33-.97-1.26,1.44-3.03,2.82-5.49,3.73l-1.01-.87c2.44-.74,4.26-2.09,5.53-3.49-1.11-.71-2.28-1.41-3.07-1.85l.71-.83c.81,.42,1.99,1.09,3.08,1.75,.86-1.19,1.54-2.63,1.81-3.74h-4.76c-.9,1.25-2.14,2.62-3.71,3.68l-.94-.73c2.41-1.48,3.87-3.59,4.5-4.86,.14-.25,.35-.76,.45-1.12l1.26,.41c-.22,.36-.48,.84-.62,1.11-.08,.17-.18,.34-.29,.52h3.82c.38,0,.69-.04,.92-.14l.91,.56Z"/><path class="cls-1" d="M209.33,66.78c2.16-1.36,3.87-3.43,4.68-5.15l.67,1.19c-.97,1.75-2.59,3.66-4.71,4.97-1.4,.9-3.17,1.75-5.5,2.19l-.74-1.15c2.45-.36,4.27-1.22,5.6-2.05Zm-.83-4.44l-.88,.88c-.7-.73-2.45-2.23-3.49-2.93l.8-.85c.99,.66,2.79,2.12,3.57,2.9Z"/><path class="cls-1" d="M218.15,60.42c.91-.08,3.53-.34,6.08-.56,1.51-.13,2.82-.2,3.74-.24v1.12c-.8,0-2,.01-2.72,.22-1.97,.63-3.17,2.75-3.17,4.38,0,2.7,2.52,3.56,4.78,3.64l-.41,1.18c-2.56-.11-5.49-1.48-5.49-4.58,0-2.16,1.3-3.92,2.58-4.68-1.22,.14-5,.5-6.5,.81l-.12-1.23c.53-.01,.96-.04,1.23-.07Zm9.01,3.96l-.71,.34c-.32-.67-.73-1.4-1.15-1.98l.71-.31c.32,.46,.86,1.33,1.15,1.95Zm1.6-.6l-.73,.34c-.34-.67-.74-1.36-1.19-1.95l.7-.32c.34,.46,.88,1.32,1.22,1.93Z"/><path class="cls-1" d="M238.44,61.41c0,.78,.01,1.64,.03,2.27,.29,.48,.45,1.09,.45,1.78,0,1.88-.91,3.96-4.13,4.93l-.97-.94c1.82-.42,3.11-1.18,3.68-2.41-.34,.24-.73,.35-1.19,.35-1.18,0-2.3-.83-2.3-2.33,0-1.37,1.13-2.42,2.45-2.42,.34,0,.64,.06,.92,.15,0-.41,0-.9-.01-1.37-2.1,.01-4.46,.11-6.19,.24l-.03-1.09c1.54-.03,4.15-.11,6.21-.14,0-.39-.02-.71-.03-.91-.01-.29-.05-.7-.08-.87h1.28l-.07,.87c0,.21-.01,.53-.01,.9h.21c1.68,0,3.39,.01,4.06,.01v1.05c-.8-.04-2.06-.07-4.09-.07h-.18Zm-.74,3.04c-.22-.6-.69-.85-1.23-.85-.71,0-1.4,.56-1.4,1.46s.64,1.37,1.42,1.37c.81,0,1.34-.66,1.22-1.98Z"/><path class="cls-1" d="M249.64,68.67c0-.66,.51-1.09,1.12-1.09s1.12,.43,1.12,1.09-.5,1.11-1.12,1.11-1.12-.42-1.12-1.11Zm.32-7.79l-.04-1.65h1.68l-.03,1.65-.35,5.44h-.92l-.34-5.44Z"/></g><g><path class="cls-1" d="M106.47,22.59c0-2.12,.83-4.01,2.41-5.65l.3,.23c-1.56,1.57-2.33,3.44-2.33,5.42s.77,3.85,2.33,5.42l-.3,.23c-1.58-1.64-2.41-3.53-2.41-5.65Z"/><path class="cls-1" d="M112.91,26.89c3.01-2.46,4.92-4.41,4.92-6.06,0-1.16-.71-2.12-2.2-2.12-1.02,0-1.86,.6-2.52,1.42l-.36-.26c.73-.86,1.61-1.56,2.9-1.56,1.64,0,2.63,1.01,2.63,2.53,0,1.83-2.06,3.91-4.65,5.97,.48-.02,.97-.05,1.45-.05h3.67v.4h-5.84v-.26Z"/><path class="cls-1" d="M130.99,24.6h-1.49v2.55h-.43v-2.55h-4.51v-.24l4.52-5.91h.42v5.77h1.49v.38Zm-1.92-.38v-3.8c0-.42,.01-.78,.04-1.33h-.05c-.32,.46-.56,.85-.88,1.26l-2.99,3.87h3.87Z"/><path class="cls-1" d="M137.9,25.59h-2.73v.9h-.36v-8.47h3.09v7.57Zm-2.73-7.21v3.21h2.39v-3.21h-2.39Zm2.39,6.86v-3.29h-2.39v3.29h2.39Zm5.89-3.77v1.7h1.64v.35h-1.64v3.85c0,.34-.11,.48-.38,.54-.28,.06-.84,.06-1.87,.06-.02-.08-.08-.23-.16-.35,.89,.02,1.58,.02,1.79,.01s.26-.07,.26-.26v-3.85h-4.88v-.35h4.88v-1.7h-4.98v-.35h3.33v-2h-2.72v-.35h2.72v-1.59h.36v1.59h2.79v.35h-2.79v2h3.45v.35h-1.81Zm-3.97,2.73c.67,.65,1.39,1.56,1.69,2.16l-.31,.23c-.3-.61-1-1.55-1.67-2.19l.29-.19Z"/><path class="cls-1" d="M147.33,21.65v6.37h-.36v-10.25h4.09v3.89h-3.73Zm0-3.54v1.39h3.38v-1.39h-3.38Zm3.38,3.19v-1.45h-3.38v1.45h3.38Zm3.18,5.58h-3.98v.61h-.35v-4.76h4.33v4.15Zm-3.98-3.79v1.49h3.63v-1.49h-3.63Zm3.63,3.44v-1.6h-3.63v1.6h3.63Zm3.06,.79c0,.37-.11,.54-.41,.61-.29,.06-.89,.06-1.86,.06-.02-.1-.1-.26-.16-.38,.84,.02,1.57,.01,1.79,0,.2-.01,.28-.07,.28-.29v-5.67h-3.83v-3.89h4.19v9.56Zm-3.84-9.21v1.39h3.48v-1.39h-3.48Zm3.48,3.19v-1.45h-3.48v1.45h3.48Z"/><path class="cls-1" d="M160.6,25.86l.29-.29c.66,.82,1.46,1.33,2.85,1.33,1.27,0,2.39-.77,2.39-2.04s-1.04-2.08-3.26-2.08v-.41c2.05,0,3-.96,3-1.93,0-1.02-.8-1.74-2.12-1.74-1.02,0-1.91,.43-2.55,1.14l-.29-.29c.74-.74,1.63-1.26,2.84-1.26,1.58,0,2.58,.86,2.58,2.1,0,1.09-.74,1.86-1.84,2.12v.05c1.2,.18,2.1,1.04,2.1,2.27,0,1.54-1.27,2.46-2.84,2.46s-2.51-.62-3.14-1.44Z"/><path class="cls-1" d="M178.27,19.55c-.6-.64-1.13-.84-1.96-.84-1.32,0-2.93,1.13-2.99,4.51,.77-.88,1.6-1.4,2.66-1.4,1.59,0,2.76,.9,2.76,2.63,0,1.86-1.26,2.85-2.65,2.85-1.78,0-3.23-1.14-3.23-3.89,0-3.85,1.86-5.1,3.44-5.1,1.13,0,1.76,.38,2.24,.94l-.29,.3Zm.02,4.89c0-1.44-.9-2.23-2.32-2.23-1,0-1.93,.58-2.64,1.57,.12,2.07,1.21,3.11,2.76,3.11,1.25,0,2.19-.88,2.19-2.45Z"/><path class="cls-1" d="M184.51,25.99l.29-.31c.64,.68,1.43,1.21,2.78,1.21s2.59-1.01,2.59-2.51c0-1.38-.95-2.37-2.47-2.37-.95,0-1.58,.2-2.23,.7l-.36-.19,.31-4.07h4.87v.4h-4.49l-.29,3.36c.62-.43,1.22-.6,2.18-.6,1.63,0,2.93,.95,2.93,2.76s-1.56,2.94-3.07,2.94-2.4-.65-3.05-1.31Z"/><path class="cls-1" d="M203.48,18.11v9.67h-.35v-.68h-6.64v.78h-.35v-9.76h7.34Zm-6.99,.35v3.93h6.64v-3.93h-6.64Zm6.64,8.29v-4.01h-6.64v4.01h6.64Z"/><path class="cls-1" d="M215.29,22.98c-.71,1.34-1.82,2.39-3.17,3.18,1.39,.78,3.05,1.31,4.88,1.57-.07,.08-.17,.23-.22,.34-1.86-.31-3.59-.88-5-1.72-1.51,.82-3.29,1.36-5.06,1.7-.05-.1-.13-.25-.21-.34,1.74-.3,3.46-.8,4.93-1.58-1.22-.78-2.22-1.76-2.89-2.96h-.65v-.35h7.05l.1-.02,.23,.18Zm-8.2-.02h-.35v-2.28h7.21c.48-.64,1.12-1.62,1.46-2.31l.31,.19c-.38,.68-.91,1.51-1.38,2.12h2.42v2.28h-.35v-1.93h-9.33v1.93Zm8.77-5.48c-2.11,.48-5.84,.82-8.9,.97-.01-.1-.05-.22-.08-.31,3.01-.17,6.79-.5,8.68-.95l.3,.29Zm-7.04,3.06c-.18-.48-.6-1.25-1-1.81l.3-.1c.42,.55,.84,1.3,1.01,1.77l-.31,.13Zm.14,2.64c.66,1.12,1.62,2.05,2.82,2.78,1.25-.72,2.29-1.62,2.96-2.78h-5.78Zm2.79-2.75c-.1-.52-.4-1.34-.72-1.97l.35-.07c.31,.62,.64,1.45,.72,1.95l-.35,.08Z"/><path class="cls-1" d="M221.96,17.38c-.4,1-.86,1.94-1.4,2.81v7.8h-.35v-7.24c-.5,.74-1.04,1.43-1.59,1.99-.06-.07-.19-.22-.28-.29,1.32-1.25,2.53-3.17,3.27-5.15l.35,.08Zm7.06,2.91h-1.7v6.99c0,.47-.17,.61-.5,.68-.35,.07-1.07,.07-2.35,.06-.04-.1-.11-.25-.17-.37,1.1,.04,2.04,.02,2.31,.01,.26-.02,.36-.1,.36-.37v-7h-5.16v-.35h5.16v-2.6h.35v2.6h1.7v.35Zm-4.29,4.94c-.41-.77-1.26-2.13-1.94-3.12l.29-.16c.71,1.01,1.56,2.33,1.97,3.06l-.31,.22Z"/><path class="cls-1" d="M240.43,19.4v5.27h-.35v-.77h-4.19v4.08h-.35v-4.08h-4.19v.83h-.35v-5.32h4.53v-2.21h.35v2.21h4.53Zm-4.88,4.15v-3.8h-4.19v3.8h4.19Zm4.53,0v-3.8h-4.19v3.8h4.19Z"/><path class="cls-1" d="M245.03,22.59c0,2.12-.83,4.01-2.41,5.65l-.3-.23c1.56-1.57,2.33-3.44,2.33-5.42s-.77-3.85-2.33-5.42l.3-.23c1.58,1.64,2.41,3.53,2.41,5.65Z"/></g></g></g></svg>