<?xml version="1.0" encoding="UTF-8"?><svg id="_レイヤー_2" xmlns="http://www.w3.org/2000/svg" viewBox="0 0 181.73 193.9"><defs><style>.cls-1{fill:#fff;}.cls-2{fill:#333;}.cls-3{fill:#a98b53;}</style></defs><g id="_レイヤー_1-2"><g><rect class="cls-3" x="0" width="181.73" height="193.9" rx="15.4" ry="15.4"/><rect class="cls-1" x="8.86" y="161.31" width="164" height="21.58" rx="4.9" ry="4.9"/><g><path class="cls-1" d="M69.4,83.3c-4.68,3.04-5.6,12.54-3.84,20.28,1.38,6.03,4.31,14.11,9.24,21.73,4.65,7.16,11.13,13.59,16.07,17.3,6.35,4.77,15.39,7.8,20.08,4.77,2.37-1.54,5.89-5.73,6.05-6.49,0,0-2.06-3.18-2.52-3.88l-6.92-10.67c-.51-.79-3.74-.07-5.38,.86-2.21,1.25-4.25,4.61-4.25,4.61-1.52,.88-2.78,0-5.44-1.22-3.26-1.5-6.92-6.16-9.84-10.38-2.66-4.38-5.42-9.63-5.46-13.22-.03-2.92-.31-4.43,1.11-5.46,0,0,3.9-.49,5.94-2,1.52-1.12,3.49-3.77,2.98-4.56l-6.92-10.67c-.45-.7-2.52-3.88-2.52-3.88-.75-.16-6.02,1.34-8.39,2.88Z"/><path class="cls-1" d="M108.64,91.26c2.82-11.48-3.88-23.22-15.19-26.64l.96-3.49c13.24,3.95,21.06,17.68,17.72,31.09l-3.49-.96Z"/><path class="cls-1" d="M101.08,89.19c1.68-7.31-2.55-14.73-9.7-17.01l.96-3.49c9.07,2.81,14.44,12.22,12.23,21.46l-3.49-.96Z"/><path class="cls-1" d="M93.51,87.12c.56-3.14-1.21-6.25-4.2-7.37l.96-3.5c4.91,1.66,7.82,6.76,6.74,11.82l-3.5-.96Z"/></g><g><g><path class="cls-1" d="M109.6,20.33v5.27h-8.41v25.28h-6.2V25.6h-8.41v-5.27h23.03Z"/><path class="cls-1" d="M132.01,20.33v5.27h-12.84v6.86h11.51v5.23h-11.51v7.97h12.84v5.23h-19.04V20.33h19.04Z"/><path class="cls-1" d="M142.5,45.66h12.84v5.23h-19.04V20.33h6.2v25.33Z"/></g><g><path class="cls-1" d="M26.12,19.3v4.91c3.78,0,7.29,.73,10.33,1.93,.57,.22,1.12,.47,1.65,.72,1.22-.58,2.52-1.09,3.91-1.5,2.49-.73,5.23-1.16,8.12-1.16,3.8,0,7.33,.73,10.38,1.93,.57,.22,1.12,.47,1.65,.72,1.22-.58,2.52-1.09,3.91-1.5,2.47-.73,5.2-1.15,8.07-1.16v-4.91H26.12Z"/><path class="cls-1" d="M56.19,37.94c0,1.24,.37,2.38,1.02,3.34,.64,.95,1.56,1.71,2.63,2.16,.71,.3,1.5,.47,2.32,.47,1.24,0,2.38-.37,3.34-1.02,.95-.64,1.71-1.56,2.16-2.63,.3-.71,.47-1.49,.47-2.32,0-.59-.12-1.22-.38-1.88-.26-.66-.66-1.34-1.19-2.02-1.01-1.3-2.52-2.59-4.4-3.67-1.44,.83-2.67,1.78-3.61,2.76-1.01,1.05-1.7,2.13-2.06,3.15-.2,.58-.3,1.13-.3,1.66Z"/><path class="cls-1" d="M68.01,30.98c1.25,1.3,2.2,2.74,2.74,4.26,.31,.87,.48,1.78,.48,2.69,0,1.87-.57,3.62-1.55,5.07-.98,1.45-2.36,2.59-3.99,3.28-1.09,.46-2.28,.71-3.53,.71-1.87,0-3.63-.57-5.07-1.55-1.45-.98-2.59-2.36-3.28-3.99-.46-1.09-.71-2.28-.71-3.53,0-1.37,.38-2.72,1.04-3.97,.66-1.26,1.59-2.44,2.74-3.53,.6-.56,1.25-1.1,1.96-1.61-.47-.17-.96-.34-1.46-.48-2.21-.65-4.65-1.03-7.24-1.03-3.18,0-6.14,.57-8.7,1.51,.94,.67,1.78,1.39,2.52,2.16,1.25,1.3,2.2,2.74,2.74,4.26,.31,.87,.48,1.78,.48,2.69,0,1.87-.57,3.62-1.55,5.07-.98,1.45-2.36,2.59-3.99,3.28-1.09,.46-2.28,.71-3.53,.71-1.87,0-3.63-.57-5.07-1.55-1.45-.98-2.59-2.36-3.28-3.99-.46-1.09-.71-2.28-.71-3.53,0-1.37,.38-2.72,1.04-3.97,.66-1.26,1.59-2.44,2.74-3.53,.6-.56,1.25-1.1,1.96-1.61-.47-.17-.96-.34-1.46-.48-2.19-.65-4.62-1.02-7.2-1.03v23.5h48.03V27.31c-3.16,0-6.11,.58-8.66,1.51,.94,.67,1.78,1.39,2.52,2.16Z"/><path class="cls-1" d="M32.13,37.94c0,1.24,.37,2.38,1.02,3.34,.64,.95,1.56,1.71,2.63,2.16,.71,.3,1.49,.47,2.32,.47,1.24,0,2.38-.37,3.34-1.02,.95-.64,1.71-1.56,2.16-2.63,.3-.71,.47-1.49,.47-2.32,0-.59-.12-1.22-.38-1.88-.26-.66-.66-1.34-1.19-2.02-1.01-1.3-2.52-2.59-4.4-3.67-1.44,.83-2.67,1.78-3.61,2.76-1.01,1.05-1.7,2.13-2.06,3.15-.2,.58-.3,1.13-.3,1.66Z"/></g></g><g><path class="cls-2" d="M24.64,173.23h-4.3v3.67h-.8v-3.67h-4.24v-.77h4.24v-3.66h-3.69v-.77h8.2v.77h-3.71v3.66h4.3v.77Zm-7.37-3.91c.43,.75,.86,1.74,1,2.36l-.73,.25c-.15-.62-.55-1.64-.94-2.4l.68-.21Zm4.21,2.42c.39-.65,.87-1.72,1.13-2.47l.82,.23c-.38,.84-.88,1.83-1.29,2.46l-.66-.22Z"/><path class="cls-2" d="M33.89,168.05v8.69h-.82v-.64h-5.2v.68h-.79v-8.73h6.8Zm-6.02,.77v2.83h5.2v-2.83h-5.2Zm5.2,6.52v-2.92h-5.2v2.92h5.2Z"/><path class="cls-2" d="M38.54,176.69c-.67-.84-1.57-1.73-2.32-2.34l.68-.6c.75,.61,1.7,1.56,2.35,2.33l-.71,.61Z"/><path class="cls-2" d="M46.11,173.83c-.24-.32-.8-.92-1.25-1.37v4.44h-.77v-4.04c-.49,.5-1,.94-1.5,1.28-.07-.2-.28-.56-.4-.7,1.18-.73,2.42-2.05,3.11-3.44h-2.74v-.71h1.52v-1.95h.77v1.95h.86l.14-.03,.43,.28c-.3,.78-.74,1.53-1.25,2.21,.46,.39,1.33,1.21,1.55,1.45l-.48,.63Zm5.11,2.36c.24,0,.28-.23,.31-1.51,.16,.13,.46,.24,.65,.29-.06,1.46-.23,1.86-.88,1.86h-.91c-.73,0-.89-.23-.89-1.01v-3.73h-1.03c-.12,2.33-.47,3.92-2.27,4.84-.1-.19-.31-.47-.5-.62,1.66-.78,1.92-2.16,2.01-4.22h-1.03v-4.06h4.91v4.06h-1.35v3.73c0,.31,.05,.37,.28,.37h.7Zm-3.79-4.81h3.4v-2.64h-3.4v2.64Z"/><path class="cls-2" d="M61.13,168.05v8.69h-.82v-.64h-5.2v.68h-.79v-8.73h6.8Zm-6.02,.77v2.83h5.2v-2.83h-5.2Zm5.2,6.52v-2.92h-5.2v2.92h5.2Z"/><path class="cls-2" d="M65.78,176.69c-.67-.84-1.57-1.73-2.32-2.34l.68-.6c.75,.61,1.7,1.56,2.35,2.33l-.71,.61Z"/><path class="cls-2" d="M69.08,175.3h1.71v-5.73h-1.36v-.61c.68-.13,1.17-.3,1.59-.55h.73v6.89h1.54v.8h-4.21v-.8Z"/><path class="cls-2" d="M74.48,172.23c0-2.67,.93-3.96,2.4-3.96s2.39,1.3,2.39,3.96-.93,4-2.39,4-2.4-1.33-2.4-4Zm3.86,0c0-2.24-.59-3.19-1.46-3.19s-1.47,.94-1.47,3.19,.59,3.24,1.47,3.24,1.46-.97,1.46-3.24Z"/><path class="cls-2" d="M80.55,171.29c0-.44,.31-.74,.69-.74s.69,.3,.69,.74-.31,.72-.69,.72-.69-.3-.69-.72Zm0,4.22c0-.43,.31-.74,.69-.74s.69,.31,.69,.74-.31,.72-.69,.72-.69-.29-.69-.72Z"/><path class="cls-2" d="M83.21,172.23c0-2.67,.93-3.96,2.4-3.96s2.39,1.3,2.39,3.96-.93,4-2.39,4-2.4-1.33-2.4-4Zm3.86,0c0-2.24-.59-3.19-1.46-3.19s-1.47,.94-1.47,3.19,.59,3.24,1.47,3.24,1.46-.97,1.46-3.24Z"/><path class="cls-2" d="M89.03,172.23c0-2.67,.93-3.96,2.4-3.96s2.39,1.3,2.39,3.96-.93,4-2.39,4-2.4-1.33-2.4-4Zm3.86,0c0-2.24-.59-3.19-1.46-3.19s-1.47,.94-1.47,3.19,.59,3.24,1.47,3.24,1.46-.97,1.46-3.24Z"/><path class="cls-2" d="M96.18,172.1c-.34,0-.63,.21-.9,.71l-.53-.38c.43-.73,.95-1.05,1.47-1.05,.91,0,1.42,.99,2.08,.99,.34,0,.63-.21,.89-.71l.55,.39c-.43,.73-.95,1.05-1.46,1.05-.93,0-1.43-1-2.09-1Z"/><path class="cls-2" d="M101.07,175.3h1.71v-5.73h-1.36v-.61c.68-.13,1.17-.3,1.59-.55h.73v6.89h1.54v.8h-4.21v-.8Z"/><path class="cls-2" d="M107.09,174.85c.32,.37,.8,.59,1.29,.59,1,0,1.86-.82,1.93-3.21-.46,.58-1.12,.95-1.77,.95-1.28,0-2.12-.83-2.12-2.42,0-1.49,1.01-2.49,2.2-2.49,1.48,0,2.58,1.22,2.58,3.66,0,3.11-1.34,4.31-2.79,4.31-.83,0-1.42-.34-1.84-.79l.52-.6Zm3.21-3.41c-.1-1.58-.69-2.42-1.68-2.42-.73,0-1.3,.69-1.3,1.74s.46,1.71,1.37,1.71c.51,0,1.09-.29,1.6-1.03Z"/><path class="cls-2" d="M112.54,171.29c0-.44,.31-.74,.69-.74s.69,.3,.69,.74-.31,.72-.69,.72-.69-.3-.69-.72Zm0,4.22c0-.43,.31-.74,.69-.74s.69,.31,.69,.74-.31,.72-.69,.72-.69-.29-.69-.72Z"/><path class="cls-2" d="M115.2,172.23c0-2.67,.93-3.96,2.4-3.96s2.39,1.3,2.39,3.96-.93,4-2.39,4-2.4-1.33-2.4-4Zm3.86,0c0-2.24-.59-3.19-1.46-3.19s-1.47,.94-1.47,3.19,.59,3.24,1.47,3.24,1.46-.97,1.46-3.24Z"/><path class="cls-2" d="M121.01,172.23c0-2.67,.93-3.96,2.4-3.96s2.39,1.3,2.39,3.96-.93,4-2.39,4-2.4-1.33-2.4-4Zm3.86,0c0-2.24-.59-3.19-1.46-3.19s-1.47,.94-1.47,3.19,.59,3.24,1.47,3.24,1.46-.97,1.46-3.24Z"/><path class="cls-2" d="M131.59,174.79c.5,.78,1.43,1.13,2.64,1.18,1.15,.03,3.53,.01,4.78-.07-.1,.18-.22,.53-.26,.78-1.15,.04-3.34,.06-4.51,.03-1.37-.06-2.33-.44-2.99-1.25-.47,.45-.99,.89-1.52,1.34l-.41-.77c.46-.31,1.02-.75,1.51-1.19v-1.95h-1.37v-.72h2.13v2.62Zm-.27-3.48c-.38-.4-1.15-.92-1.81-1.25l.51-.5c.65,.29,1.44,.8,1.83,1.2l-.53,.56Zm.29-2.07c-.34-.41-1.07-.95-1.7-1.3l.51-.48c.62,.32,1.38,.84,1.73,1.25l-.55,.53Zm2.15,.08c-.35,.51-.72,.98-1.1,1.34-.15-.13-.46-.38-.66-.49,.82-.68,1.51-1.75,1.93-2.85l.78,.21c-.15,.37-.31,.73-.51,1.08h4.52v.71h-4.95Zm.71,5.58c-1.04,0-1.49-.35-1.5-.95,0-.45,.12-.95,2.91-2.85h-2.67v-.7h3.84l.18-.02,.53,.27c-.03,.05-.07,.1-.14,.16-3.58,2.27-3.86,2.74-3.86,3.03,0,.25,.26,.34,.67,.34h3.07c.42,0,.51-.13,.56-1.23,.21,.13,.47,.22,.7,.25-.1,1.49-.41,1.71-1.27,1.71h-3.03Z"/><path class="cls-2" d="M147.84,172.5c-.55,1.11-1.37,1.97-2.4,2.63,1.11,.5,2.42,.84,3.88,1.02-.17,.17-.38,.51-.47,.72-1.58-.22-2.99-.65-4.18-1.3-1.26,.65-2.72,1.06-4.22,1.3-.08-.19-.3-.53-.46-.69,1.43-.2,2.79-.52,3.94-1.05-.86-.59-1.58-1.31-2.12-2.16l.1-.04h-.45v-.72h5.71l.16-.03,.51,.32Zm-6.91-.04h-.73v-2.13h1.67c-.13-.38-.42-.95-.69-1.38l.67-.19c.3,.43,.62,1,.74,1.37l-.62,.2h4.56c.35-.52,.74-1.25,.97-1.78l.79,.24c-.28,.51-.65,1.08-.96,1.54h1.79v2.13h-.77v-1.44h-7.42v1.44Zm7.6-4.54c-2.1,.44-5.34,.7-8.05,.81-.01-.2-.1-.48-.18-.66,2.68-.12,5.89-.39,7.68-.78l.55,.63Zm-5.9,5.01c.5,.72,1.21,1.32,2.05,1.8,.82-.47,1.51-1.06,1.99-1.8h-4.05Zm1.83-2.66c-.06-.41-.28-1.06-.52-1.54l.7-.16c.25,.48,.48,1.12,.56,1.52l-.73,.18Z"/><path class="cls-2" d="M153.76,167.64c-.31,.79-.68,1.56-1.11,2.29v6.95h-.78v-5.74c-.34,.47-.7,.9-1.06,1.27-.09-.18-.34-.59-.48-.77,1.07-1.02,2.07-2.61,2.66-4.24l.77,.24Zm6.09,2.79h-1.32v5.41c0,.59-.17,.83-.56,.94-.41,.13-1.11,.14-2.24,.13-.04-.2-.19-.56-.3-.77,.88,.03,1.74,.03,1.99,.02,.23-.02,.32-.08,.32-.32v-5.41h-4.22v-.78h4.22v-2.2h.79v2.2h1.32v.78Zm-4.15,4.03c-.31-.65-.99-1.77-1.52-2.61l.67-.31c.55,.81,1.24,1.9,1.57,2.54l-.72,.39Z"/><path class="cls-2" d="M169.79,169.19v4.91h-.8v-.6h-3.01v3.4h-.81v-3.4h-3v.65h-.77v-4.96h3.76v-1.87h.81v1.87h3.81Zm-4.61,3.54v-2.78h-3v2.78h3Zm3.82,0v-2.78h-3.01v2.78h3.01Z"/></g></g></g></svg>