<?xml version="1.0" encoding="UTF-8"?><svg id="_レイヤー_2" xmlns="http://www.w3.org/2000/svg" viewBox="0 0 660.95 70.31"><defs><style>.cls-1{fill:#f76e11;}.cls-2{fill:#fff;}</style></defs><g id="_レイヤー_1-2"><g><g><rect class="cls-2" x="11.48" y="-1.68" width="1" height="73.68" transform="translate(-10.38 5.49) rotate(-18.19)"/><rect class="cls-2" x="612.13" y="34.66" width="73.68" height="1" transform="translate(412.78 640.65) rotate(-71.79)"/></g><g><path class="cls-1" d="M46.63,42.7c-.31,0-.55,.02-.55,.29,0,.17,.29,.53,.48,.79,.17,.22,.36,.43,.43,.55,.14,.22,.26,.43,.26,.6,0,.14-.14,.29-.29,.29-.1,0-.19-.02-.29-.05-.1-.02-.29-.1-.38-.1-.14,0-.34,.05-.48,.1-2.18,.7-3.79,1.01-6.05,1.37-.19,.02-.5,.05-.62,.05-.46,0-.7-.53-.91-.96-.17-.34-.65-1.39-.65-1.7,0-.22,.26-.22,.55-.24,1.44-.12,3.72-.43,4.51-.62,.29-.07,.34-.1,.34-.19,0-.07-.1-.14-.29-.14-.31,0-.7,.02-1.06,.02-.7,0-1.37-.07-1.37-1.03,0-.5,.05-1.08,.05-1.7v-5.54c0-.65-.05-1.22-.05-1.7,0-.89,.55-1.03,1.32-1.03s1.56,.05,2.35,.05h9.07c.77,0,1.56-.05,2.33-.05s1.34,.12,1.34,1.03c0,.48-.05,1.08-.05,1.7v5.54c0,.62,.05,1.2,.05,1.7,0,.91-.58,1.03-1.34,1.03-.55,0-1.08-.05-1.63-.05-.07,0-.29,.02-.29,.14,0,.14,.14,.19,.43,.26,1.51,.36,3.19,.65,4.73,.84,.41,.05,.6,.07,.6,.24,0,.22-.55,2.57-1.66,2.57-.84,0-4.22-.84-5.16-1.1-.55-.17-1.85-.58-2.33-.84-.12-.07-.19-.17-.19-.31,0-.36,.5-.89,.74-1.18,.07-.1,.14-.22,.14-.34,0-.29-.34-.29-.55-.29h-3.55Zm7.78-17.35c.72,0,1.44-.05,2.18-.05s1.8,.02,1.8,1.08c0,.38-.07,.82-.07,1.51v.7c0,.67,.07,1.13,.07,1.49,0,1.03-1.01,1.08-1.8,1.08-.72,0-1.46-.05-2.18-.05h-11.88c-.74,0-1.46,.05-2.21,.05s-1.8-.05-1.8-1.06c0-.34,.07-.74,.07-1.51v-.7c0-.79-.07-1.18-.07-1.51,0-1.06,1.06-1.08,1.82-1.08,.72,0,1.44,.05,2.18,.05h11.88Zm-12.1,2.38c-.24,0-.46,.22-.46,.46v.1c0,.26,.22,.46,.46,.46h1.37c.26,0,.46-.19,.46-.46v-.1c0-.26-.19-.46-.46-.46h-1.37Zm10.8,6.67c0-.17-.12-.31-.31-.31h-8.64c-.17,0-.31,.14-.31,.31v.22c0,.17,.14,.31,.31,.31h8.64c.19,0,.31-.14,.31-.31v-.22Zm0,2.76c0-.24-.17-.38-.38-.38h-8.5c-.22,0-.38,.17-.38,.38v.1c0,.22,.17,.38,.38,.38h8.5c.22,0,.38-.17,.38-.38v-.1Zm0,2.76c0-.26-.19-.43-.46-.43h-8.35c-.24,0-.46,.17-.46,.43v.05c0,.26,.22,.43,.46,.43h8.35c.24,0,.46-.17,.46-.43v-.05Zm-5.45-12.19c-.26,0-.46,.19-.46,.46v.1c0,.26,.22,.46,.46,.46h1.44c.24,0,.46-.19,.46-.46v-.1c0-.24-.22-.46-.46-.46h-1.44Zm5.42,0c-.26,0-.46,.19-.46,.46v.1c0,.26,.19,.46,.46,.46h1.51c.26,0,.46-.19,.46-.46v-.1c0-.24-.19-.46-.46-.46h-1.51Z"/><path class="cls-1" d="M63.38,43.9c-.07,.14-.17,.34-.36,.34-.31,0-.38-.31-.5-.62-.12-.48-.7-2.28-.7-2.59,0-.48,.38-.53,.74-.55,.67-.07,.94-.38,.94-1.03v-10.18c0-.53-.38-.58-.58-.58h-.1c-.72,0-.79-.24-.79-1.1v-1.13c0-.79,.07-1.06,.77-1.06,.79,0,1.61,.05,2.4,.05h5.59c.79,0,1.61-.05,2.4-.05,.65,0,.77,.22,.77,.84,0,.86,.36,.89,1.8,.89h4.03c.29,0,.67-.02,1.1-.02,.53,0,.96,0,1.39,.36,.36,.31,.6,.77,.6,1.22,0,1.1-.65,3.94-.96,5.06-.38,1.42-.94,2.98-1.58,4.27-.07,.17-.17,.36-.17,.55,0,.79,2.33,3.24,2.98,3.89,.19,.19,.5,.5,.5,.77,0,.65-1.68,2.45-2.3,2.45-.22,0-.48-.31-.74-.6-.05-.07-.12-.14-.17-.19-.53-.6-1.27-1.49-1.73-2.14-.17-.24-.38-.58-.72-.58-.19,0-.34,.14-.43,.29-.48,.58-2.93,3.38-3.55,3.38-.38,0-.86-.62-1.1-.91-.12-.12-.24-.34-.38-.34-.1,0-.19,.14-.19,.31,0,.34,.02,.7,.02,1.06,0,.62-.24,.67-1.06,.67h-1.34c-.74,0-1.01-.05-1.01-.65,0-.96,.07-1.92,.07-2.86,0-.41-.12-.7-.55-.7-.24,0-1.01,.24-1.3,.31-1.01,.26-2.21,.5-3.24,.7-.38,.07-.41,.14-.55,.46Zm4.03-15.29c-.38,0-.67,.31-.67,.67v.46c0,.36,.29,.67,.67,.67h.94c.36,0,.67-.31,.67-.67v-.46c0-.36-.29-.62-.67-.67h-.94Zm0,4.44c-.38,0-.67,.31-.67,.67v.48c0,.36,.29,.67,.67,.67h.94c.36,0,.67-.31,.67-.67v-.48c0-.36-.29-.62-.67-.67h-.94Zm0,4.56c-.38,0-.67,.29-.67,.67v.82c0,.36,.05,.67,.48,.67,.22,0,1.1-.19,1.3-.29,.41-.19,.5-.48,.5-.89v-.31c0-.38-.29-.67-.67-.67h-.94Zm4.9,4.25c0,.17,0,.58,.24,.58,.43,0,1.63-1.32,1.97-1.68,.43-.48,1.46-1.56,1.46-2.21,0-.24-.12-.5-.22-.72-.82-1.85-1.37-3.38-1.78-5.38-.07-.29-.17-.82-.17-1.1s.12-.48,.38-.58c.12-.02,.22-.05,.22-.19,0-.1-.05-.17-.14-.17-.07,0-.12,.02-.26,.02-.65,0-.7-.12-.7-.77,0-.14,.02-.26,.02-.41,0-.46-.29-.6-.58-.6s-.46,.22-.46,.5v12.7Zm6.26-11.47h-.53c-.46,0-.82,.07-.82,.46,0,.1,.07,.46,.07,.58,.12,.77,.29,1.51,.5,2.26,.12,.46,.17,.79,.36,.79,.17,0,.22-.19,.26-.34,.19-.58,.34-1.13,.46-1.7,.1-.41,.24-1.34,.24-1.7,0-.29-.12-.34-.55-.34Z"/><path class="cls-2" d="M97.94,25.68c.26,.05,.77,.12,.77,.43,0,.29-.19,.19-.36,.58-.17,.36-.31,1.03-.31,2.71,0,.43,.17,.74,.65,.74,.62,0,2.11-.5,2.69-.72,.53-.19,.91-.34,1.1-.34,.34,0,.53,.43,.84,1.22,.19,.48,.53,1.34,.53,1.85,0,.31-.34,.41-1.25,.67-1.18,.34-2.35,.55-3.55,.74-.58,.1-.98,.19-.98,.89,0,.36,.1,2.18,.14,2.78,.07,.72,.24,.77,1.15,1.03,1.61,.48,3.89,1.3,5.28,2.21,.22,.14,.43,.34,.43,.6,0,.62-1.22,2.66-1.82,2.66-.17,0-.43-.19-.58-.29-.6-.41-3.1-1.85-3.72-1.85-.22,0-.46,.14-.5,.5-.31,2.59-2.64,3.43-4.94,3.43s-5.26-1.06-5.26-3.89c0-2.98,3-4.27,5.57-4.27h.34c.36,0,.65-.26,.65-.62,0-.19-.12-2.71-.14-3.31-.07-2.47,0-4.99-.41-7.44-.02-.12-.05-.24-.05-.36,0-.34,.29-.38,.55-.38,.5,0,2.59,.31,3.19,.41Zm-3.77,14.83c-.7,0-2.64,.14-2.64,1.08,0,.7,1.22,.79,1.73,.79,.89,0,1.8-.17,1.8-1.27,0-.55-.48-.6-.89-.6Z"/><path class="cls-2" d="M118.46,27.79c.34,.14,.46,.24,.46,.41,0,.14-.07,.17-.19,.22-.6,.26-.84,.86-1.06,1.42-.38,.98-.77,2.52-.77,3.58,0,.14,0,.41,.22,.41,.14,0,.24-.12,.38-.46,.12-.26,.26-.58,.53-.58,.24,0,1.34,.7,1.34,1.08,0,.12-.05,.29-.1,.41-.55,1.34-1.44,3.53-1.44,4.9v.6c0,.55-.5,.79-.96,.96-.43,.17-.96,.31-1.42,.31-.74,0-.96-.55-1.15-1.13-.55-1.68-.82-3.96-.82-5.74,0-1.58,.19-3.72,.58-5.28,.14-.62,.31-1.27,.46-1.92,.1-.41,.14-.7,.36-.7,.46,0,2.62,1.1,3.58,1.51Zm5.71-1.75c.53-.1,1.3-.29,1.82-.29,.46,0,.55,.17,.7,.77,.53,2.14,.77,5.09,.77,7.32,0,4.13-.7,7.68-3.65,10.78-.46,.48-1.46,1.51-2.14,1.51-.38,0-1.08-.65-1.37-.91-.6-.55-1.1-1.01-1.1-1.42,0-.14,.1-.26,.41-.48,1.32-.86,2.42-2.16,3.1-3.58,.82-1.75,1.01-3.6,1.01-5.5,0-2.4-.31-4.8-.89-7.15-.02-.12-.02-.24-.02-.36,0-.38,.31-.48,1.37-.7Z"/><path class="cls-2" d="M146.16,26.09c.22,.1,.38,.22,.38,.38,0,.14-.1,.19-.22,.24-.38,.17-.58,.26-.86,1.15l-.43,1.32c-.05,.12-.1,.24-.1,.38,0,.48,.34,.58,1.1,.62,.58,.05,1.15,.07,1.73,.07,.46,0,.74,0,.74,.53s-.22,1.61-.36,2.14c-.17,.62-.29,.84-.65,.84-.67,0-2.28-.19-2.98-.31-.05-.02-.12-.02-.19-.02-.55,0-.65,.46-.74,.91l-.05,.19c-.02,.1-.05,.29-.05,.38,0,.62,.65,.65,2.38,.65,.65,0,1.03,.02,1.03,.43,0,.67-.22,1.66-.43,2.3-.17,.5-.34,.77-.91,.77-.53,0-1.44-.14-1.99-.22-.05-.02-.12-.02-.17-.02-.5,0-.55,.48-.55,.77v.14c0,.53,.07,1.06,.34,1.56,.38,.77,1.46,1.08,2.28,1.08s1.9-.17,2.59-.58c.55-.34,.77-.94,.77-1.56,0-1.1-.38-2.33-.72-3.38-.07-.22-.12-.36-.12-.55,0-.31,.17-.43,.86-.72,.53-.22,1.66-.5,2.02-.5,.43,0,.55,.43,.79,1.2,.43,1.32,.77,2.88,.77,4.27,0,1.7-.65,3.17-2.14,4.1-1.44,.91-3.22,1.27-4.9,1.27-4.13,0-6.26-2.4-6.26-6.46,0-.29,.07-1.01,.07-1.06,0-.53-.38-.65-.72-.77-1.58-.55-1.9-.74-1.9-1.18s.22-1.2,.34-1.63c.17-.62,.34-1.32,.86-1.32,.24,0,.48,.14,.7,.29,.26,.17,.72,.43,1.03,.43,.19,0,.43-.1,.55-.6,.07-.29,.17-.65,.17-.77,0-.43-.29-.62-.65-.77-1.97-.72-2.06-.98-2.06-1.34,0-.5,.58-2.93,1.27-2.93,.24,0,.5,.19,.86,.43,.38,.24,1.06,.62,1.27,.62,.38,0,.5-.29,.6-.65,.19-.67,.55-1.87,.79-2.81,.1-.38,.12-.53,.34-.53,.29,0,3.07,.98,3.5,1.18Z"/><path class="cls-1" d="M163.44,42.63c0,1.08,.05,2.16,.05,3.24,0,.5-.17,.74-1.25,.74h-.82c-1.08,0-1.3-.24-1.3-.77,0-1.08,.05-2.16,.05-3.22v-5.59c0-.24,0-.53-.19-.53-.12,0-.22,.12-.29,.19-.1,.12-.29,.26-.43,.26-.6,0-1.94-2.23-1.94-2.81,0-.26,.31-.6,.5-.79,1.92-2.16,3.38-5.16,4.22-7.92,.07-.22,.14-.5,.43-.5s2.3,.72,2.74,.86c.22,.07,.72,.24,.72,.53,0,.12-.12,.26-.34,.29-.19,.02-.26,.05-.38,.36-.38,1.08-1.34,3.41-1.9,4.32-.05,.07-.1,.17-.1,.24,0,.24,.17,.34,.38,.38,.17,.02,.34,.12,.34,.31,0,.17-.14,.24-.26,.34-.22,.19-.22,.38-.24,1.15v8.9Zm1.87-10.78c0-.6-.05-1.2-.05-1.75,0-.98,.86-1.03,1.63-1.03,.7,0,1.39,.05,2.11,.05h.5c.46,0,.79-.24,.79-.72v-1.18c0-.7-.07-1.49-.07-1.99,0-.26,.29-.26,.5-.26,.5,0,2.16,.1,2.76,.12,.31,.02,.72,.07,.72,.41,0,.19-.14,.26-.29,.36-.29,.19-.31,.6-.31,1.63v.98c0,.34,.26,.65,.82,.65h.5c.7,0,1.39-.05,2.09-.05,.77,0,1.66,.05,1.66,1.03,0,.53-.05,1.1-.05,1.75v5.71c0,.82,.05,1.73,.05,2.16,0,.5-.24,.55-.94,.55h-1.46c-.65,0-.91-.05-.91-.53v-.17c0-.41-.29-.53-.62-.53h-.46c-.36,0-.67,.31-.67,.67v2.38c0,1.34,.07,2.66,.07,3.98,0,.55-.24,.62-.96,.62h-1.61c-.65,0-.89-.07-.89-.62,0-1.32,.07-2.64,.07-3.98v-2.38c0-.36-.29-.67-.67-.67h-.48c-.34,0-.62,.12-.62,.5v.19c0,.48-.22,.53-.94,.53h-1.49c-.6,0-.86-.05-.86-.53,0-.41,.07-1.46,.07-2.18v-5.71Zm3.84,.41c-.38,0-.67,.31-.67,.67v2.26c0,.36,.29,.67,.67,.67h.48c.38,0,.67-.31,.67-.67v-2.26c0-.36-.26-.62-.67-.67h-.48Zm5.14,0c-.41,0-.67,.31-.67,.67v2.26c0,.36,.31,.67,.67,.67h.48c.36,0,.67-.31,.67-.67v-2.26c0-.36-.31-.67-.67-.67h-.48Z"/><path class="cls-1" d="M198.09,43.35c0,.91,.07,1.82,.07,2.74,0,.55-.26,.62-1.01,.62h-1.66c-.7,0-.98-.07-.98-.62,0-.86,.07-1.8,.07-2.74v-8.26c0-.53-.02-1.08-.07-1.56,0-.07-.02-.17-.02-.24,0-.29,.26-.31,.5-.31,.41,0,.98,.02,1.25,.02,.12,0,.29-.05,.29-.19,0-.17-.14-.29-.26-.38-.98-.82-2.5-2.42-3.31-3.43-.12-.14-.29-.34-.5-.34-.24,0-.41,.22-.62,.48-.91,1.1-1.9,2.16-2.93,3.14-.1,.1-.22,.24-.22,.36,0,.29,.34,.31,1.2,.36,.24,.02,.53,.05,.62,.05,.72,.02,1.08,.07,1.08,.41,0,.12-.07,.19-.26,.29-.31,.14-.34,.26-.34,.77v1.63c0,2.42-.34,4.82-1.66,6.91-.72,1.15-1.78,2.35-2.93,3.1-.17,.1-.31,.19-.46,.29-.19,.12-.29,.19-.5,.19-1.06,0-2.4-1.94-2.4-2.42,0-.26,.31-.43,.53-.55,1.61-.89,3.07-2.66,3.5-4.46,.26-1.06,.34-1.99,.34-3.07v-1.44c0-.41-.02-.65-.29-.65-.17,0-.41,.19-.53,.31-.46,.38-2.23,1.85-2.71,1.85-.91,0-2.21-2.18-2.21-2.52,0-.19,.17-.31,.34-.41,2.59-1.46,7.3-5.62,8.62-8.26,.12-.22,.19-.31,.43-.31,.41,0,2.11,.34,2.66,.41,1.01,.14,1.39,.22,1.39,.6,0,.17-.05,.22-.14,.29-.07,.05-.14,.14-.14,.24s.43,.65,.98,1.25c.07,.05,.12,.12,.14,.14,1.94,2.02,4.32,3.86,6.79,5.16,.48,.24,.79,.38,.79,.67,0,.58-1.49,2.54-2.23,2.54-.5,0-2.14-1.27-2.59-1.63-.1-.07-.19-.12-.31-.12-.29,0-.31,.34-.31,.89v8.21Z"/><path class="cls-2" d="M217.94,25.68c.26,.05,.77,.12,.77,.43,0,.29-.19,.19-.36,.58-.17,.36-.31,1.03-.31,2.71,0,.43,.17,.74,.65,.74,.62,0,2.11-.5,2.69-.72,.53-.19,.91-.34,1.1-.34,.34,0,.53,.43,.84,1.22,.19,.48,.53,1.34,.53,1.85,0,.31-.34,.41-1.25,.67-1.18,.34-2.35,.55-3.55,.74-.58,.1-.98,.19-.98,.89,0,.36,.1,2.18,.14,2.78,.07,.72,.24,.77,1.15,1.03,1.61,.48,3.89,1.3,5.28,2.21,.22,.14,.43,.34,.43,.6,0,.62-1.22,2.66-1.82,2.66-.17,0-.43-.19-.58-.29-.6-.41-3.1-1.85-3.72-1.85-.22,0-.46,.14-.5,.5-.31,2.59-2.64,3.43-4.94,3.43s-5.26-1.06-5.26-3.89c0-2.98,3-4.27,5.57-4.27h.34c.36,0,.65-.26,.65-.62,0-.19-.12-2.71-.14-3.31-.07-2.47,0-4.99-.41-7.44-.02-.12-.05-.24-.05-.36,0-.34,.29-.38,.55-.38,.5,0,2.59,.31,3.19,.41Zm-3.77,14.83c-.7,0-2.64,.14-2.64,1.08,0,.7,1.22,.79,1.73,.79,.89,0,1.8-.17,1.8-1.27,0-.55-.48-.6-.89-.6Z"/><path class="cls-2" d="M238.46,27.79c.34,.14,.46,.24,.46,.41,0,.14-.07,.17-.19,.22-.6,.26-.84,.86-1.06,1.42-.38,.98-.77,2.52-.77,3.58,0,.14,0,.41,.22,.41,.14,0,.24-.12,.38-.46,.12-.26,.26-.58,.53-.58,.24,0,1.34,.7,1.34,1.08,0,.12-.05,.29-.1,.41-.55,1.34-1.44,3.53-1.44,4.9v.6c0,.55-.5,.79-.96,.96-.43,.17-.96,.31-1.42,.31-.74,0-.96-.55-1.15-1.13-.55-1.68-.82-3.96-.82-5.74,0-1.58,.19-3.72,.58-5.28,.14-.62,.31-1.27,.46-1.92,.1-.41,.14-.7,.36-.7,.46,0,2.62,1.1,3.58,1.51Zm5.71-1.75c.53-.1,1.3-.29,1.82-.29,.46,0,.55,.17,.7,.77,.53,2.14,.77,5.09,.77,7.32,0,4.13-.7,7.68-3.65,10.78-.46,.48-1.46,1.51-2.14,1.51-.38,0-1.08-.65-1.37-.91-.6-.55-1.1-1.01-1.1-1.42,0-.14,.1-.26,.41-.48,1.32-.86,2.42-2.16,3.1-3.58,.82-1.75,1.01-3.6,1.01-5.5,0-2.4-.31-4.8-.89-7.15-.02-.12-.02-.24-.02-.36,0-.38,.31-.48,1.37-.7Z"/><path class="cls-2" d="M266.16,26.09c.22,.1,.38,.22,.38,.38,0,.14-.1,.19-.22,.24-.38,.17-.58,.26-.86,1.15l-.43,1.32c-.05,.12-.1,.24-.1,.38,0,.48,.34,.58,1.1,.62,.58,.05,1.15,.07,1.73,.07,.46,0,.74,0,.74,.53s-.22,1.61-.36,2.14c-.17,.62-.29,.84-.65,.84-.67,0-2.28-.19-2.98-.31-.05-.02-.12-.02-.19-.02-.55,0-.65,.46-.74,.91l-.05,.19c-.02,.1-.05,.29-.05,.38,0,.62,.65,.65,2.38,.65,.65,0,1.03,.02,1.03,.43,0,.67-.22,1.66-.43,2.3-.17,.5-.34,.77-.91,.77-.53,0-1.44-.14-1.99-.22-.05-.02-.12-.02-.17-.02-.5,0-.55,.48-.55,.77v.14c0,.53,.07,1.06,.34,1.56,.38,.77,1.46,1.08,2.28,1.08s1.9-.17,2.59-.58c.55-.34,.77-.94,.77-1.56,0-1.1-.38-2.33-.72-3.38-.07-.22-.12-.36-.12-.55,0-.31,.17-.43,.86-.72,.53-.22,1.66-.5,2.02-.5,.43,0,.55,.43,.79,1.2,.43,1.32,.77,2.88,.77,4.27,0,1.7-.65,3.17-2.14,4.1-1.44,.91-3.22,1.27-4.9,1.27-4.13,0-6.26-2.4-6.26-6.46,0-.29,.07-1.01,.07-1.06,0-.53-.38-.65-.72-.77-1.58-.55-1.9-.74-1.9-1.18s.22-1.2,.34-1.63c.17-.62,.34-1.32,.86-1.32,.24,0,.48,.14,.7,.29,.26,.17,.72,.43,1.03,.43,.19,0,.43-.1,.55-.6,.07-.29,.17-.65,.17-.77,0-.43-.29-.62-.65-.77-1.97-.72-2.06-.98-2.06-1.34,0-.5,.58-2.93,1.27-2.93,.24,0,.5,.19,.86,.43,.38,.24,1.06,.62,1.27,.62,.38,0,.5-.29,.6-.65,.19-.67,.55-1.87,.79-2.81,.1-.38,.12-.53,.34-.53,.29,0,3.07,.98,3.5,1.18Z"/><path class="cls-1" d="M287.85,43.2c0,1.32-1.97,2.16-2.78,2.16-.53,0-.7-.38-.96-.94-.38-.79-1.46-1.99-2.02-1.99-.31,0-.6,.24-.82,.43-.19,.17-.48,.43-.62,.43-.53,0-1.94-2.66-1.94-3.22,0-.29,.22-.38,.5-.53,.6-.31,4.49-2.64,4.75-2.95,.17-.22,.19-.55,.19-.86v-.94c0-.34-.22-.6-.55-.6-.1,0-.67,.1-.82,.12-.36,.07-1.01,.19-1.34,.19-.48,0-.96-.02-.96-2.52,0-.91,0-.96,.94-1.01,.7-.02,1.39-.07,2.09-.14,.24-.02,.5-.12,.62-.34,.14-.24,.17-1.44,.17-2.16v-.41c0-.5-.05-1.03-.05-1.18,0-.24,.12-.38,.36-.38,.53,0,2.88,.5,3.55,.62,.22,.05,.46,.12,.46,.31,0,.12-.14,.22-.24,.26-.36,.29-.43,.53-.5,.86-.1,.53-.14,.89-.14,.96,0,.26,.22,.48,.46,.48,.12,0,.62-.17,.77-.22,.19-.07,.5-.17,.65-.17,.41,0,.62,.53,.72,1.46,.05,.36,.12,1.06,.12,1.42,0,.6-.26,.62-2.28,.96-.41,.07-.72,.26-.72,.77,0,.34,.1,.62,.48,.62,.14,0,.41-.1,.55-.14,1.03-.34,2.14-.53,3.22-.53,2.95,0,5.74,1.66,5.74,4.9,0,1.54-.72,2.93-1.94,3.84-1.27,.96-3.62,1.27-5.18,1.27-.65,0-1.15,0-1.34-.36-.26-.5-.41-1.73-.41-2.26,0-.43,.05-.91,.58-.91,.14,0,.67,.07,.84,.1,.29,.02,.74,.05,1.01,.05,1.03,0,2.78-.29,2.78-1.61,0-1.18-1.15-1.75-2.16-1.75-.94,0-2.98,.46-3.7,1.01-.24,.19-.31,.53-.31,.82s.05,1.03,.07,1.32c.02,.48,.19,2.45,.19,2.74Zm-3.55-1.82c0-.29-.02-.6-.24-.6-.19,0-.41,.19-.55,.31-.1,.07-.19,.14-.19,.29,0,.19,.07,.26,.5,.55,.14,.1,.24,.14,.29,.14,.17,0,.19-.14,.19-.29v-.41Zm12.34-10.51c.55,.46,1.42,1.18,1.92,1.68,.14,.12,.31,.29,.31,.48,0,.62-1.44,2.28-2.04,2.28-.22,0-.38-.17-.58-.34-1.08-.98-2.21-1.9-3.38-2.76-.26-.19-.53-.36-.53-.62,0-.34,.67-1.13,.91-1.37,.05-.05,.1-.12,.14-.17,.31-.34,.65-.72,.94-.72,.41,0,1.94,1.25,2.3,1.54Z"/><path class="cls-1" d="M307.58,43.83c0,.74,.07,1.58,.07,2.16,0,.53-.31,.58-1.03,.58h-1.44c-.74,0-1.06-.05-1.06-.58s.07-1.42,.07-2.16v-4.37c0-.17-.02-.31-.19-.31-.12,0-.22,.07-.29,.14-.14,.1-.34,.24-.5,.24-.34,0-.62-.38-.82-.65-.05-.05-.1-.1-.12-.14-.31-.38-.84-1.1-.84-1.61,0-.34,.22-.48,.46-.67,1.7-1.34,3.84-4.2,4.73-6.19,.12-.26,.19-.48,.43-.48s.79,.24,1.22,.43c.14,.07,.26,.12,.36,.17,.67,.29,1.49,.58,1.49,1.01,0,.17-.26,.26-.38,.29-.22,.05-.26,.1-.38,.31-.48,.94-1.25,2.14-1.85,2.98-.07,.12-.14,.22-.14,.34,0,.19,.14,.22,.31,.26,.17,.02,.38,.07,.38,.29,0,.17-.12,.24-.24,.34-.22,.19-.24,.67-.24,1.15v6.48Zm-.38-18.58c.5,.19,1.56,.53,1.56,.94,0,.19-.31,.29-.48,.31-.31,.07-.34,.17-.53,.55-.86,1.78-2.14,3.34-3.6,4.66-.22,.22-.5,.53-.82,.53-.48,0-1.82-1.51-1.82-2.02,0-.34,.38-.65,.62-.86,1.27-1.18,2.3-2.52,3-4.15,.12-.29,.19-.5,.43-.5,.34,0,1.27,.41,1.63,.55Zm9.02,12.72c.24,0,.46-.1,.46-.36,0-.6-.24-.62-.5-.62h-4.18c-.91,0-1.8,.05-2.71,.05-.55,0-.58-.26-.58-.91v-.67c0-.7,.02-.94,.58-.94,.91,0,1.8,.05,2.71,.05h7.49c.89,0,1.78-.05,2.69-.05,.5,0,.58,.14,.58,.91v.74c0,.65-.05,.86-.6,.86-.46,0-.94-.05-1.39-.05-.22,0-.29,.02-.29,.19,0,.05,.02,.1,.02,.12,0,.07-.05,.12-.1,.19-.05,.07-.1,.12-.1,.22,0,.26,.41,.26,.6,.26,.58,0,1.18-.05,1.75-.05,.53,0,.58,.29,.58,.84v.82c0,.6-.05,.86-.6,.86s-1.15-.05-1.73-.05c-.62,0-.86,.24-.86,.84v.98c0,.5,.05,1.03,.05,1.56,0,2.52-2.09,2.76-4.06,2.76-1.39,0-1.7-.12-1.82-1.8-.02-.17-.05-.38-.26-.38-.14,0-.26,.12-.36,.19-.29,.22-.96,.67-1.32,.67-.22,0-.46-.31-.89-.86-.1-.12-.19-.26-.31-.41-.36-.48-.82-1.01-1.22-1.42-.17-.17-.41-.38-.41-.6,0-.36,.7-.86,.98-1.06,.1-.07,.19-.14,.19-.26,0-.19-.19-.22-.34-.22-.46,0-.89,.05-1.32,.05-.58,0-.62-.26-.62-.94v-.62c0-.65,.02-.96,.58-.96,.77,0,1.51,.05,2.28,.05h5.04Zm1.99-12.58c.62,0,1.25-.05,1.87-.05,.7,0,1.13,.17,1.13,1.06,0,.6-.05,1.22-.05,1.82v2.78c0,.62,.05,1.22,.05,1.82,0,.79-.34,1.08-1.1,1.08-.62,0-1.27-.07-1.9-.07h-5.02c-.62,0-1.25,.07-1.9,.07s-1.1-.19-1.1-1.08c0-.6,.02-1.2,.02-1.82v-2.78c0-.6-.02-1.22-.02-1.82,0-.79,.31-1.08,1.08-1.08,.65,0,1.27,.07,1.92,.07h5.02Zm-1.49,15.67c0-.38-.31-.67-.67-.67h-3.38c-.14,0-.31,.02-.31,.19,0,.14,.17,.31,.29,.43,.43,.48,1.13,1.3,1.51,1.82,.17,.22,.31,.38,.62,.43,.17,.02,1.01,.1,1.18,.1,.7,0,.77-.14,.77-.96v-1.34Zm1.32-12.94c0-.17-.14-.31-.31-.31h-4.08c-.17,0-.31,.14-.31,.31v.14c0,.17,.14,.31,.31,.31h4.08c.19,0,.31-.12,.31-.31v-.14Zm0,2.83c0-.19-.12-.31-.31-.31h-4.08c-.17,0-.31,.14-.31,.31v.14c0,.19,.14,.31,.31,.31h4.08c.17,0,.31-.12,.31-.31v-.14Z"/><path class="cls-1" d="M329.01,28.59c.12-.46,.24-.91,.31-1.3,.07-.46,.1-.67,.41-.67,.22,0,2.52,.84,3.55,1.3,.48,.22,.62,.36,.62,.48,0,.1-.07,.14-.17,.19-.55,.26-.67,.46-.89,.98-.79,1.85-1.46,4.63-1.46,6.82,0,1.32,0,1.97,.31,1.97,.17,0,.29-.19,.41-.38,.14-.24,.29-.5,.55-.5,.29,0,1.25,.82,1.25,1.18,0,.34-1.06,2.18-1.06,3.48,0,.17,.05,.77,.1,1.13,.02,.14,.07,.55,.07,.7,0,.89-1.78,1.58-2.52,1.58-.46,0-.67-.31-1.1-1.18-1.18-2.38-1.54-5.06-1.54-7.7,0-2.95,.41-5.23,1.15-8.06Zm6.87,10.3c1.01,1.2,1.8,1.61,3.36,1.61,1.78,0,3.55-.29,5.26-.77,.17-.05,.41-.1,.58-.1,.31,0,.46,.31,.48,.53,.1,.65,.12,2.02,.12,2.5,0,.31-.02,.48-.34,.62-.84,.41-4.85,.77-5.93,.77-3.86,0-5.57-1.92-5.57-2.47,0-.46,1.2-2.88,1.75-2.88,.12,0,.22,.12,.29,.19Zm-.05-10.39c.14,0,.53,.05,.74,.1,.91,.19,2.23,.34,3.17,.34,1.2,0,2.4-.19,3.55-.48,.22-.05,.34-.07,.48-.07,.46,0,.6,.5,.65,.86,.07,.6,.14,1.37,.14,1.97s-.07,.74-.7,.84c-1.34,.19-2.69,.29-4.03,.29-.72,0-4.03-.12-4.49-.5-.19-.17-.19-.89-.19-1.15,0-1.78,.1-2.18,.67-2.18Z"/><path class="cls-2" d="M362.95,40.13c-.41,0-.7,.31-.7,.67v1.46c0,.38,.31,.67,.67,.67h4.54c1.01,0,2.02-.05,3.02-.05,.55,0,.6,.24,.6,.98v1.13c0,.77-.05,1.01-.6,1.01-1.01,0-2.02-.05-3.02-.05h-14.06c-1.01,0-2.02,.05-3.02,.05-.55,0-.6-.22-.6-.91v-1.22c0-.72,.05-.98,.6-.98,1.01,0,2.02,.05,3.02,.05h4.51c.38,0,.67-.29,.67-.67v-1.46c0-.36-.29-.67-.67-.67h-2.4c-.96,0-1.9,.05-2.83,.05-.55,0-.6-.26-.6-.96v-1.06c0-.7,.05-.94,.6-.94,.94,0,1.87,.05,2.83,.05h9.87c.94,0,1.87-.05,2.81-.05,.55,0,.6,.24,.6,.84v1.22c0,.65-.05,.89-.6,.89-.94,0-1.87-.05-2.81-.05h-2.42Zm-8.64-10.13c-.48,0-.77,.29-.77,.7,0,.17,.07,.58,.07,.84,0,.58-.36,.65-.96,.65h-1.46c-.7,0-1.08-.07-1.08-.62,0-.34,.07-.91,.07-1.42v-.62c0-.77-.05-1.44-.05-1.7,0-.89,.94-.91,1.61-.91,.94,0,1.9,.05,2.83,.05h3.17c.43,0,.74-.26,.74-.7,0-.22-.07-.89-.07-1.06,0-.38,.26-.43,.58-.43,.5,0,1.99,.12,2.52,.17,.84,.1,1.3,.1,1.3,.48,0,.19-.14,.29-.26,.41-.14,.12-.22,.29-.22,.46,0,.34,.26,.67,.77,.67h3.22c.96,0,1.9-.05,2.83-.05,.67,0,1.63,.02,1.63,.91,0,.19-.07,.91-.07,1.7v.53c0,.29,.02,.58,.05,.86,.02,.12,.02,.31,.02,.43,0,.6-.48,.6-.94,.6h-.14c-.1,0-.24,.02-.24,.14,0,.1,.12,.14,.22,.19,.22,.14,.31,.29,.31,.53,0,.74-.5,2.02-.91,2.62-.55,.77-1.22,.79-2.04,.79h-3.26c-1.58,0-2.95-.02-2.95-1.9,0-.43,.05-.84,.05-1.27v-2.38c0-.38-.31-.67-.67-.67h-1.22c-.14,0-.26,.02-.26,.14s.17,.19,.26,.22c.31,.12,.98,.34,.98,.72,0,.22-.29,.31-.43,.36-.34,.07-.41,.14-.55,.46-1.7,3.43-6.65,5.3-7.51,5.3-.67,0-1.63-1.61-1.63-2.5,0-.38,.19-.38,.84-.55,1.7-.43,3.84-1.58,4.78-3.1,.07-.14,.29-.53,.29-.67,0-.34-.31-.38-.62-.38h-.79Zm9.99,2.3c0,.82,.24,.86,.89,.86h.82c.65,0,.67-.31,.77-.91,.07-.43,.14-.48,.26-.53,.24-.14,.24-.36,.26-.67,0-.07,.02-.14,.02-.24v-.14c0-.36-.26-.67-.74-.67h-1.61c-.38,0-.67,.29-.67,.7v1.61Z"/><path class="cls-2" d="M384.33,26.55c.26,.82,.43,.94,.74,.94,.22,0,.89-.34,1.34-.58,.38-.22,.67-.34,.89-.34,.53,0,1.42,1.99,1.42,2.57,0,.38-.31,.58-.6,.74-.48,.29-.98,.5-1.49,.72-.19,.07-.5,.19-.5,.41,0,.14,.1,.48,.36,.48,.48,0,1.99-.91,2.45-1.2,.17-.12,.53-.31,.74-.31,.36,0,.65,.48,.89,.86,.41,.65,.82,1.3,.82,1.7,0,.38-.46,.62-1.3,1.01-.5,.24-1.03,.48-1.54,.7-.29,.12-.48,.29-.48,.6,0,.19,.1,.38,.29,.74,.55,1.03,1.13,2.02,1.85,2.93,.26,.31,.67,.79,.67,1.22,0,.65-1.94,2.04-2.57,2.04-.22,0-.36-.12-.67-.43-.94-.89-2.45-1.49-3.94-1.49-.7,0-1.8,.22-1.8,1.1,0,1.32,2.18,1.54,3.14,1.54,.29,0,1.06-.05,1.58-.12,.26-.02,.67-.07,.79-.07,.58,0,.7,.38,.7,1.39,0,2.28-.41,2.3-1.13,2.3-1.27,0-2.59,0-3.84-.22-2.5-.46-4.66-1.94-4.66-4.7,0-2.9,2.28-4.3,4.94-4.3,.43,0,.86,.05,1.3,.12h.1c.14,0,.36-.12,.36-.34,0-.12-.17-.41-.26-.55-.12-.19-.26-.34-.5-.34-.05,0-.14,.02-.24,.05-1.37,.41-4.85,1.08-6.24,1.08-.43,0-.58-.26-.72-.7-.22-.62-.46-1.61-.46-2.26,0-.34,.1-.5,1.08-.55,1.1-.05,3.86-.31,4.9-.62,.19-.05,.31-.17,.31-.36s-.17-.43-.36-.43c-.05,0-.22,.05-.31,.07-.72,.17-2.33,.46-3.02,.46-.41,0-.53-.24-.67-.6-.19-.48-.55-1.66-.55-2.14,0-.36,.22-.62,.86-.65,.36-.02,1.01-.07,1.49-.14,.43-.07,.7-.22,.7-.58,0-.19-.22-.53-.34-.72-.14-.22-.5-.77-.5-1.03,0-.38,.74-.6,1.06-.7,.53-.17,1.44-.46,1.97-.46,.62,0,.72,.36,.96,1.13Z"/><path class="cls-2" d="M415.51,38.79c0,.67,2.62,3.53,3.22,4.08,.1,.1,.34,.31,.34,.48,0,.65-1.87,1.92-2.5,1.92-.17,0-.31-.1-.43-.19-1.44-1.32-3.17-3.89-4.1-5.62-.74-1.37-1.58-3.24-2.02-4.73-.12-.38-.22-.7-.98-.7-.24,0-.84,.05-.84,.38,0,.14,.14,.26,.36,.43,2.38,1.87,3.24,5.06,3.24,7.82,0,1.42-.1,2.83-1.49,3.53-1.03,.5-2.54,.5-3.7,.5-1.54,0-1.9-.34-2.04-1.9-.02-.24-.14-.5-.43-.5-.12,0-.22,.05-.31,.1-.53,.29-3.17,1.51-3.6,1.51-.7,0-1.68-1.44-1.68-2.09,0-.22,.14-.31,.58-.46,2.62-.84,5.47-2.21,7.85-3.91,.48-.34,.67-.48,.67-.77,0-.17-.12-.31-.31-.31-.12,0-.22,.07-.38,.22-1.44,1.2-4.15,2.64-5.95,3.38-.41,.17-.86,.34-1.03,.34-.6,0-1.39-1.49-1.39-2.04,0-.24,.17-.31,.67-.5,2.02-.74,4.27-1.75,5.98-2.83,.5-.31,.7-.46,.7-.6,0-.17-.17-.24-.34-.24-.14,0-.26,.05-.38,.12-1.58,.89-3.12,1.56-4.94,2.23-.24,.1-.72,.26-.91,.26-.65,0-1.42-1.61-1.42-2.18,0-.26,.17-.34,.72-.48,1.37-.38,2.54-.77,3.91-1.34,.53-.22,.86-.41,.86-.55,0-.07-.07-.12-.17-.12-.07,0-.12,.02-.29,.02h-.07c-.48,0-.96,.02-1.44,.02-.55,0-.72-.1-.72-.74v-.19c0-.31-.24-.58-.55-.58h-1.3c-.43,0-.86-.05-.86-.6,0-.34,.1-.89,.1-1.3v-1.2c0-.77-.07-1.34-.07-1.58,0-.86,.98-.89,1.61-.89,.94,0,1.85,.05,2.78,.05h3.55c.38,0,.67-.31,.67-.7,0-.22-.05-.82-.07-1.03-.02-.07-.02-.14-.02-.22,0-.31,.26-.34,.53-.34,.65,0,2.4,.12,3.17,.19,.53,.05,.65,.17,.65,.34,0,.12-.1,.22-.26,.34-.19,.14-.22,.43-.22,.79,0,.29,.29,.62,.65,.62h3.46c.94,0,1.85-.05,2.78-.05,.6,0,1.61,.02,1.61,.86,0,.19-.07,.96-.07,1.61v1.25c0,.46,.1,.98,.1,1.3,0,.58-.31,.62-1.32,.62-.29,0-.55-.02-.82-.02-.5,0-.55,.41-.55,.74v.22c0,.24,.41,.65,.74,.94,.38,.34,.89,.94,1.39,1.39,.29,.26,.48,.5,.48,.67s-.14,.29-.29,.29c-.05,0-.07,0-.24-.05-.14-.05-.17-.05-.22-.05-.1,0-.17,.05-.24,.1-.46,.34-.86,.58-1.18,.79-.82,.55-1.2,.79-1.2,1.13Zm-2.69-7.7c.67,0,1.32-.02,1.99-.02h.14c.22,0,.41-.1,.41-.34v-.38c0-.14-.12-.26-.26-.26h-13.2c-.14,0-.29,.12-.29,.26v.34q0,.41,2.52,.41h8.69Zm-4.44,11.16c0-.14-.12-.31-.29-.31-.12,0-.46,.22-.84,.48-.19,.14-.43,.29-.65,.43-.12,.07-.24,.19-.24,.31,0,.19,.14,.22,.55,.22,1.18,0,1.46-.14,1.46-1.13Zm6.46-8.16c-.29,0-.6-.02-.89-.02-.43,0-.7,.02-.7,.41,0,.12,.07,.31,.14,.48,.1,.24,.22,.58,.53,.58s1.46-.91,1.46-1.15c0-.26-.26-.29-.48-.29h-.07Z"/><path class="cls-2" d="M426.45,33.72c-.34,0-.67,.31-.67,.67v7.92c0,1.22,.07,2.45,.07,3.7,0,.6-.24,.67-.98,.67h-1.51c-.77,0-1.01-.05-1.01-.67,0-1.25,.05-2.47,.05-3.7v-12.91c0-.86-.05-1.73-.05-2.57,0-.94,.36-1.34,1.3-1.34,.79,0,1.56,.07,2.33,.07h2.21c.77,0,1.54-.07,2.3-.07,.82,0,1.32,.22,1.32,1.34,0,.84-.05,1.7-.05,2.57v.48c0,.86,.05,1.73,.05,2.57,0,.96-.34,1.34-1.3,1.34-.77,0-1.54-.07-2.33-.07h-1.73Zm2.02-5.47c0-.17-.14-.31-.31-.31h-2.06c-.17,0-.31,.14-.31,.31v.07c0,.17,.14,.31,.31,.31h2.06c.19,0,.31-.14,.31-.31v-.07Zm0,2.66c0-.17-.12-.31-.31-.31h-2.06c-.17,0-.31,.14-.31,.31v.12c0,.17,.14,.31,.31,.31h2.06c.17,0,.31-.14,.31-.31v-.12Zm3.5,12.1c-.31,0-.55,.14-.55,.48v.17c0,.55-.22,.6-1.03,.6h-1.25c-.72,0-1.01-.05-1.01-.53,0-.5,.07-1.46,.07-2.23v-3.26c0-.55-.05-1.13-.05-1.68,0-.91,.74-.96,1.46-.96s1.42,.05,2.11,.05h1.46c.72,0,1.42-.05,2.14-.05s1.44,.05,1.44,.96c0,.53-.05,1.08-.05,1.68v3.26c0,1.61,.02,1.87,.53,1.87h.12c.43,0,.84,.02,1.27,.02,.58,0,.6-.41,.6-1.01v-7.99c0-.36-.29-.67-.67-.67h-1.75c-.77,0-1.54,.07-2.3,.07-.82,0-1.32-.22-1.32-1.34,0-.84,.05-1.7,.05-2.57v-.48c0-.86-.05-1.73-.05-2.57,0-.96,.34-1.34,1.3-1.34,.77,0,1.56,.07,2.33,.07h2.23c.77,0,1.54-.07,2.3-.07,.82,0,1.32,.24,1.32,1.34,0,.84-.05,1.7-.05,2.57v11.57c0,.77,.05,1.56,.05,2.35,0,1.06-.14,1.9-1.06,2.54-.84,.6-2.18,.79-3.29,.79-1.03,0-1.39-.19-1.58-1.92-.02-.29-.19-.5-.48-.5-.02,0-.26,.02-.5,.02h-.72c-1.15,0-1.39,0-1.39-.55,0-.1,.02-.19,.02-.22,0-.31-.22-.48-.53-.48h-1.18Zm1.75-3.94c0-.36-.31-.67-.67-.67h-1.03c-.36,0-.67,.31-.67,.67v.53c0,.36,.31,.67,.67,.67h1.03c.36,0,.65-.26,.67-.67v-.53Zm5.52-10.83c0-.17-.12-.31-.31-.31h-2.09c-.17,0-.31,.14-.31,.31v.07c0,.17,.14,.31,.31,.31h2.09c.19,0,.31-.12,.31-.31v-.07Zm0,2.71c0-.19-.12-.31-.31-.31h-2.09c-.17,0-.31,.14-.31,.31v.07c0,.17,.14,.31,.31,.31h2.09c.19,0,.31-.14,.31-.31v-.07Z"/><path class="cls-2" d="M464.35,25.47c.77,0,1.54-.05,2.3-.05,.5,0,.55,.19,.55,.79v1.2c0,.53-.05,.72-.55,.72-.72,0-1.51-.05-2.3-.05h-1.22c-.46,0-.53,.6-.53,.65,0,.29,.29,.34,.5,.34,.72,0,1.42-.02,2.14-.02,.77,0,1.2,.17,1.2,1.01,0,.6-.05,1.18-.05,1.78v4.94c0,.58,.05,1.15,.05,1.75,0,.84-.46,1.03-1.2,1.03-.24,0-.46-.02-.67-.02-.07,0-.17,.02-.17,.12,0,.29,2.26,1.1,2.62,1.22,.17,.05,.38,.1,.38,.31,0,.43-.65,1.27-.96,1.61-.02,.02-.1,.1-.1,.17,0,.1,.12,.1,.19,.1h.43c.38,0,.48,.31,.48,.65,0,1.06-.34,2.26-.86,2.45-.41,.14-1.08,.14-1.54,.14-3.07,0-6.12,0-9.19-.05-3.74-.05-5.38-.19-6.6-1.49-.05-.05-.12-.14-.19-.14-.17,0-.24,.24-.26,.38-.29,1.68-.5,1.68-.79,1.68-.58,0-2.57-.29-2.57-1.06,0-.12,.1-.43,.14-.55,.5-1.85,.89-3.96,.89-5.88v-.12c0-.36,.02-.48,.38-.48,.82,0,1.78,.19,2.59,.29,.17,.02,.43,.1,.43,.31,0,.24-.22,.36-.38,.46-.12,.07-.12,.58-.12,.82,0,.5,.41,1.27,.62,1.27,.12,0,.14-.07,.14-.36v-2.95c0-.34-.24-.58-.58-.58h-.72c-.77,0-1.54,.05-2.3,.05-.65,0-.7-.24-.7-.89v-1.06c0-.62,.05-.89,.65-.89,.79,0,1.58,.05,2.35,.05h4.54c.79,0,1.58-.05,2.38-.05,.55,0,.65,.26,.65,.84v1.15c0,.62-.1,.84-.7,.84s-1.25-.05-1.87-.05c-.36,0-.58,.12-.58,.5,0,.34,.22,.5,.53,.5,.55,0,1.13-.05,1.68-.05,.43,0,.48,.19,.48,.77v.7c0,.24,.07,.55,.38,.55s2.35-.94,2.35-1.15c0-.12-.12-.14-.22-.14-.17,0-.31,.02-.48,.02-.77,0-1.2-.22-1.2-1.06,0-.58,.07-1.15,.07-1.73v-4.94c0-.6-.07-1.18-.07-1.75,0-.79,.41-1.03,1.15-1.03h.89c.43,0,.6-.6,.6-.7,0-.24-.26-.26-.62-.26h-.5c-.58,0-1.15,.05-1.73,.05-.48,0-.53-.19-.53-.72v-1.22c0-.58,.05-.77,.53-.77,.77,0,1.56,.05,2.33,.05h5.45Zm-12.22-.02c.65,0,1.27-.05,1.92-.05,.72,0,1.37,.07,1.37,.96,0,.53-.05,1.08-.05,1.66v3.67c0,.58,.05,1.13,.05,1.66,0,.89-.65,.96-1.37,.96-.65,0-1.27-.05-1.92-.05h-1.7c-.65,0-1.3,.05-1.92,.05-.72,0-1.37-.07-1.37-.96,0-.55,.05-1.1,.05-1.66v-3.67c0-.55-.05-1.1-.05-1.66,0-.89,.65-.96,1.37-.96,.62,0,1.27,.05,1.92,.05h1.7Zm-2.09,3.05c.02,.17,.12,.26,.26,.26h1.99c.17,0,.29-.12,.29-.26v-.14c0-.14-.12-.26-.29-.26h-1.99c-.14,0-.26,.12-.26,.26v.14Zm0,2.78c0,.19,.14,.31,.31,.31h1.92c.17,0,.31-.12,.31-.31v-.07c0-.17-.14-.29-.31-.29h-1.92c-.19,0-.31,.12-.31,.29v.07Zm6.24,11.28c-.05-.07-.26-.34-.31-.43-.34-.5-.36-.55-1.99-.55-.41,0-.72,.29-.72,.77,0,.53,.24,.82,.79,.82s1.1-.02,1.66-.02h.34c.17,0,.46,0,.46-.24,0-.14-.12-.24-.22-.34Zm4.68-3.05c-.22,0-.53,0-.53,.29,0,.19,.34,.58,.46,.72,.17,.17,.5,.53,.5,.79,0,.14-.14,.22-.26,.22-.07,0-.14-.02-.19-.05-.02,0-.12-.05-.17-.05s-.14,.1-.19,.12c-.6,.38-1.34,.79-1.99,1.1-.24,.12-.53,.22-.53,.36,0,.1,.17,.14,.26,.14h3.67c.94,0,1.87-.02,2.81-.02,.07,0,.26-.02,.26-.14,0-.14-.36-.26-.48-.31-.41-.19-2.62-1.22-2.62-1.63,0-.29,.53-.86,.72-1.08,.07-.07,.19-.19,.19-.29,0-.12-.17-.17-.26-.17h-1.66Zm1.94-7.44c.14,0,.26-.12,.26-.26v-.12c0-.17-.12-.29-.26-.29h-2.54c-.14,0-.26,.12-.26,.29v.12c0,.14,.1,.26,.26,.26h2.54Zm-2.54,1.82c-.14,0-.26,.12-.26,.26v.12c0,.14,.12,.29,.26,.29h2.54c.14,0,.26-.14,.26-.29v-.12c0-.14-.1-.26-.26-.26h-2.54Zm.02,2.59c-.17,0-.29,.14-.29,.31v.05c0,.19,.12,.31,.29,.31h2.47c.17,0,.31-.12,.31-.31v-.05c0-.19-.14-.29-.31-.31h-2.47Z"/><path class="cls-2" d="M482.01,25.83c.43,.19,.74,.36,.74,.58,0,.19-.26,.26-.43,.31-.29,.12-.65,.72-.65,.91s.12,.26,.29,.26c.36,0,1.44-.36,1.94-.53,.19-.07,.46-.17,.67-.17,.53,0,.65,.5,.74,.94,.12,.48,.29,1.44,.29,1.94,0,.36-.22,.46-1.54,.7-1.32,.24-2.95,.53-4.44,.7-.77,.1-.82,.62-.82,.65,0,.12,.12,.17,.22,.17,.05,0,.17-.05,.22-.07,.7-.24,1.32-.36,2.04-.36,.58,0,1.25,.1,1.73,.38,.67,.38,.84,.7,1.15,1.37,.1,.19,.22,.29,.41,.29,.24,0,1.51-.72,2.23-1.13,.22-.12,.38-.22,.48-.26,.1-.05,.22-.12,.31-.12,.6,0,1.44,2.76,1.44,3.31,0,.31-.24,.38-.72,.55-1.15,.43-1.87,.74-2.98,1.2-.58,.24-.67,.46-.67,1.1,0,.29,.02,.86,.02,1.39,0,1.54-.02,1.56-1.37,1.56-1.66,0-2.16-.07-2.16-.82,0-.22,.02-.43,.05-.65v-.12c0-.17-.1-.34-.29-.34-.24,0-1.44,.77-1.44,1.61,0,1.2,2.04,1.2,2.88,1.2,1.54,0,2.95-.26,4.46-.6,.22-.05,.43-.07,.6-.07,.58,0,.6,.86,.6,2.4,0,.91-.05,1.15-.74,1.3-1.08,.22-3.48,.29-4.66,.29-1.68,0-2.78-.12-4.2-.77-1.54-.7-2.45-1.97-2.45-3.72,0-2.26,1.7-3.55,3.46-4.58,.41-.24,.89-.5,1.32-.72,.22-.1,.41-.22,.41-.48,0-.34-.31-.62-.74-.62-.91,0-2.57,.84-3.29,1.39-1.13,.89-1.85,2.16-2.54,3.41-.07,.14-.17,.26-.36,.26-.53,0-2.98-1.34-2.98-1.92,0-.19,.14-.34,.43-.65,.98-1.13,2.54-3.62,3.31-4.7,.12-.17,.14-.24,.14-.34,0-.19-.17-.34-.36-.34-.29,0-.62,.02-.94,.02-.82,0-.89-.07-.89-1.87,0-1.49,.1-1.51,.86-1.51,.53,0,1.39,.05,2.18,.05,1.18,0,1.39-.1,1.58-.43,.48-.84,.94-2.09,1.13-2.98,.07-.36,.12-.53,.36-.53,.26,0,2.54,.98,2.93,1.15Z"/><path class="cls-1" d="M504.12,42.05c0,.53,.02,1.08,.02,1.61,0,2.28-1.06,2.95-3.22,2.95-.55,0-1.1-.1-1.34-.67-.17-.41-.24-1.54-.24-1.99,0-.48,.05-.65,.6-.65,.34,0,.7,.02,1.03,.02,.5,0,.53-.17,.53-.74v-.98c0-.36-.29-.67-.67-.67h-2.98c-.7,0-.72,.34-.82,1.13-.1,.72-.46,2.3-.67,2.98-.24,.72-.53,1.54-.89,1.54-.46,0-1.94-.98-1.94-1.51,0-.1,.05-.22,.1-.29,1.06-2.62,1.1-5.52,1.1-8.3v-2.38c0-1.37,0-1.39-.53-1.9-.19-.17-.62-.62-.62-.91,0-.12,.1-.29,.26-.46,1.2-1.37,2.69-3.89,3.34-5.57,.19-.5,.22-.55,.38-.55,.22,0,2.14,.5,2.5,.6,.62,.17,1.01,.29,1.01,.58,0,.17-.24,.24-.36,.26s-.41,.07-.41,.22c0,.19,.29,.22,.43,.22h.34c.43,0,.86-.02,1.3-.02s.65,.05,.96,.34c.34,.29,.74,.82,.74,1.22,0,.36-.82,1.66-1.06,1.99-.07,.12-.12,.19-.12,.31,0,.24,.17,.29,.36,.29,.7,0,.89,.41,.89,1.03,0,.79-.02,1.58-.02,2.35v3.26c0,.5,.02,.6,.14,.6,.5,0,.96-2.98,.98-3.48,.02-.36,.07-.5,.36-.5,.14,0,1.15,.22,1.49,.29,.7,.14,1.15,.26,1.15,.55,0,.12-.12,.19-.22,.24-.02,.02-.34,.1-.34,.77,0,.22,.1,.38,.34,.38,.26,0,.38-.14,.38-.55,0-.34-.02-.82-.07-1.2v-.17c0-.31,.24-.31,.48-.31,.67,0,1.92,.05,2.62,.1,.48,.02,.72,.07,.72,.34,0,.14-.07,.22-.22,.34-.19,.19-.22,.5-.22,.77,0,.38,.36,.67,.74,.67,.53,0,1.08-.05,1.61-.05s.55,.19,.55,.89v1.08c0,.62-.05,.84-.53,.84-.6,0-1.2-.05-1.8-.05-.26,0-.58,.19-.58,.6v.24c0,.41,.22,.65,.6,.65h.29c.67,0,1.32-.05,1.99-.05,.6,0,.65,.26,.65,.86v1.06c0,.62-.05,.89-.65,.89-.7,0-1.42-.05-2.14-.05-.38,0-.74,.29-.74,.7,0,.74,.05,1.46,.05,2.21,0,.58-.26,.62-.98,.62h-1.42c-.79,0-1.03-.05-1.03-.65,0-.72,.07-1.42,.07-2.14,0-.6-.46-.74-.98-.74-.72,0-1.42,.05-2.14,.05-.6,0-.65-.26-.65-.96v-1.01c0-.24,.02-.48,.12-.67,.02-.05,.05-.1,.05-.14,0-.19-.43-.31-.5-.31-.17,0-.19,.19-.19,.34v1.68Zm-6.41-8.71c-.22,0-.38,.17-.38,.38v.53c0,.22,.17,.38,.38,.38h.22c.19,0,.38-.17,.38-.38v-.53c0-.22-.17-.36-.38-.38h-.22Zm.22,5.04c.22-.02,.38-.17,.38-.38v-.53c0-.22-.19-.38-.38-.38h-.19c-.36,0-.41,.29-.41,.6v.31c0,.17,.1,.38,.41,.38h.19Zm.77-7.63c.29,0,.6-.02,.84-.38,.14-.19,.5-.84,.5-1.03,0-.14-.07-.19-.31-.19h-.41c-.46,0-.65,.29-.91,.77-.1,.14-.17,.29-.29,.46-.05,.05-.07,.12-.07,.19,0,.19,.19,.19,.38,.19h.26Zm2.18,2.59c-.19,0-.38,.17-.38,.38v.53c0,.22,.19,.38,.38,.38h.24c.22,0,.38-.17,.38-.38v-.53c0-.22-.17-.38-.38-.38h-.24Zm.24,5.04c.22,0,.38-.17,.38-.38v-.53c0-.22-.17-.38-.38-.38h-.24c-.19,0-.38,.17-.38,.38v.53c0,.22,.17,.36,.38,.38h.24Zm10.01-12.86c.74,0,1.49-.07,2.23-.07,1.06,0,1.49,.34,1.49,1.7s-.19,3.72-.62,4.99c-.26,.79-.74,1.42-2.98,1.42-.98,0-1.68-.14-1.68-2.14,0-.77,.1-1.1,.46-1.1h.7c.7,0,.91-.05,.91-1.32,0-.62-.02-.65-.86-.65-.94,0-1.01,.36-1.25,1.25-.67,2.45-2.69,4.13-3.24,4.13-.6,0-1.94-1.15-1.94-1.73,0-.19,.14-.29,.29-.38,.43-.29,1.06-.91,1.37-1.34,.22-.29,.74-1.15,.74-1.51,0-.34-.31-.38-.55-.38-.29,0-.55,.02-.84,.02-.5,0-.55-.26-.55-.91v-1.06c0-.72,.05-.98,.6-.98,.72,0,1.39,.07,2.33,.07h3.41Zm-3.34,14.86c.38,0,.62-.17,.62-.58v-.34c0-.31-.26-.58-.58-.58h-.36c-.67,0-.7,.38-.91,.94-.02,.07-.05,.14-.05,.22,0,.17,.1,.34,.31,.34h.96Z"/><path class="cls-1" d="M523.56,36.99c.26,.19,1.06,.77,1.06,1.06,0,.62-3.14,5.9-3.7,6.72-.17,.24-.34,.48-.34,.79v.29c0,.22-.02,.53-.29,.53-.24,0-1.44-1.1-1.7-1.34-.67-.58-1.1-.94-1.1-1.27,0-.19,.19-.41,.31-.55,1.51-1.7,3.22-4.7,4.13-6.79,.05-.14,.12-.24,.29-.24,.24,0,.89,.48,1.34,.82Zm-1.51-5.21c.43,.31,1.15,.84,1.15,1.2,0,.29-.29,.7-.48,.96-.24,.34-.94,1.34-1.32,1.34-.24,0-1.27-.89-1.58-1.15-.43-.38-1.32-1.01-1.8-1.3-.19-.12-.46-.24-.46-.5,0-.31,1.27-2.28,1.75-2.28,.36,0,2.09,1.25,2.74,1.73Zm1.13-5.14c.34,.26,1.13,.84,1.13,1.18s-.41,.84-.79,1.32c-.38,.46-.72,.94-1.06,.94-.19,0-.43-.22-.58-.34-.82-.65-1.99-1.49-2.4-1.75-.26-.17-.6-.36-.6-.6,0-.22,.41-.79,.7-1.2,.41-.6,.74-1.1,1.13-1.1,.46,0,2.06,1.22,2.47,1.56Zm4.66,11.06c-.89,0-1.8,.05-2.69,.05-.65,0-.7-.26-.7-.98v-.62c0-1.27,0-1.58,.72-1.58,.89,0,1.78,.05,2.66,.05h.6c.65,0,.72-.48,.72-1.18v-1.15c0-.53-.22-.77-.74-.77h-1.06c-.6,0-1.51,.07-1.78,.07-.38,0-.38-.36-.38-.74v-1.54c0-.79,.05-.98,.41-.98,.34,0,.98,.07,1.75,.07h1.08c.65,0,.74-.43,.74-.91,0-.19-.02-.36-.02-.53,0-.5-.05-1.15-.05-1.42,0-.41,.24-.48,.58-.48,.36,0,2.93,.14,3.24,.19,.19,.02,.43,.12,.43,.36,0,.19-.14,.26-.29,.36-.36,.19-.38,.34-.38,1.13v.62c0,.31,.22,.67,.84,.67h1.1c.72,0,1.44-.07,2.16-.07,.86,0,1.1,.41,1.1,1.49,0,.89-.02,1.78-.02,2.66v1.54c0,.38,.24,.55,.48,.55h.1c.7,0,.74,.29,.74,1.1v.96c0,.86-.05,1.13-.72,1.13-.89,0-1.78-.05-2.67-.05h-1.49c-.38,0-.72,0-.72,.29,0,.19,.55,1.03,.7,1.22,1.18,1.73,2.86,3.41,4.63,4.61,.17,.12,.58,.36,.58,.58,0,.82-1.73,2.3-2.52,2.3-.48,0-2.16-1.61-2.54-2.02-1.08-1.1-1.92-2.28-2.66-3.65-.12-.19-.24-.38-.48-.38s-.36,.19-.46,.38c-.89,1.56-2.18,3-3.6,4.1-.38,.31-1.97,1.49-2.38,1.49-.62,0-2.18-1.75-2.18-2.5,0-.36,.34-.53,.58-.67,1.82-1.13,3.43-2.21,4.58-4.06,.17-.26,.7-1.18,.7-1.46,0-.24-.22-.24-.41-.24h-.29Zm6.07-3.1c.36,0,.67-.29,.67-.67v-1.56c0-.5-.17-.86-.72-.86h-.7c-.26,0-.48,.22-.48,.46v1.94c0,.48,.31,.7,.77,.7h.46Z"/><path class="cls-2" d="M551.23,27.17c.19,.05,.53,.14,.53,.34,0,.1-.1,.17-.17,.19-.38,.22-.43,.5-.55,1.1-.6,2.95-.77,5.98-.77,8.98,0,1.9,0,3.84,1.92,3.84,1.51,0,2.95-.89,3.86-2.04,.79-.98,1.32-2.26,1.54-3.48,.1-.48,.17-.91,.58-.91,.53,0,1.25,.65,1.63,.98,.43,.38,1.15,1.03,1.15,1.63,0,.72-.67,2.3-1.03,2.95-1.54,2.83-4.25,4.7-7.54,4.7-1.7,0-3.53-.58-4.63-1.97-1.2-1.54-1.34-4.08-1.34-6,0-2.76,.24-5.71,.43-8.3,.05-.5,.07-1.32,.07-1.87s0-.84,.41-.84c.55,0,3.14,.53,3.91,.7Z"/><path class="cls-2" d="M578.71,26.14c.12,.02,.34,.05,.34,.24,0,.12-.07,.26-.17,.41-.31,.48-.38,.96-.38,1.51,0,.31,.22,.55,.53,.55,.43,0,2.76-.53,3.38-.67,.38-.1,.79-.19,.98-.19,.34,0,.46,.48,.5,.74,.12,.6,.26,1.44,.26,2.04s-.29,.67-1.06,.82c-1.2,.22-2.45,.41-3.67,.58-.58,.07-.84,.14-.84,.65,0,.34,.17,.6,.53,.6,.34,0,2.14-.38,2.54-.5,.19-.05,.43-.1,.6-.1,.19,0,.31,.19,.41,.5,.17,.5,.17,1.66,.17,2.3,0,.77-.74,.86-2.95,1.1-.96,.1-1.15,.22-1.15,.65,0,1.32,.02,1.51,.77,1.75,1.01,.34,4.22,1.7,4.22,2.83,0,.53-1.01,2.33-1.78,2.33-.34,0-.96-.48-1.8-1.1-.22-.17-.77-.58-1.06-.58-.34,0-.43,.26-.55,.53-.77,1.87-2.69,2.4-4.56,2.4-.91,0-2.09-.17-2.93-.74-.96-.65-1.51-1.73-1.51-2.83,0-1.03,.53-2.04,1.37-2.64,1.03-.74,2.47-.98,3.72-.98h.26c.34,0,.5-.22,.5-.53,0-.48-.31-.65-.55-.65-.43,0-1.92,.12-2.98,.12-.91,0-1.15-.02-1.3-.67-.14-.6-.34-1.39-.34-2.23,0-.36,.05-.7,.48-.7,.7,0,1.73,.12,2.88,.12h.65c.6,0,1.06-.05,1.06-.58,0-.34-.19-.6-.58-.6-.82,0-2.28,.1-3.41,.1h-.72c-.96,0-1.73-.02-1.87-.36-.24-.6-.26-1.82-.26-2.52,0-.34,.02-.74,.48-.74s2.98,.22,4.56,.22h.53c.58,0,1.01-.05,1.01-.55,0-.22-.12-1.56-.19-1.99-.05-.22-.07-.46-.07-.67,0-.29,.17-.36,.46-.36,.46,0,2.88,.31,3.48,.41Zm-6.02,15.87c0,.58,.89,.6,1.3,.6,.65,0,1.44-.17,1.44-.98,0-.34-.29-.36-.74-.36-.48,0-1.99,.05-1.99,.74Z"/><path class="cls-2" d="M602.61,25.56c.19,.02,.55,.1,.55,.26,0,.07-.07,.14-.17,.22-.14,.14-.36,.31-.38,.72-.02,.24-.05,.74-.05,1.1,0,.62,.02,1.01,.74,1.01,1.9,0,3.79-.24,5.69-.24,.36,0,.67,.02,.67,1.7,0,.46-.05,1.49-.14,1.8-.07,.19-.14,.29-.36,.29-.12,0-2.71-.17-3.46-.19-.79-.02-1.61-.02-2.42-.02-.46,0-.7,.26-.7,.72v.58c0,.62,.02,.67,.34,1.32,.46,.94,.65,2.21,.65,3.24,0,3.86-2.67,8.54-3.89,8.54-.5,0-1.46-.43-1.94-.65-.67-.29-1.22-.55-1.22-.89,0-.22,.31-.5,.5-.67,.46-.43,1.61-1.51,1.61-1.9,0-.26-.22-.31-.43-.31-2.21-.05-3.05-2.54-3.05-4.39,0-2.14,.98-4.44,3.31-4.87,.17-.02,.46-.05,.46-.26,0-.12-.1-.24-.31-.24-.26,0-2.02,.19-2.4,.24-.58,.07-3.94,.62-4.42,.74-.14,.02-.31,.07-.43,.07-.38,0-.5-.55-.62-1.99-.07-.79-.1-1.34-.1-1.54,0-.36,.12-.41,.7-.43,2.18-.1,4.34-.26,6.26-.36,.62-.02,1.18-.07,1.18-.86,0-.67-.1-1.97-.22-2.62-.02-.1-.02-.14-.02-.19,0-.17,.07-.36,.36-.36,.43,0,3.17,.36,3.72,.43Zm-4.2,12.02c0,.43,.1,1.68,.74,1.68s.82-1.2,.82-1.68c0-.5-.1-1.56-.79-1.56-.65,0-.77,1.08-.77,1.56Z"/><path class="cls-2" d="M621.07,42.34c0,1.9-1.54,3.43-3.43,3.43s-3.41-1.54-3.41-3.43,1.51-3.43,3.41-3.43,3.43,1.54,3.43,3.43Zm-5.45,0c0,1.1,.91,2.02,2.02,2.02s2.04-.91,2.04-2.02-.91-2.02-2.04-2.02-2.02,.89-2.02,2.02Z"/></g><circle class="cls-2" cx="286.98" cy="18.66" r="2.5"/><circle class="cls-2" cx="311.98" cy="18.66" r="2.5"/><circle class="cls-2" cx="336.98" cy="18.66" r="2.5"/></g></g></svg>