<?xml version="1.0" encoding="UTF-8"?><svg id="_レイヤー_2" xmlns="http://www.w3.org/2000/svg" viewBox="0 0 94 97"><defs><style>.cls-1{fill:#ffd227;}.cls-2{fill:#333;}</style></defs><g id="_レイヤー_1-2"><g><path class="cls-1" d="M47,0C21.04,0,0,21.04,0,47c0,13.78,5.93,26.18,15.38,34.78l-1.38,15.22,13.43-7.27c5.96,2.74,12.59,4.27,19.57,4.27,25.96,0,47-21.04,47-47S72.96,0,47,0Z"/><g><path class="cls-2" d="M35.06,17.86c-.86,.2-1.81,.35-2.72,.45-.12,.57-.27,1.18-.41,1.74-.48,1.89-1.37,4.59-2.06,6.03l-1.17-.38c.78-1.35,1.71-4.02,2.2-5.88,.12-.44,.23-.92,.33-1.39-.42,.03-.82,.04-1.2,.04-.58,0-1.06-.03-1.53-.05l-.04-1.04c.62,.08,1.1,.09,1.58,.09,.44,0,.9-.03,1.41-.05,.09-.48,.16-.89,.2-1.16,.04-.37,.07-.81,.04-1.09l1.29,.11c-.09,.29-.19,.78-.24,1.05l-.2,.97c.85-.11,1.71-.27,2.51-.48v1.05Zm-.52,4.61c-.12,.44-.19,.85-.19,1.18,0,.62,.29,1.22,2.16,1.22,.85,0,1.77-.11,2.56-.25l-.04,1.08c-.7,.09-1.58,.17-2.54,.17-2.07,0-3.16-.64-3.16-1.94,0-.5,.08-1,.2-1.55l1,.09Zm-.33-3.2c.69-.07,1.55-.11,2.4-.11,.76,0,1.57,.03,2.27,.11l-.03,1.01c-.66-.08-1.45-.16-2.22-.16-.82,0-1.62,.05-2.43,.15v-1Z"/><path class="cls-2" d="M43.76,20.04c.94-.29,3.09-1.08,4.65-1.08,1.86,0,3.21,1.11,3.21,2.91,0,2.54-2.44,3.84-5.99,4.05l-.42-1.02c2.84-.09,5.34-.89,5.34-3.04,0-1.12-.88-1.92-2.22-1.92-1.63,0-4.5,1.19-5.35,1.53l-.44-1.1c.39-.07,.82-.19,1.22-.32Z"/><path class="cls-2" d="M61.62,17.86c-.86,.2-1.81,.35-2.72,.45-.12,.57-.27,1.18-.41,1.74-.48,1.89-1.37,4.59-2.06,6.03l-1.17-.38c.78-1.35,1.71-4.02,2.2-5.88,.12-.44,.23-.92,.33-1.39-.42,.03-.82,.04-1.2,.04-.58,0-1.06-.03-1.53-.05l-.04-1.04c.62,.08,1.1,.09,1.58,.09,.44,0,.9-.03,1.41-.05,.09-.48,.16-.89,.2-1.16,.04-.37,.07-.81,.04-1.09l1.29,.11c-.09,.29-.19,.78-.24,1.05l-.2,.97c.85-.11,1.71-.27,2.51-.48v1.05Zm-.52,4.61c-.12,.44-.19,.85-.19,1.18,0,.62,.29,1.22,2.16,1.22,.85,0,1.77-.11,2.56-.25l-.04,1.08c-.7,.09-1.58,.17-2.54,.17-2.07,0-3.16-.64-3.16-1.94,0-.5,.08-1,.2-1.55l1,.09Zm-.33-3.2c.69-.07,1.55-.11,2.4-.11,.76,0,1.57,.03,2.27,.11l-.03,1.01c-.66-.08-1.45-.16-2.22-.16-.82,0-1.62,.05-2.43,.15v-1Z"/></g><g><path class="cls-2" d="M32.26,67.98v7.43h-1v-.69h-3.72v3.61h-1.01v-3.61h-3.6v.76h-.97v-7.5h4.57v-1.75h1.01v1.75h4.71Zm-9.32,.94v1.92h3.6v-1.92h-3.6Zm3.6,4.84v-2h-3.6v2h3.6Zm1.01-4.84v1.92h3.72v-1.92h-3.72Zm3.72,4.84v-2h-3.72v2h3.72Z"/><path class="cls-2" d="M37.23,75.66c.62,.97,1.78,1.42,3.31,1.49,1.45,.05,4.39,.01,5.95-.09-.11,.24-.28,.7-.32,1.01-1.45,.05-4.17,.08-5.63,.03-1.73-.07-2.91-.54-3.76-1.57-.64,.56-1.3,1.13-2,1.7l-.53-1c.61-.4,1.35-.96,2.02-1.51v-3.36h-1.84v-.93h2.81v4.23Zm-.41-6.41c-.41-.64-1.39-1.51-2.26-2.1l.73-.6c.85,.56,1.85,1.41,2.31,2.04l-.78,.65Zm5.52-2.35c.33,4.05,1.35,7.18,4.01,8.55-.24,.16-.58,.5-.78,.74-1.86-1.09-2.93-2.96-3.53-5.38-.69,2.38-1.82,4.18-3.52,5.38-.16-.19-.54-.57-.77-.73,1.94-1.23,3.05-3.31,3.58-6.01l.42,.07c-.09-.54-.16-1.1-.23-1.69h-2.42v-.93h3.23Z"/><path class="cls-2" d="M58.08,77.22c.49,0,.58-.24,.62-1.75,.23,.15,.64,.31,.9,.38-.11,1.81-.4,2.27-1.45,2.27h-2.04c-1.21,0-1.53-.31-1.53-1.35v-3.36h-2.32c-.31,2.4-1.09,4.1-4.18,4.96-.11-.24-.37-.65-.58-.84,2.83-.7,3.48-2.12,3.72-4.13h-3.42v-.93h11.68v.93h-3.9v3.36c0,.37,.09,.45,.65,.45h1.86Zm-8.99-6.8h-1v-2.77h4.99v-1.41h1.02v1.41h5.04v2.77h-1.02v-1.85h-9.04v1.85Zm.96,.54v-.92h7.16v.92h-7.16Z"/><path class="cls-2" d="M72.04,67.75c-1.16,1.38-2.97,2.91-4.59,3.84v5.48c0,.66-.19,.97-.69,1.13-.5,.15-1.38,.15-2.74,.15-.04-.28-.24-.7-.4-.98,1.09,.04,2.12,.04,2.42,.03,.29-.01,.38-.09,.38-.33v-6.33h.65c1.1-.66,2.26-1.63,3.09-2.5h-8.55v-.97h9.44l.21-.07,.77,.56Z"/></g><g><g><path class="cls-2" d="M62.08,54.21c-.21-.37-.76-1.1-1.21-1.65v5.68h-.96v-5.87c-.54,1.34-1.25,2.67-1.92,3.48-.09-.28-.33-.66-.49-.9,.84-.93,1.75-2.64,2.28-4.16h-2.03v-.93h2.16v-2.02c-.65,.13-1.33,.24-1.94,.33-.05-.23-.19-.54-.31-.77,1.49-.24,3.23-.62,4.21-1.06l.68,.74c-.48,.2-1.06,.38-1.69,.53v2.24h1.66v.93h-1.66v.81c.41,.35,1.54,1.51,1.81,1.82l-.6,.78Zm6.96-1.31c-.88,2.92-2.81,4.55-6.24,5.36-.09-.28-.33-.66-.54-.89,3.23-.64,5.04-2.1,5.83-4.73l.96,.25Zm-4.38-4.37c-.33,1.59-.88,3.17-1.54,4.21-.19-.15-.61-.37-.85-.48,.69-.96,1.17-2.43,1.45-3.89l.94,.16Zm1.99,4.59c0,.52-.11,.8-.46,.97-.33,.15-.86,.19-1.75,.17-.04-.25-.2-.68-.35-.93,.64,.01,1.2,.01,1.35,0,.17,0,.24-.05,.24-.23v-6.94h.97v6.96Zm2.32-.72c-.2-1.05-.81-2.66-1.49-3.85l.84-.27c.72,1.18,1.34,2.75,1.55,3.81l-.9,.31Z"/><path class="cls-2" d="M72.61,48.46c.86-.08,3.34-.32,5.76-.53,1.43-.12,2.67-.19,3.54-.23v1.06c-.76,0-1.9,.01-2.58,.21-1.87,.6-3,2.6-3,4.16,0,2.56,2.39,3.37,4.53,3.45l-.38,1.12c-2.43-.11-5.2-1.41-5.2-4.34,0-2.04,1.23-3.72,2.44-4.43-1.16,.13-4.74,.48-6.16,.77l-.12-1.17c.5-.01,.92-.04,1.17-.07Zm8.54,3.76l-.68,.32c-.31-.64-.69-1.33-1.09-1.87l.68-.29c.3,.44,.81,1.26,1.09,1.84Zm1.51-.57l-.69,.32c-.32-.64-.7-1.29-1.13-1.84l.66-.31c.32,.44,.84,1.25,1.16,1.83Z"/></g><g><path class="cls-2" d="M29.74,58.38H12.66v-3.85l8.83-10.4c1.61-1.88,2.24-3.42,2.24-5.1,0-1.88-1.33-2.79-2.87-2.79-1.61,0-2.71,.98-2.87,2.79h-5.61c0-4.71,3.97-8.13,8.87-8.13s8.95,3.65,8.95,8.09c0,3.73-2.36,6.6-4.12,8.64l-4.63,5.34h8.28v5.42Z"/><path class="cls-2" d="M43.36,58.77c-5.26,0-9.74-2.43-9.74-9.03v-9.81c0-6.99,4.48-9.03,9.74-9.03s9.74,2.04,9.74,8.99v9.85c0,6.6-4.48,9.03-9.74,9.03Zm-3.26-9.78c0,2.91,.79,4.36,3.26,4.36s3.22-1.45,3.22-4.36v-8.32c0-2.91-.79-4.36-3.22-4.36s-3.26,1.45-3.26,4.36v8.32Z"/></g></g></g></g></svg>