<?xml version="1.0" encoding="UTF-8"?>
<svg id="_レイヤー_2" xmlns="http://www.w3.org/2000/svg" version="1.1" viewBox="0 0 61 75.51">
  <!-- Generator: Adobe Illustrator 29.6.1, SVG Export Plug-In . SVG Version: 2.1.1 Build 9)  -->
  <defs>
    <style>
      .st0 {
        fill: #bd7521;
      }

      .st1 {
        fill: #fff;
      }
    </style>
  </defs>
  <g id="_レイヤー_1-2">
    <g>
      <g>
        <path class="st0" d="M16.67.09v1.03h-3.13v2.02h2.83v1.02h-2.83v2.97h-1.18V.09h4.32,0Z"/>
        <path class="st0" d="M21.96,6.12h3.13v1.02h-4.32V.09h1.18v6.03h0Z"/>
        <path class="st0" d="M31.31,7.23c-1.57,0-2.63-.95-2.63-3.16v-.9C28.68.95,29.74,0,31.31,0s2.64.95,2.64,3.17v.9c0,2.21-1.06,3.16-2.64,3.16ZM29.86,4.07c0,1.52.51,2.13,1.45,2.13s1.46-.61,1.46-2.13v-.9c0-1.52-.52-2.13-1.46-2.13s-1.45.61-1.45,2.13c0,0,0,.9,0,.9Z"/>
        <path class="st0" d="M40.39,7.14h-1.14L37.58.09h1.27l1.08,5.03L41.37.09h1.09l1.47,5.06L45.02.09h1.27l-1.66,7.04h-1.15l-1.54-5.12-1.53,5.12h-.02Z"/>
      </g>
      <circle class="st0" cx="30.5" cy="45.01" r="30.5"/>
      <g>
        <path class="st1" d="M28.98,51.08c0,6.22-4.33,8.83-9.31,8.83s-9.31-2.61-9.31-8.83v-10.75c0-6.5,4.33-8.83,9.31-8.83s9.31,2.33,9.31,8.79v10.79ZM19.67,36.24c-2.53,0-3.73,1.6-3.73,4.57v9.79c0,2.97,1.2,4.57,3.73,4.57s3.69-1.6,3.69-4.57v-9.79c0-2.97-1.2-4.57-3.69-4.57Z"/>
        <path class="st1" d="M49.64,59.54h-17.09v-3.61l9.27-10.91c1.73-2.01,2.57-3.69,2.57-5.5,0-2.25-1.64-3.37-3.45-3.37s-3.29,1.16-3.45,3.37h-4.97c0-4.77,3.93-8.02,8.71-8.02s8.75,3.45,8.75,8.02c0,3.65-2.41,6.5-4.17,8.58l-5.7,6.7h9.55v4.73h-.02Z"/>
      </g>
    </g>
  </g>
</svg>