<?xml version="1.0" encoding="UTF-8"?><svg id="_レイヤー_2" xmlns="http://www.w3.org/2000/svg" viewBox="0 0 46.84 62.19"><defs><style>.cls-1{fill:#a98b53;}</style></defs><g id="_レイヤー_1-2"><g><path class="cls-1" d="M33.03,17.35c2.76-.91,5.04-2.38,6.66-4.16,.81-.89,1.46-1.86,1.92-2.88,.45-1.02,.71-2.11,.71-3.2,0-.73-.12-1.46-.36-2.16-.27-.78-.66-1.49-1.15-2.11-.73-.93-1.66-1.64-2.7-2.12C37.09,.25,35.96,0,34.8,0,33.95,0,33.09,.13,32.26,.41c-1.26,.41-2.46,1.15-3.47,2.21-1.02,1.06-1.84,2.44-2.38,4.11-.71,2.17-2.82,7.09-2.88,7.22h-.2c-.06-.12-2.17-5.04-2.88-7.22-.36-1.11-.85-2.1-1.43-2.94-.88-1.27-1.98-2.23-3.19-2.86C14.61,.3,13.31,0,12.04,0c-1.54,0-3.05,.44-4.32,1.28-.64,.42-1.21,.94-1.7,1.56-.49,.61-.88,1.32-1.15,2.11-.24,.7-.36,1.43-.36,2.16,0,.73,.11,1.45,.33,2.16,.37,1.23,1.03,2.4,1.91,3.47,1.33,1.6,3.17,2.98,5.4,3.97,2.23,.99,4.86,1.59,7.76,1.59,1.64,0,3.44,.01,3.51,0,.06,.01,1.86,0,3.51,0,2.21,0,4.27-.35,6.1-.95Zm-2.42-11.64c.58-.84,1.26-1.41,1.97-1.78,.72-.37,1.47-.55,2.21-.55,.9,0,1.76,.26,2.46,.72,.35,.23,.66,.51,.91,.83,.26,.32,.46,.7,.61,1.12,.12,.33,.17,.68,.17,1.05,0,.37-.06,.77-.18,1.19-.22,.73-.64,1.52-1.28,2.29-.95,1.15-2.37,2.25-4.16,3.04-1.79,.8-3.95,1.3-6.39,1.3-.13,0-.26,0-.38,0,.89-1.49,1.96-3.74,3.07-7.14,.27-.83,.61-1.51,1-2.07Zm-22.3,3.23c-.29-.65-.42-1.27-.42-1.83,0-.37,.06-.72,.17-1.05h0c.15-.43,.35-.8,.61-1.12,.38-.49,.88-.87,1.46-1.14,.58-.27,1.23-.41,1.91-.41,.49,0,1,.08,1.49,.24,.74,.24,1.45,.67,2.09,1.34,.64,.67,1.21,1.58,1.61,2.82,1.1,3.4,2.18,5.65,3.07,7.14-.12,0-.25,0-.38,0-1.86,0-3.56-.29-5.05-.78-2.24-.73-4.03-1.93-5.22-3.23-.6-.65-1.04-1.33-1.33-1.98Z"/><polygon class="cls-1" points="25.3 20.96 25.3 32.2 46.84 32.2 46.84 32.04 46.84 28.35 46.84 20.96 25.3 20.96"/><polygon class="cls-1" points="0 28.35 0 32.04 0 32.2 21.55 32.2 21.55 20.96 0 20.96 0 28.35"/><rect class="cls-1" x="25.3" y="35.95" width="21.55" height="26.23"/><rect class="cls-1" y="35.95" width="21.55" height="26.23"/></g></g></svg>