<?xml version="1.0" encoding="UTF-8"?>
<svg id="_レイヤー_2" data-name="レイヤー 2" xmlns="http://www.w3.org/2000/svg" viewBox="0 0 837.01 169.21">
  <defs>
    <style>
      .cls-1 {
        font-size: 23px;
      }

      .cls-1, .cls-2 {
        font-family: HannariMincho-Regular-83pv-RKSJ-H, HannariMincho;
      }

      .cls-3 {
        fill: #afa58c;
        stroke-linejoin: round;
      }

      .cls-3, .cls-4, .cls-5, .cls-6, .cls-7, .cls-8, .cls-9, .cls-10, .cls-11, .cls-12, .cls-13, .cls-14, .cls-15 {
        stroke: #fff;
        stroke-width: 1.02px;
      }

      .cls-2 {
        font-size: 35.64px;
        letter-spacing: 1.5em;
        stroke: #000;
        stroke-width: .1px;
      }

      .cls-2, .cls-4, .cls-5, .cls-6, .cls-7, .cls-8, .cls-9, .cls-10, .cls-11, .cls-12, .cls-13, .cls-14, .cls-15 {
        stroke-miterlimit: 10;
      }

      .cls-4 {
        fill: #847461;
      }

      .cls-5 {
        fill: #a0997d;
      }

      .cls-6 {
        fill: #995939;
      }

      .cls-7 {
        fill: #aa9679;
      }

      .cls-16 {
        letter-spacing: .5em;
      }

      .cls-8 {
        fill: #d3c781;
      }

      .cls-9 {
        fill: #af782f;
      }

      .cls-10 {
        fill: #ccca92;
      }

      .cls-11 {
        fill: #f7e3a4;
      }

      .cls-12 {
        fill: #684011;
      }

      .cls-13 {
        fill: #e8d49c;
      }

      .cls-14 {
        fill: #e0bf77;
      }

      .cls-15 {
        fill: #cc9b76;
      }
    </style>
  </defs>
  <g id="_レイヤー_2-2" data-name="レイヤー 2">
    <text class="cls-1" transform="translate(265.73 109.95)"><tspan class="cls-16" x="0" y="0">【売主ファースト主義を徹底追求</tspan><tspan x="517.5" y="0">】</tspan><tspan class="cls-16"><tspan x="34.5" y="37">売却専門の不動産仲介サービス</tspan></tspan></text>
    <g>
      <rect class="cls-12" x="43.45" y="129.46" width="42.94" height="21.47"/>
      <rect class="cls-15" x="43.45" y="107.99" width="42.94" height="21.47"/>
      <rect class="cls-13" x="43.45" y="86.52" width="42.94" height="21.47"/>
      <rect class="cls-6" x="43.45" y="65.05" width="42.94" height="21.47"/>
      <rect class="cls-14" x=".51" y="129.46" width="42.94" height="21.47"/>
      <rect class="cls-4" x="129.33" y="129.46" width="42.94" height="21.47"/>
      <rect class="cls-13" x="86.39" y="129.46" width="42.94" height="21.47"/>
      <rect class="cls-5" x=".51" y="107.99" width="42.94" height="21.47"/>
      <rect class="cls-8" x=".51" y="86.52" width="42.94" height="21.47"/>
      <rect class="cls-11" x=".51" y="65.05" width="42.94" height="21.47"/>
      <rect class="cls-11" x="43.45" y="43.58" width="42.94" height="21.47"/>
      <rect class="cls-14" x="86.39" y="107.99" width="42.94" height="21.47"/>
      <rect class="cls-12" x="86.39" y="86.52" width="42.94" height="21.47"/>
      <rect class="cls-10" x="86.39" y="65.05" width="42.94" height="21.47"/>
      <rect class="cls-7" x="129.33" y="107.99" width="42.94" height="21.47"/>
      <rect class="cls-8" x="129.33" y="86.52" width="42.94" height="21.47"/>
      <rect class="cls-13" x="129.33" y="65.05" width="42.94" height="21.47"/>
      <rect class="cls-9" x="86.39" y="43.58" width="42.94" height="21.47"/>
      <polygon class="cls-10" points="86.39 43.58 43.45 43.58 43.45 32.85 57.77 22.11 86.39 22.11 86.39 43.58"/>
      <polygon class="cls-13" points="86.39 43.58 129.33 43.58 129.33 32.85 115.02 22.11 86.39 22.11 86.39 43.58"/>
      <polygon class="cls-14" points="115.02 22.11 57.77 22.11 86.39 .64 115.02 22.11"/>
      <polygon class="cls-3" points=".51 65.05 43.45 65.05 43.45 32.85 .51 65.05"/>
      <polygon class="cls-10" points="172.28 65.05 129.33 65.05 129.33 32.85 172.28 65.05"/>
    </g>
    <text class="cls-2" transform="translate(384.52 52)"><tspan x="0" y="0">売却ラボ</tspan></text>
  </g>
</svg>