<?xml version="1.0" encoding="UTF-8"?><svg id="_レイヤー_2" xmlns="http://www.w3.org/2000/svg" viewBox="0 0 96.13 94.05"><defs><style>.cls-1{fill:#fff;}.cls-2{fill:#a98b53;}</style></defs><g id="_レイヤー_1-2"><g><rect class="cls-2" y="0" width="96.13" height="94.05" rx="15.4" ry="15.4"/><g><path class="cls-1" d="M36.71,48.82c-2.48,1.61-2.96,6.63-2.03,10.73,.73,3.19,2.28,7.47,4.89,11.49,2.46,3.79,5.89,7.19,8.5,9.15,3.36,2.52,8.14,4.13,10.62,2.52,1.25-.81,3.11-3.03,3.2-3.43,0,0-1.09-1.68-1.33-2.05l-3.66-5.64c-.27-.42-1.98-.04-2.84,.45-1.17,.66-2.25,2.44-2.25,2.44-.8,.46-1.47,0-2.88-.64-1.72-.79-3.66-3.26-5.21-5.49-1.41-2.32-2.87-5.09-2.89-6.99-.02-1.54-.16-2.35,.58-2.89,0,0,2.06-.26,3.14-1.06,.8-.59,1.85-1.99,1.58-2.41l-3.66-5.64c-.24-.37-1.33-2.05-1.33-2.05-.4-.09-3.18,.71-4.44,1.52Z"/><path class="cls-1" d="M57.47,53.04c1.49-6.07-2.05-12.28-8.03-14.09l.51-1.85c7,2.09,11.14,9.35,9.37,16.44l-1.85-.51Z"/><path class="cls-1" d="M53.47,51.94c.89-3.87-1.35-7.79-5.13-9l.51-1.85c4.8,1.49,7.64,6.46,6.47,11.35l-1.85-.51Z"/><path class="cls-1" d="M49.46,50.84c.3-1.66-.64-3.31-2.22-3.9l.51-1.85c2.6,.88,4.13,3.57,3.57,6.25l-1.85-.51Z"/></g><g><g><path class="cls-1" d="M57.98,12.34v2.79h-4.45v13.37h-3.28V15.13h-4.45v-2.79h12.18Z"/><path class="cls-1" d="M69.83,12.34v2.79h-6.79v3.63h6.09v2.76h-6.09v4.22h6.79v2.76h-10.07V12.34h10.07Z"/><path class="cls-1" d="M75.38,25.74h6.79v2.76h-10.07V12.34h3.28v13.4Z"/></g><g><path class="cls-1" d="M13.82,11.8v2.6c2,0,3.86,.39,5.46,1.02,.3,.12,.59,.25,.88,.38,.64-.31,1.33-.58,2.07-.79,1.32-.39,2.76-.61,4.29-.61,2.01,0,3.88,.38,5.49,1.02,.3,.12,.59,.25,.87,.38,.64-.31,1.33-.58,2.07-.79,1.31-.39,2.75-.61,4.27-.61v-2.6H13.82Z"/><path class="cls-1" d="M29.72,21.65c0,.66,.2,1.26,.54,1.76,.34,.5,.82,.91,1.39,1.14,.38,.16,.79,.25,1.23,.25,.66,0,1.26-.2,1.77-.54,.5-.34,.91-.82,1.15-1.39,.16-.38,.25-.79,.25-1.23,0-.31-.07-.65-.2-.99-.14-.35-.35-.71-.63-1.07-.54-.69-1.33-1.37-2.33-1.94-.76,.44-1.41,.94-1.91,1.46-.53,.55-.9,1.13-1.09,1.66-.11,.31-.16,.6-.16,.88Z"/><path class="cls-1" d="M35.97,17.98c.66,.69,1.17,1.45,1.45,2.26,.16,.46,.25,.94,.25,1.42,0,.99-.3,1.92-.82,2.68-.52,.77-1.25,1.37-2.11,1.74-.57,.24-1.21,.38-1.87,.38-.99,0-1.92-.3-2.68-.82-.76-.52-1.37-1.25-1.74-2.11-.24-.57-.38-1.21-.38-1.87,0-.72,.2-1.44,.55-2.1,.35-.67,.84-1.29,1.45-1.87,.32-.3,.66-.58,1.04-.85-.25-.09-.51-.18-.77-.26-1.17-.34-2.46-.54-3.83-.54-1.68,0-3.25,.3-4.6,.8,.5,.35,.94,.74,1.33,1.14,.66,.69,1.17,1.45,1.45,2.26,.16,.46,.25,.94,.25,1.42,0,.99-.3,1.92-.82,2.68-.52,.77-1.25,1.37-2.11,1.74-.57,.24-1.21,.38-1.87,.38-.99,0-1.92-.3-2.68-.82-.76-.52-1.37-1.25-1.74-2.11-.24-.57-.38-1.21-.38-1.87,0-.72,.2-1.44,.55-2.1,.35-.67,.84-1.29,1.45-1.87,.32-.3,.66-.58,1.04-.85-.25-.09-.51-.18-.77-.26-1.16-.34-2.45-.54-3.81-.54v12.43h25.41v-12.43c-1.67,0-3.23,.3-4.58,.8,.5,.35,.94,.74,1.33,1.14Z"/><path class="cls-1" d="M17,21.65c0,.66,.2,1.26,.54,1.76,.34,.5,.82,.91,1.39,1.14,.38,.16,.79,.25,1.23,.25,.66,0,1.26-.2,1.76-.54,.5-.34,.91-.82,1.15-1.39,.16-.38,.25-.79,.25-1.23,0-.31-.07-.65-.2-.99-.14-.35-.35-.71-.63-1.07-.54-.69-1.33-1.37-2.33-1.94-.76,.44-1.41,.94-1.91,1.46-.53,.55-.9,1.13-1.09,1.66-.11,.31-.16,.6-.16,.88Z"/></g></g></g></g></svg>