<?xml version="1.0" encoding="UTF-8"?><svg id="_レイヤー_2" xmlns="http://www.w3.org/2000/svg" viewBox="0 0 96.13 94.05"><defs><style>.cls-1{fill:#f76e11;}.cls-2{fill:#fff;}</style></defs><g id="_レイヤー_1-2"><g><rect class="cls-1" y="0" width="96.13" height="94.05" rx="15.4" ry="15.4"/><g><path class="cls-2" d="M30.25,19.36h-9.37v-1.48h1.23v-1.58h-1.76v-1.48h1.76v-.89c-.27,.26-.41,.37-.59,.53-.63-.5-1.3-.77-1.63-.89,.78-.63,1.87-1.57,2.59-2.94l1.83,.6c.06,.03,.13,.06,.13,.14,0,.17-.21,.21-.29,.23-.04,.06-.09,.12-.13,.17h7.55v1.59h-1.17v1.45h1.73v1.48h-1.73v1.58h1.33v1.48h-1.48c.44,.41,1.13,1.05,2.04,2.36-.55,.26-1.46,.92-1.6,1.03-.44-.76-.96-1.57-1.83-2.41l1.39-.98Zm-6.69,.8c.12,.06,.22,.12,.22,.23,0,.14-.09,.15-.32,.19-.39,.71-1.14,1.75-1.67,2.28-.45-.49-.98-.78-1.58-1.03,.76-.58,1.57-1.59,1.91-2.4l1.44,.72Zm.06-5.33h.74v-1.45h-.74v1.45Zm0,3.05h.74v-1.58h-.74v1.58Zm1.85,1.84c.44,.85,.64,1.57,.82,2.52-.72,.13-1.28,.3-1.87,.5-.05-.4-.17-1.49-.6-2.58l1.66-.44Zm.4-4.89h.74v-1.45h-.74v1.45Zm0,3.05h.74v-1.58h-.74v1.58Zm2.23,1.73c.59,.86,.92,2.05,1.03,2.39-1,.3-1.18,.35-1.75,.59-.32-1.12-.58-1.76-.94-2.52l1.66-.46Zm.01-6.24v1.45h.74v-1.45h-.74Zm0,2.93v1.58h.74v-1.58h-.74Z"/><path class="cls-2" d="M38.4,22.56h-1.78v-2.78c-.48,.72-.74,1.01-1,1.28-.78-.73-1.18-.91-1.51-1.07,.92-.85,1.85-1.92,2.36-3.57h-1.95v-1.66h2.1v-.94c-.77,.27-1.17,.5-1.46,.67-.1-.56-.31-1.39-.74-2.27l1.42-.51c.3,.58,.64,1.44,.78,1.96v-2.93l1.75,.1c.17,.01,.36,.03,.36,.21,0,.15-.21,.24-.32,.28v3.43h1.76v1.66h-1.58c.67,1.01,1.3,1.53,1.66,1.82-.37,.35-.59,.6-.94,1.23-.4-.33-.59-.51-.9-.83v3.91Zm2.27-10.52c.12,.03,.26,.08,.26,.17,0,.1-.17,.19-.28,.26-.1,.37-.33,1.13-.71,2-.5-.28-.83-.4-1.41-.5,.15-.44,.46-1.4,.65-2.32l1.49,.4Zm5.43,5.15l.31,1.57-1.28,.33v3.45h-1.82v-2.96l-3.07,.82-.3-1.64,3.36-.86v-4.49c-.44,.36-.68,.64-1.01,1.07-.35-.47-1.19-1.24-1.59-1.57l1.06-1.22c.63,.5,1.19,1.03,1.54,1.46v-2.35l1.81,.15c.1,.01,.28,.03,.28,.17,0,.1-.14,.19-.27,.27v6.04l.98-.24Zm-4.5-2.43c.68,.62,1.14,1.09,1.64,1.78-.32,.32-.67,.69-1.12,1.18-.41-.6-1-1.27-1.58-1.77l1.05-1.19Z"/><path class="cls-2" d="M56.56,13.22c.48,.45,1.75,1.51,4.16,2.36-.33,.27-.71,.63-1.17,1.4-.35-.13-.59-.22-1.3-.59v4.52h2.14v1.44h-11.82v-1.44h2.17v-4.5c-.55,.3-.86,.42-1.16,.55-.4-.64-.72-.95-1.23-1.37,1.59-.51,2.77-1.19,3.91-2.36h-3.67v-1.45h4.94v-1.1l1.9,.09c.12,0,.26,.03,.26,.15,0,.1-.12,.19-.26,.24v.62h4.93v1.45h-3.81Zm-1.12,2.39h-1.9v-1.26c-.26,.26-.86,.85-1.9,1.51h5.67c-.63-.4-1.12-.69-1.87-1.42v1.17Zm.91,2.08v-.46h-3.72v.46h3.72Zm0,1.6v-.49h-3.72v.49h3.72Zm0,1.62v-.5h-3.72v.5h3.72Z"/><path class="cls-2" d="M69.63,17.07h3.38v1.68h-3.38v1.91c.32,.01,.69,.03,1.19,.03,1.21,0,1.41-.01,3.95-.22-.45,1.07-.47,1.55-.46,2h-5.02c-2.35,0-3.41-1.28-3.79-1.8-.48,1.08-.99,1.73-1.21,2.03-.67-.49-.81-.54-1.83-.8,.48-.55,1.9-2.19,2.18-5.31l1.98,.35c.12,.03,.26,.05,.26,.21,0,.13-.08,.15-.36,.26-.06,.32-.13,.64-.29,1.26,.23,.55,.53,1.24,1.44,1.67v-4.44h-3.32v-.98h-1.6v-2.98h4.86v-1.21l1.96,.13c.18,.01,.35,.03,.35,.15,0,.1-.06,.15-.35,.28v.64h4.93v2.93h-1.49v1.03h-3.38v1.18Zm2.96-2.84v-.74h-7.99v.74h7.99Z"/><path class="cls-2" d="M29.52,27.63c.1,0,.67-.03,.89-.08l1.49,1.21c-.15,.19-.29,.36-.42,.68-1.28,3.13-1.55,3.76-2.49,5.02-1.09,1.45-2.36,2.5-4.75,3.82-.22-.3-.53-.71-1.59-1.57,2.91-1.4,4.89-2.71,6.49-7.19h-7.8v-1.9h8.19Z"/><path class="cls-2" d="M36.04,32.67v-1.71h4.53v-1.8l1.82,.12c.18,.01,.27,.03,.27,.14,0,.13-.17,.18-.27,.21v1.33h2.05v1.71h-2.05v4.03c0,1.31-.45,1.64-2.45,1.62-.1-.65-.4-1.39-.69-1.92,.19,.05,.37,.1,.85,.1s.47-.15,.47-.58v-1.54c-1.23,1.67-2.9,2.58-3.57,2.94-.37-.55-.8-1.07-1.28-1.51,1.05-.4,2.57-1.13,3.9-3.13h-3.58Z"/><path class="cls-2" d="M60.06,31.7v2.18h-11.15v-2.18h11.15Z"/><path class="cls-2" d="M71.27,31.38c1.31,1.59,2.75,3.88,3.14,5-.59,.44-1.3,.96-1.75,1.35-.15-.41-.31-.82-.59-1.44-2.99,.55-4.9,.85-8.34,1.24-.03,.12-.09,.24-.19,.24-.13,0-.17-.14-.19-.26l-.49-1.98c.6-.01,.94-.03,1.35-.05,.92-1.71,2.36-5.4,2.99-8.33l2.22,.56c.12,.03,.23,.06,.23,.18,0,.18-.21,.22-.31,.24-.22,.55-1.1,3.03-1.31,3.53-.21,.53-.94,2.34-1.6,3.64,1.22-.13,2.73-.31,4.71-.68-.51-.78-1.03-1.55-1.67-2.22l1.8-1.05Z"/></g><path class="cls-2" d="M64.72,49.13H31.41c-2.8,0-5.07,2.27-5.07,5.07v20.67c0,2.8,2.27,5.07,5.07,5.07h33.32c2.8,0,5.07-2.27,5.07-5.07v-20.67c0-2.8-2.27-5.07-5.07-5.07Zm2.65,27.1l-.96,1.14-13.51-11.02-2.09,1.99c-1.55,1.42-3.93,1.42-5.48,0l-2.09-1.99-13.51,11.02-.96-1.14,12.68-11.59-12.77-12,.75-1,18.64,14.12,18.64-14.12,.75,1-12.77,12,12.68,11.59Z"/></g></g></svg>