<?xml version="1.0" encoding="UTF-8"?><svg id="_レイヤー_2" xmlns="http://www.w3.org/2000/svg" viewBox="0 0 309.05 31.37"><defs><style>.cls-1{fill:#333;}.cls-2{fill:#a98b53;}</style></defs><g id="_レイヤー_1-2"><g><g><path class="cls-1" d="M76.26,21.81c0,6.73-4.69,9.55-10.07,9.55s-10.08-2.82-10.08-9.55V10.18c0-7.04,4.69-9.55,10.08-9.55s10.07,2.52,10.07,9.51v11.68Zm-10.07-16.07c-2.74,0-4.04,1.74-4.04,4.95v10.6c0,3.21,1.3,4.95,4.04,4.95s4-1.74,4-4.95V10.7c0-3.21-1.3-4.95-4-4.95Z"/><path class="cls-1" d="M93.72,30.98h-6.08V7.35l-4.3,2.82V4.31l4.91-3.3h5.47V30.98Z"/><path class="cls-1" d="M122.08,30.98h-18.5v-3.91l10.03-11.81c1.87-2.17,2.78-4,2.78-5.95,0-2.43-1.78-3.65-3.73-3.65s-3.56,1.26-3.73,3.65h-5.39c0-5.17,4.26-8.69,9.42-8.69s9.47,3.73,9.47,8.69c0,3.95-2.61,7.04-4.52,9.29l-6.17,7.25h10.34v5.12Z"/><path class="cls-1" d="M146.62,21.81c0,6.73-4.69,9.55-10.07,9.55s-10.08-2.82-10.08-9.55V10.18c0-7.04,4.69-9.55,10.08-9.55s10.07,2.52,10.07,9.51v11.68Zm-10.07-16.07c-2.74,0-4.04,1.74-4.04,4.95v10.6c0,3.21,1.3,4.95,4.04,4.95s4-1.74,4-4.95V10.7c0-3.21-1.3-4.95-4-4.95Z"/><path class="cls-1" d="M149.57,16h11.25v4.86h-11.25v-4.86Z"/><path class="cls-1" d="M170.55,12.96h2.21c2.48,0,4.17-1.3,4.17-3.82,0-2-1.52-3.47-3.73-3.47s-3.47,1.35-3.74,3.21h-5.38c.22-4.91,4.26-8.25,9.42-8.25,5.47,0,9.47,3.78,9.47,8.25,0,3.39-2.08,5.47-4.08,6.56,2.56,1.26,4.52,3.6,4.52,7.17,0,4.86-3.39,8.77-9.55,8.77s-9.95-3.56-10.16-8.42h5.34c.3,1.91,1.74,3.3,4.43,3.3,2.43,0,3.91-1.74,3.91-3.95,0-2.65-1.52-4.21-4.6-4.21h-2.21v-5.12Z"/><path class="cls-1" d="M196.26,13.35c.91-.43,1.82-.56,2.91-.56,4.6,0,8.21,3.78,8.21,8.95,0,6.64-4.47,9.64-10.03,9.64s-10.12-2.95-10.12-9.6c0-2.35,1.04-5.12,2.74-8.56l6.04-12.2h6.51l-6.25,12.33Zm1.09,12.9c2.61,0,3.95-1.74,3.95-4.26s-1.35-4.21-3.95-4.21-4.04,1.74-4.04,4.21,1.35,4.26,4.04,4.26Z"/><path class="cls-1" d="M229.75,30.98h-18.5v-3.91l10.03-11.81c1.87-2.17,2.78-4,2.78-5.95,0-2.43-1.78-3.65-3.73-3.65s-3.56,1.26-3.73,3.65h-5.39c0-5.17,4.26-8.69,9.42-8.69s9.47,3.73,9.47,8.69c0,3.95-2.61,7.04-4.52,9.29l-6.17,7.25h10.34v5.12Z"/><path class="cls-1" d="M233.79,16h11.25v4.86h-11.25v-4.86Z"/><path class="cls-1" d="M267.05,30.98h-18.5v-3.91l10.03-11.81c1.87-2.17,2.78-4,2.78-5.95,0-2.43-1.78-3.65-3.73-3.65s-3.56,1.26-3.73,3.65h-5.39c0-5.17,4.26-8.69,9.42-8.69s9.47,3.73,9.47,8.69c0,3.95-2.61,7.04-4.52,9.29l-6.17,7.25h10.34v5.12Z"/><path class="cls-1" d="M278.22,12.96h2.21c2.48,0,4.17-1.3,4.17-3.82,0-2-1.52-3.47-3.73-3.47s-3.47,1.35-3.74,3.21h-5.38c.22-4.91,4.26-8.25,9.42-8.25,5.47,0,9.47,3.78,9.47,8.25,0,3.39-2.08,5.47-4.08,6.56,2.56,1.26,4.52,3.6,4.52,7.17,0,4.86-3.39,8.77-9.55,8.77s-9.95-3.56-10.16-8.42h5.34c.3,1.91,1.74,3.3,4.43,3.3,2.43,0,3.91-1.74,3.91-3.95,0-2.65-1.52-4.21-4.6-4.21h-2.21v-5.12Z"/><path class="cls-1" d="M309.05,30.98h-6.08V7.35l-4.3,2.82V4.31l4.91-3.3h5.47V30.98Z"/></g><g><path class="cls-2" d="M0,0V4.82c3.71,0,7.16,.72,10.13,1.89,.56,.22,1.1,.46,1.62,.71,1.19-.57,2.47-1.07,3.84-1.47,2.44-.72,5.13-1.13,7.96-1.13,3.72,0,7.19,.71,10.18,1.89,.56,.22,1.1,.46,1.62,.71,1.19-.57,2.48-1.07,3.84-1.47,2.43-.72,5.1-1.13,7.92-1.13V0H0Z"/><path class="cls-2" d="M29.5,18.27c0,1.22,.37,2.34,1,3.27,.63,.94,1.53,1.68,2.58,2.12,.7,.3,1.47,.46,2.28,.46,1.22,0,2.34-.37,3.27-1,.94-.63,1.68-1.53,2.12-2.58,.3-.7,.46-1.47,.46-2.28,0-.58-.12-1.2-.38-1.84-.25-.64-.64-1.32-1.17-1.99-.99-1.28-2.47-2.54-4.32-3.6-1.41,.81-2.61,1.74-3.54,2.71-.99,1.03-1.67,2.09-2.02,3.09-.2,.57-.3,1.11-.3,1.63Z"/><path class="cls-2" d="M41.08,11.45c1.23,1.28,2.16,2.68,2.69,4.18,.3,.86,.47,1.74,.47,2.64,0,1.84-.56,3.55-1.52,4.97-.96,1.42-2.31,2.54-3.91,3.22-1.06,.45-2.24,.7-3.46,.7-1.84,0-3.56-.56-4.97-1.52-1.42-.96-2.54-2.31-3.22-3.91-.45-1.06-.7-2.24-.7-3.46,0-1.34,.38-2.66,1.02-3.9,.65-1.24,1.56-2.4,2.69-3.46,.59-.55,1.23-1.08,1.93-1.58-.46-.17-.94-.33-1.43-.48-2.16-.64-4.56-1.01-7.11-1.01-3.12,0-6.02,.56-8.54,1.48,.92,.66,1.75,1.37,2.47,2.12,1.23,1.28,2.16,2.68,2.69,4.18,.3,.86,.47,1.74,.47,2.64,0,1.84-.56,3.55-1.52,4.97-.96,1.42-2.31,2.54-3.91,3.22-1.06,.45-2.24,.7-3.46,.7-1.84,0-3.56-.56-4.97-1.52-1.42-.96-2.54-2.31-3.22-3.91-.45-1.06-.7-2.24-.7-3.46,0-1.34,.38-2.66,1.02-3.9,.65-1.24,1.56-2.4,2.69-3.46,.59-.55,1.23-1.08,1.92-1.58-.47-.17-.94-.33-1.43-.48-2.15-.63-4.54-1.01-7.06-1.01V30.91H47.11V7.86c-3.1,0-5.99,.56-8.5,1.48,.92,.66,1.75,1.37,2.47,2.12Z"/><path class="cls-2" d="M5.9,18.27c0,1.22,.37,2.34,1,3.27,.63,.94,1.53,1.68,2.58,2.12,.7,.3,1.47,.46,2.28,.46,1.22,0,2.34-.37,3.27-1,.94-.63,1.68-1.53,2.12-2.58,.3-.7,.46-1.47,.46-2.28,0-.58-.12-1.2-.38-1.84-.25-.64-.64-1.32-1.17-1.99-.99-1.28-2.47-2.54-4.32-3.6-1.41,.81-2.61,1.74-3.54,2.71-.99,1.03-1.67,2.09-2.02,3.09-.2,.57-.3,1.11-.3,1.63Z"/></g></g></g></svg>