<?xml version="1.0" encoding="UTF-8"?>
<svg id="_レイヤー_2" xmlns="http://www.w3.org/2000/svg" version="1.1" viewBox="0 0 61 61">
  <!-- Generator: Adobe Illustrator 29.6.1, SVG Export Plug-In . SVG Version: 2.1.1 Build 9)  -->
  <defs>
    <style>
      .st0 {
        fill: #003040;
      }

      .st1 {
        fill: #fff;
      }
    </style>
  </defs>
  <g id="_レイヤー_1-2">
    <g>
      <circle class="st0" cx="30.5" cy="30.5" r="30.5"/>
      <path class="st1" d="M40.3,39.17l4.23,3.78-2.96,3.37-4-3.55c-1.96,1.64-4.55,2.37-7.51,2.37-7.01,0-11.74-4.23-11.74-14.11v-4c0-9.87,4.73-14.11,11.74-14.11s11.79,4.23,11.79,14.11v4c0,3.32-.55,6.05-1.55,8.15h0ZM23.6,31.02c0,6.78,2.28,9.51,6.46,9.51,1.5,0,2.73-.36,3.73-1.09l-4-3.59,3.05-3.41,3.28,2.96c.32-1.18.46-2.64.46-4.37v-4c0-6.78-2.32-9.51-6.51-9.51s-6.46,2.73-6.46,9.51v4h0Z"/>
    </g>
  </g>
</svg>