<?xml version="1.0" encoding="UTF-8"?>
<svg id="_レイヤー_2" xmlns="http://www.w3.org/2000/svg" version="1.1" viewBox="0 0 54.21 37.63">
  <!-- Generator: Adobe Illustrator 29.6.1, SVG Export Plug-In . SVG Version: 2.1.1 Build 9)  -->
  <defs>
    <style>
      .st0 {
        fill: #bd7521;
      }
    </style>
  </defs>
  <g id="_レイヤー_1-2">
    <g>
      <path class="st0" d="M24.66,25.94c0,8.24-5.74,11.69-12.33,11.69S0,34.17,0,25.94v-14.25C0,3.08,5.74,0,12.33,0s12.33,3.08,12.33,11.64v14.3ZM12.33,6.27c-3.35,0-4.94,2.13-4.94,6.06v12.97c0,3.93,1.59,6.06,4.94,6.06s4.89-2.13,4.89-6.06v-12.97c0-3.93-1.59-6.06-4.89-6.06Z"/>
      <path class="st0" d="M47.83.48l-11.43,25.14h7.02v-9.35h7.44v9.35h3.35v6.33h-3.35v5.21h-7.44v-5.21h-16.26v-5.16L39.7.48h8.13Z"/>
    </g>
  </g>
</svg>