<?xml version="1.0" encoding="UTF-8"?>
<svg id="_レイヤー_2" xmlns="http://www.w3.org/2000/svg" version="1.1" viewBox="0 0 53.36 37.63">
  <!-- Generator: Adobe Illustrator 29.6.1, SVG Export Plug-In . SVG Version: 2.1.1 Build 9)  -->
  <defs>
    <style>
      .st0 {
        fill: #bd7521;
      }
    </style>
  </defs>
  <g id="_レイヤー_1-2">
    <g>
      <path class="st0" d="M24.66,25.94c0,8.24-5.74,11.69-12.33,11.69S0,34.17,0,25.94v-14.25C0,3.08,5.74,0,12.33,0s12.33,3.08,12.33,11.64v14.3ZM12.33,6.27c-3.35,0-4.94,2.13-4.94,6.06v12.97c0,3.93,1.59,6.06,4.94,6.06s4.89-2.13,4.89-6.06v-12.97c0-3.93-1.59-6.06-4.89-6.06Z"/>
      <path class="st0" d="M39.75,15.57c1.12-.53,2.23-.69,3.56-.69,5.63,0,10.04,4.62,10.04,10.95,0,8.13-5.47,11.8-12.28,11.8s-12.38-3.61-12.38-11.75c0-2.87,1.28-6.27,3.35-10.47L39.44.48h7.97l-7.65,15.09h0ZM41.08,31.35c3.19,0,4.84-2.13,4.84-5.21s-1.65-5.16-4.84-5.16-4.94,2.13-4.94,5.16,1.65,5.21,4.94,5.21Z"/>
    </g>
  </g>
</svg>