<?xml version="1.0" encoding="UTF-8"?>
<svg id="_レイヤー_2" xmlns="http://www.w3.org/2000/svg" version="1.1" viewBox="0 0 52.46 37.63">
  <!-- Generator: Adobe Illustrator 29.6.1, SVG Export Plug-In . SVG Version: 2.1.1 Build 9)  -->
  <defs>
    <style>
      .st0 {
        fill: #bd7521;
      }
    </style>
  </defs>
  <g id="_レイヤー_1-2">
    <g>
      <path class="st0" d="M24.66,25.94c0,8.24-5.74,11.69-12.33,11.69S0,34.17,0,25.94v-14.25C0,3.08,5.74,0,12.33,0s12.33,3.08,12.33,11.64v14.3ZM12.33,6.27c-3.35,0-4.94,2.13-4.94,6.06v12.97c0,3.93,1.59,6.06,4.94,6.06s4.89-2.13,4.89-6.06v-12.97c0-3.93-1.59-6.06-4.89-6.06Z"/>
      <path class="st0" d="M52.03,37.15h-22.64v-4.78l12.28-14.46c2.29-2.66,3.4-4.89,3.4-7.28,0-2.98-2.18-4.46-4.57-4.46s-4.36,1.54-4.57,4.46h-6.59C29.34,4.31,34.55,0,40.87,0s11.59,4.57,11.59,10.63c0,4.84-3.19,8.61-5.53,11.37l-7.55,8.88h12.65s0,6.27,0,6.27Z"/>
    </g>
  </g>
</svg>