<?xml version="1.0" encoding="UTF-8"?>
<svg id="_レイヤー_2" xmlns="http://www.w3.org/2000/svg" version="1.1" viewBox="0 0 52.72 37.63">
  <!-- Generator: Adobe Illustrator 29.6.1, SVG Export Plug-In . SVG Version: 2.1.1 Build 9)  -->
  <defs>
    <style>
      .st0 {
        fill: #bd7521;
      }
    </style>
  </defs>
  <g id="_レイヤー_1-2">
    <g>
      <path class="st0" d="M24.66,25.94c0,8.24-5.74,11.69-12.33,11.69S0,34.17,0,25.94v-14.25C0,3.08,5.74,0,12.33,0s12.33,3.08,12.33,11.64v14.3ZM12.33,6.27c-3.35,0-4.94,2.13-4.94,6.06v12.97c0,3.93,1.59,6.06,4.94,6.06s4.89-2.13,4.89-6.06v-12.97c0-3.93-1.59-6.06-4.89-6.06Z"/>
      <path class="st0" d="M36.99,15.09h2.71c3.03,0,5.1-1.59,5.1-4.68,0-2.44-1.86-4.25-4.57-4.25s-4.25,1.65-4.57,3.93h-6.59C29.34,4.08,34.28-.01,40.6-.01c6.7,0,11.59,4.62,11.59,10.1,0,4.15-2.55,6.7-5,8.03,3.14,1.54,5.53,4.41,5.53,8.77,0,5.95-4.15,10.74-11.69,10.74s-12.17-4.36-12.44-10.31h6.54c.37,2.34,2.13,4.04,5.42,4.04,2.98,0,4.78-2.13,4.78-4.84,0-3.24-1.86-5.16-5.63-5.16h-2.71s0-6.27,0-6.27Z"/>
    </g>
  </g>
</svg>