<?xml version="1.0" encoding="UTF-8"?>
<svg id="_レイヤー_2" xmlns="http://www.w3.org/2000/svg" version="1.1" viewBox="0 0 52.83 37.63">
  <!-- Generator: Adobe Illustrator 29.6.1, SVG Export Plug-In . SVG Version: 2.1.1 Build 9)  -->
  <defs>
    <style>
      .st0 {
        fill: #bd7521;
      }
    </style>
  </defs>
  <g id="_レイヤー_1-2">
    <g>
      <path class="st0" d="M24.66,25.94c0,8.24-5.74,11.69-12.33,11.69S0,34.17,0,25.94v-14.25C0,3.08,5.74,0,12.33,0s12.33,3.08,12.33,11.64v14.3ZM12.33,6.27c-3.35,0-4.94,2.13-4.94,6.06v12.97c0,3.93,1.59,6.06,4.94,6.06s4.89-2.13,4.89-6.06v-12.97c0-3.93-1.59-6.06-4.89-6.06Z"/>
      <path class="st0" d="M37.26,20.99h-6.7V.48h20.89v6.75h-13.61v6.27c1.01-.96,2.66-1.91,5.42-1.91,5.63,0,9.57,4.3,9.57,13.07s-3.93,12.97-11.48,12.97c-6.17,0-11.32-3.46-11.9-9.94h7.33c.58,2.34,1.97,3.67,4.36,3.67,2.66,0,4.25-2.02,4.25-6.32s-1.28-6.75-4.25-6.75c-1.91,0-3.08,1.06-3.88,2.71h0Z"/>
    </g>
  </g>
</svg>